<svg width="258" height="53" viewBox="0 0 258 53" fill="none" xmlns="http://www.w3.org/2000/svg">
<g clip-path="url(#clip0_2045_10428)">
<path fill-rule="evenodd" clip-rule="evenodd" d="M172.245 22.0761L180.604 5.67307H180.75L189.993 22.0761H199.492L187.233 0.88118H179.205L168.121 22.0761H172.245ZM40.834 12.8246L53.9427 12.6779C53.7949 15.6268 52.1017 17.2855 51.2175 17.9851C49.0459 19.6438 45.9525 19.7918 44.4797 19.7918C42.3068 19.7918 40.4295 19.4945 38.5146 18.39C37.2985 17.6891 35.8996 16.5093 35.2008 15.5151L34.6109 14.6676L30.3403 17.0259C31.5927 18.4277 33.5439 19.8268 35.6053 20.821C38.7713 22.3344 41.6806 22.703 45.2161 22.703C48.9707 22.703 54.8269 22.1851 59.06 19.1259C62.0056 16.9883 63.3682 14.0771 63.3682 11.4968C63.3682 8.91656 62.0056 5.9677 59.06 3.86638C55.4143 1.21345 50.0766 0.291928 45.3263 0.291928C42.2329 0.291928 39.3975 0.586554 36.5258 1.61839C34.1325 2.42959 32.2552 3.53541 30.3403 5.1565L34.6109 7.47977L35.6416 6.41029C36.4882 5.48877 37.9247 4.64123 39.2134 4.12466C40.9442 3.38745 42.7489 3.1668 44.6262 3.1668C48.4197 3.1668 50.5913 4.34661 51.8061 5.48877C52.6164 6.22728 53.6847 7.62773 53.9414 9.76539L40.834 9.58109V12.8246ZM215.289 2.87218C217.424 2.87218 219.854 3.31477 221.733 5.63673C223.243 7.47977 223.499 9.61873 223.499 11.4981C223.499 13.3788 223.243 15.4788 221.733 17.3582C219.854 19.6814 217.425 20.1227 215.289 20.1227C213.152 20.1227 210.724 19.6814 208.845 17.3582C207.335 15.4788 207.078 13.3788 207.078 11.4981C207.078 9.61873 207.335 7.47977 208.845 5.63673C210.722 3.31477 213.152 2.87218 215.289 2.87218ZM215.289 22.7043C219.266 22.7043 224.824 21.8191 228.545 19.1272C231.49 17.0272 232.891 14.042 232.891 11.4981C232.891 8.95549 231.491 5.969 228.545 3.86768C224.826 1.1771 219.268 0.293226 215.289 0.293226C211.35 0.293226 205.753 1.1771 201.997 3.86768C199.053 5.969 197.689 8.95549 197.689 11.4981C197.689 14.042 199.053 17.0272 201.997 19.1272C205.752 21.8191 211.35 22.7043 215.289 22.7043ZM142.273 6.22728C143.157 5.9553 144.076 5.81835 145 5.82104H145.994V16.8416H145C144.076 16.8446 143.157 16.7081 142.273 16.4367C141.538 16.2147 140.873 15.9201 140.358 15.4788C139.365 14.7039 138.554 13.4138 138.554 11.3125C138.554 9.24882 139.365 7.96 140.358 7.18514C140.873 6.74255 141.538 6.44793 142.273 6.22728ZM157.664 19.5335C162.414 19.2389 164.918 18.133 166.243 17.3218C168.749 15.8111 169.89 13.6734 169.89 11.3138C169.89 8.21828 167.863 6.37524 166.243 5.3434C163.997 3.90661 160.83 3.31477 157.664 3.13046C156.819 3.05778 155.969 3.05778 155.123 3.05778H154.204V0.145264H145.697V3.05778H144.812C143.967 3.05778 143.119 3.05778 142.272 3.13046C139.068 3.31477 135.904 3.90532 133.693 5.3434C132.074 6.37524 130.048 8.21828 130.048 11.3138C130.048 13.6734 131.188 15.8111 133.693 17.3218C134.981 18.133 137.485 19.2402 142.272 19.5335C143.046 19.5711 143.893 19.6062 144.812 19.6062H145.697V22.7043H154.204V19.6062H155.123C156.045 19.6062 156.893 19.5711 157.664 19.5335ZM157.664 6.22728C158.4 6.44793 159.064 6.74255 159.581 7.18514C160.575 7.96 161.384 9.24882 161.384 11.3125C161.384 13.4138 160.575 14.7039 159.581 15.4788C159.065 15.9201 158.402 16.2147 157.664 16.4367C156.768 16.7082 155.837 16.8447 154.901 16.8416H153.944V5.82104H154.901C155.897 5.82104 156.819 5.9677 157.664 6.22728ZM111.308 2.87218C113.409 2.87218 115.873 3.31477 117.752 5.63673C119.262 7.47977 119.519 9.61873 119.519 11.4981C119.519 13.3788 119.261 15.4788 117.752 17.3582C115.873 19.6814 113.407 20.1227 111.308 20.1227C109.173 20.1227 106.706 19.6814 104.828 17.3582C103.318 15.4788 103.099 13.3788 103.099 11.4981C103.099 9.61873 103.319 7.47977 104.828 5.63673C106.706 3.31477 109.173 2.87218 111.308 2.87218ZM111.308 22.7043C115.248 22.7043 120.845 21.8191 124.563 19.1272C127.473 17.0272 128.834 14.042 128.834 11.4981C128.834 8.95549 127.471 5.969 124.563 3.86768C120.845 1.1771 115.247 0.293226 111.308 0.293226C107.332 0.293226 101.735 1.1771 98.0167 3.86768C95.0711 5.969 93.7085 8.95549 93.7085 11.4981C93.7085 14.042 95.0711 17.0272 98.0167 19.1272C101.735 21.8191 107.332 22.7043 111.308 22.7043ZM79.2008 14.299H80.7851C84.8716 14.299 87.707 13.8564 89.7321 12.6766C92.2719 11.1645 92.8619 9.10086 92.8619 7.47977C92.8619 5.89372 92.2719 3.83004 89.7321 2.39325C87.707 1.24979 84.9818 0.88118 80.4169 0.88118H65.8717V22.0761H74.3779V14.299H79.2008ZM79.2008 4.12466C80.2315 4.1623 81.5578 4.34661 82.5146 4.93586C83.8033 5.74576 84.025 6.85288 84.025 7.51611C84.025 8.17934 83.8396 9.35915 82.442 10.2067C81.4839 10.8336 80.3067 11.0179 79.2008 11.0919H74.3766V4.08962H78.3166C78.5746 4.08962 78.8689 4.08962 79.2008 4.12466ZM13.3667 5.85868L17.601 13.0816H9.13113L13.145 5.71071H13.2552L13.3667 5.85868ZM19.3319 15.9577L22.9776 22.0761H32.4769L19.5898 0.88118H11.7085L0 22.0761H4.23431L7.58442 15.9577H19.3319ZM231.195 4.08962H240.326V22.0761H248.833V4.08962H258V0.88118H231.195V4.08962ZM249.275 36.4881H247.874L242.278 41.9082L244.155 36.4881H242.721L240.216 43.8603H241.653L247.213 38.4051L245.371 43.8603H246.806L249.275 36.4881ZM240.583 36.4881H239.185L238.191 39.3656H234.692L235.688 36.4881H234.252L231.746 43.8603H233.183L234.325 40.4325H237.823L236.644 43.8603H238.118L240.583 36.4881ZM232.116 36.4881H230.717L225.12 41.9082L226.961 36.4881H225.561L223.059 43.8603H224.456L230.054 38.4051L228.212 43.8603H229.612L232.116 36.4881ZM219.045 36.4881L218.198 38.592C217.943 39.308 217.648 40.0088 217.312 40.6908C216.834 41.7252 216.356 42.7194 215.106 43.0127L214.883 43.9706C215.619 43.9355 216.172 43.6383 216.541 43.4203C217.975 42.4975 218.455 40.9101 219.523 38.3299L219.89 37.4473H221.657L219.523 43.8577H220.921L223.425 36.4855H219.045V36.4881ZM187.674 40.4701C187.858 40.4325 188.116 40.4325 188.409 40.4325H189.441L188.926 41.9809C188.727 42.2487 188.476 42.4737 188.188 42.6428C188.007 42.7544 187.823 42.8284 187.675 42.8635C187.43 42.9666 187.166 43.0175 186.901 43.0127C186.605 43.0127 186.238 42.9751 186.017 42.6805C185.831 42.4222 185.831 42.1275 185.943 41.7576C186.054 41.4656 186.238 41.1723 186.643 40.8725C186.949 40.6567 187.303 40.5186 187.674 40.4701ZM188.448 43.8603H189.699L191.319 39.0697C191.577 38.3324 191.872 37.5965 191.466 36.9683C191.135 36.4894 190.325 36.3038 189.661 36.3038C188.816 36.3038 188.187 36.4154 187.674 36.601C186.605 37.0073 186.127 37.7094 186.089 38.3324L187.34 38.4064C187.416 38.1507 187.526 37.9651 187.674 37.8159C188.007 37.4122 188.559 37.3019 189.257 37.3019C189.552 37.3019 189.919 37.3395 190.068 37.5991C190.29 37.8548 190.178 38.2247 190.068 38.557L189.773 39.5122H188.704C188.336 39.5122 188.007 39.5122 187.674 39.5499C186.238 39.7329 185.024 40.3234 184.508 41.8368C184.102 42.9777 184.508 43.9732 186.127 43.9732C186.605 43.9732 187.121 43.9381 187.636 43.6786H187.674C188.051 43.4846 188.399 43.2362 188.704 42.9413H188.741L188.448 43.8603ZM211.939 40.4701C212.159 40.4325 212.381 40.4325 212.675 40.4325H213.743L213.19 41.9809C212.99 42.248 212.74 42.473 212.453 42.6428C212.294 42.7417 212.12 42.816 211.939 42.8635C211.707 42.9664 211.456 43.0173 211.202 43.0127C210.87 43.0127 210.505 42.9751 210.318 42.6805C210.098 42.4222 210.098 42.1275 210.208 41.7576C210.318 41.4656 210.505 41.1723 210.908 40.8725C211.128 40.7271 211.423 40.5441 211.939 40.4701ZM212.71 43.8603H214L215.619 39.0697C215.84 38.3324 216.134 37.5965 215.731 36.9683C215.398 36.4894 214.589 36.3038 213.925 36.3038C213.114 36.3038 212.452 36.4154 211.937 36.601C210.869 37.0073 210.427 37.7094 210.353 38.3324L211.605 38.4064C211.679 38.1507 211.789 37.9651 211.937 37.8159C212.304 37.4122 212.82 37.3019 213.522 37.3019C213.815 37.3019 214.184 37.3395 214.367 37.5991C214.551 37.8548 214.478 38.2247 214.367 38.557L214.034 39.5122H212.967C212.6 39.5122 212.269 39.5122 211.937 39.5499C210.503 39.7329 209.285 40.3234 208.771 41.8368C208.365 42.9777 208.771 43.9732 210.392 43.9732C210.869 43.9732 211.385 43.9381 211.937 43.6786C212.315 43.4858 212.662 43.2373 212.967 42.9413H213.042L212.71 43.8603ZM208.771 36.4881H207.335L201.775 41.9082L203.618 36.4881H202.181L199.676 43.8603H201.113L206.672 38.4051L204.831 43.8603H206.268L208.771 36.4881ZM196.437 40.5817C196.693 40.5817 196.915 40.6908 197.061 40.8024C197.247 41.023 197.247 41.3929 197.099 41.7252C196.98 42.0637 196.763 42.3586 196.474 42.5714C196.474 42.5714 196.437 42.5714 196.437 42.6091C196.142 42.7921 195.736 42.8622 195.332 42.8622H193.601L194.376 40.5428H196.179C196.289 40.5441 196.364 40.5441 196.437 40.5817ZM196.437 37.4486H197.173C197.431 37.4486 197.762 37.4486 197.983 37.6692C198.204 37.9275 198.167 38.1832 198.095 38.4804C197.983 38.775 197.837 39.0684 197.504 39.289C197.138 39.5473 196.805 39.5473 196.437 39.5473H194.706L195.441 37.4486H196.437ZM196.437 43.7538C196.915 43.6046 197.357 43.3463 197.689 43.1256C198.147 42.7561 198.502 42.2741 198.72 41.7265C198.867 41.28 198.905 40.8751 198.682 40.509C198.537 40.2482 198.241 40.0301 197.838 39.9535L197.874 39.9185C198.353 39.8069 198.759 39.5486 199.015 39.2903C199.272 39.0346 199.494 38.6284 199.64 38.2585C199.862 37.5965 199.75 37.2266 199.494 36.9307C199.127 36.5271 198.537 36.4894 198.058 36.4894H194.34L191.8 43.8616H195.443C195.774 43.8603 196.107 43.8239 196.437 43.7538ZM171.952 37.4109C172.173 37.3369 172.393 37.2993 172.576 37.2993C174.011 37.2993 173.682 38.5168 173.424 39.18L173.314 39.5097H170.293L170.404 39.18C170.773 38.0729 171.399 37.5965 171.952 37.4109ZM171.952 40.4701H174.418C175.522 37.8133 175.375 36.3025 172.909 36.3025C172.614 36.3025 172.282 36.3402 171.952 36.4141C170.516 36.7464 169.226 37.9275 168.453 40.2845C167.388 43.4203 168.637 43.9706 170.332 43.9706C170.955 43.9706 171.509 43.8966 171.952 43.7525C173.13 43.345 173.792 42.5338 173.902 41.7239L172.688 41.5357C172.614 41.7563 172.431 42.2379 171.952 42.5701C171.657 42.7908 171.251 42.9738 170.662 42.9738C170.22 42.9738 169.117 42.8622 169.742 41.171L169.964 40.4688H171.952V40.4701ZM167.901 36.4881H166.502L160.905 41.9082L162.745 36.4881H161.347L158.844 43.8603H160.279L165.838 38.4051L163.997 43.8603H165.434L167.901 36.4881ZM153.542 36.4881L151.038 43.8603H152.473L153.614 40.5441H154.978C155.234 40.5441 155.565 40.5441 155.713 40.8024C155.787 40.9114 155.858 41.1346 155.749 41.5019L155.564 42.4987C155.455 42.9751 155.38 43.493 155.969 43.7863C156.265 43.8979 156.706 43.9719 156.965 43.9719L157.555 42.9024C157.444 42.9024 157.333 42.9024 157.222 42.8648C156.926 42.7557 156.965 42.4611 157.001 42.2418L157.075 41.7278C157.112 41.3955 157.261 40.914 157.112 40.5467C157.038 40.2884 156.743 40.1028 156.448 40.0327V39.9951C156.773 39.926 157.069 39.7578 157.294 39.5135C157.554 39.2215 157.663 39.0372 157.81 38.74L158.068 38.226C158.177 37.9677 158.361 37.5615 158.731 37.4148C158.804 37.3772 158.916 37.3408 159.246 37.3032L159.392 36.3453C158.84 36.4193 158.288 36.4193 157.773 36.7892C157.331 37.1215 157.147 37.5628 156.963 37.9327L156.741 38.3363C156.557 38.7088 156.445 39.0009 156.078 39.2241C155.822 39.4448 155.526 39.4448 155.269 39.4448H153.979L154.975 36.4946H153.542V36.4881ZM149.233 42.3871C148.976 42.5338 148.643 42.6428 148.311 42.7544C147.964 42.8541 147.605 42.9035 147.244 42.9011C146.766 42.9011 146.25 42.8635 145.919 42.4222C145.513 41.9082 145.771 41.097 146.104 40.1742C146.361 39.289 146.657 38.4804 147.173 37.9638C147.466 37.6692 147.907 37.2993 148.682 37.2993C149.197 37.2993 149.491 37.4486 149.639 37.7069C149.822 38.0015 149.713 38.3299 149.491 38.8127L150.854 38.7037C151.367 37.8899 151.296 37.0787 150.706 36.675C150.338 36.4141 149.787 36.3025 149.198 36.3025C148.462 36.3025 147.576 36.4881 146.841 36.9281C145.478 37.7393 144.814 39.2176 144.52 40.1378C144.263 40.9114 143.897 42.3482 144.632 43.236C145.11 43.859 145.884 43.9706 146.731 43.9706C147.283 43.9706 147.761 43.9355 148.388 43.7525C148.718 43.6033 149.085 43.454 149.456 43.271L149.233 42.3871ZM142.826 33.281C142.751 33.4825 142.624 33.6607 142.459 33.7975C142.202 34.0182 141.795 34.1324 141.538 34.1324C141.279 34.1324 140.912 34.0182 140.838 33.7975C140.727 33.6509 140.763 33.4653 140.838 33.281H139.807C139.548 33.8339 139.586 34.3868 139.916 34.6853C140.248 35.015 140.838 35.05 141.206 35.05C141.65 35.05 142.202 35.015 142.789 34.6853C143.342 34.3868 143.711 33.8339 143.856 33.281H142.826ZM143.933 36.4881H142.531L136.936 41.9082L138.775 36.4881H137.377L134.873 43.8603H136.308L141.869 38.4051L140.029 43.8603H141.464L143.933 36.4881ZM135.24 36.4881H133.841L128.245 41.9082L130.088 36.4881H128.686L126.183 43.8603H127.583L133.144 38.4051L131.301 43.8603H132.738L135.24 36.4881ZM124.637 42.3871C124.327 42.5308 124.007 42.6535 123.681 42.7544C123.275 42.8635 122.98 42.9011 122.575 42.9011C122.134 42.9011 121.582 42.8635 121.286 42.4222C120.919 41.9082 121.139 41.097 121.471 40.1742C121.766 39.289 122.061 38.4804 122.576 37.9638C122.759 37.7527 122.985 37.5838 123.239 37.4691C123.494 37.3543 123.77 37.2964 124.049 37.2993C124.563 37.2993 124.859 37.4486 125.043 37.7069C125.19 38.0015 125.081 38.3299 124.897 38.8127L126.222 38.7037C126.736 37.8899 126.7 37.0787 126.111 36.675C125.743 36.4141 125.155 36.3025 124.565 36.3025C123.828 36.3025 122.944 36.4881 122.209 36.9281C120.846 37.7393 120.22 39.2176 119.888 40.1378C119.63 40.9114 119.262 42.3482 119.999 43.236C120.478 43.859 121.287 43.9706 122.098 43.9706C122.65 43.9706 123.166 43.9355 123.754 43.7525C124.049 43.6033 124.455 43.454 124.785 43.271L124.637 42.3871ZM117.384 42.3871C117.071 42.525 116.751 42.6476 116.427 42.7544C116.021 42.8635 115.727 42.9011 115.322 42.9011C114.88 42.9011 114.328 42.8635 114.033 42.4222C113.628 41.9082 113.886 41.097 114.218 40.1742C114.474 39.289 114.77 38.4804 115.322 37.9638C115.58 37.6692 116.022 37.2993 116.795 37.2993C117.273 37.2993 117.604 37.4486 117.752 37.7069C117.9 38.0015 117.826 38.3299 117.604 38.8127L118.968 38.7037C119.483 37.8899 119.409 37.0787 118.858 36.675C118.488 36.4141 117.9 36.3025 117.311 36.3025C116.575 36.3025 115.69 36.4881 114.954 36.9281C113.591 37.7393 112.965 39.2176 112.633 40.1378C112.377 40.9114 112.008 42.3482 112.745 43.236C113.223 43.859 114.033 43.9706 114.844 43.9706C115.396 43.9706 115.911 43.9355 116.501 43.7525C116.796 43.6033 117.201 43.454 117.531 43.271L117.384 42.3871ZM107.848 37.52C108.161 37.3789 108.499 37.3038 108.842 37.2993C109.431 37.2993 109.725 37.5576 109.837 37.7782C110.131 38.3312 109.873 39.1449 109.763 39.5097L109.284 40.8024C109.174 41.1723 108.879 41.9809 108.254 42.4987C108.143 42.6104 108.033 42.6818 107.849 42.7934C107.591 42.9024 107.296 43.014 106.892 43.014C106.265 43.014 105.972 42.7557 105.862 42.5C105.604 41.9835 105.862 41.1749 105.972 40.8037L106.413 39.511C106.56 39.1462 106.855 38.3324 107.481 37.7795C107.589 37.7082 107.7 37.5965 107.848 37.52ZM109.173 36.3038C108.694 36.3038 108.252 36.3778 107.848 36.4894C107.332 36.6776 106.891 36.9307 106.485 37.2656C105.455 38.0742 104.94 39.2202 104.644 40.1755C104.312 41.0633 104.018 42.2041 104.498 43.053C104.828 43.6059 105.455 43.9732 106.559 43.9732C107.038 43.9732 107.48 43.9381 107.848 43.7876C108.362 43.6484 108.84 43.3976 109.247 43.053C110.277 42.2041 110.793 41.0633 111.124 40.1755C111.42 39.2202 111.676 38.0742 111.198 37.2656C110.904 36.7088 110.278 36.3038 109.173 36.3038ZM101.955 34.4244H102.876C103.356 34.4244 103.907 34.5737 104.127 34.8683C104.275 35.015 104.533 35.3823 104.275 36.1208C104.017 36.897 103.538 37.3382 103.318 37.4849C102.84 37.8522 102.36 38.0015 101.955 38.0015C101.846 38.0391 101.735 38.0391 101.625 38.0391H99.5258L100.741 34.4244H101.955ZM101.955 39.2189C102.88 39.1628 103.766 38.828 104.496 38.2585C105.195 37.7795 105.785 36.9683 106.079 36.1221C106.262 35.5316 106.41 34.5763 105.749 33.9092C105.086 33.2836 104.128 33.2096 103.244 33.2096H99.5984L95.9903 43.8616H97.5746L99.12 39.2553H101.403C101.551 39.254 101.735 39.254 101.955 39.2189ZM258 36.4881H256.565L251.004 41.9082L252.845 36.4881H251.409L248.905 43.8603H250.342L255.901 38.4051L254.061 43.8603H255.497L258 36.4881ZM14.1018 47.4347L11.046 46.1082L23.7127 44.5624C23.9331 44.9297 24.1548 45.262 24.4128 45.5943L14.1018 47.4347ZM48.0865 47.4347L51.1423 46.0356L38.5496 44.5248C38.4394 44.931 38.1075 45.262 37.8871 45.5943L48.0865 47.4347ZM46.2468 47.658L42.417 48.9481L36.9679 47.2906L36.4882 47.144C36.6723 46.9947 36.8201 46.8468 36.9679 46.6651C37.1883 46.4795 37.3724 46.2212 37.5941 46.0369L46.2468 47.658ZM56.3724 44.0835L52.8744 45.7059L38.8828 44.0835L39.2147 43.0867L56.3724 44.0835ZM57.6235 43.6046L62.1884 40.6921H37.4463C37.4463 41.7265 37.2985 42.6117 36.9679 43.3839C36.0098 45.8526 33.6178 47.0324 31.2232 46.9934C28.8675 46.9194 26.4742 45.7059 25.4059 43.454C25.0095 42.5873 24.8085 41.6439 24.8173 40.6908H0L4.52991 43.6033L23.4923 42.6091C23.8592 43.9706 24.5217 45.1517 25.4059 46.0343C26.9163 47.6216 29.0879 48.5055 31.2232 48.5055C33.3222 48.5431 35.4588 47.7709 36.9679 46.0719C37.7782 45.1867 38.4031 44.0433 38.7713 42.6805L57.6235 43.6046ZM36.9679 51.1208L37.4463 52.0086L36.9679 52.2318L35.6792 52.8197L34.2064 49.9072C33.2462 50.2436 32.24 50.4301 31.2232 50.4601C30.1256 50.5023 29.0292 50.3521 27.9833 50.0163L26.7309 52.8197C26.3251 52.8548 25.7728 52.8198 25.4059 52.5641C25.1942 52.4412 25.0367 52.2428 24.9651 52.0086L25.4059 51.2713L26.4742 49.3517C26.1423 49.1337 25.848 48.987 25.5537 48.6898L26.4379 47.6229C27.947 48.5457 29.6039 49.0597 31.2232 49.0597C32.8438 49.0973 34.4631 48.5782 35.9735 47.5113L36.9692 47.8059L37.3737 47.9552C37.2272 48.0642 37.1157 48.1758 36.9692 48.2874C36.6736 48.5795 36.4169 48.8754 35.9385 49.1337L36.9679 51.1208ZM36.9679 36.0468C37.9247 37.1903 38.6235 38.592 38.993 40.2118H37.41C37.3027 39.7338 37.1552 39.2658 36.9692 38.8127C35.9009 36.0118 33.728 34.0195 31.2245 32.3582C30.8939 32.1752 30.5996 31.9545 30.2677 31.7702C30.5996 31.8818 30.8939 31.9934 31.2245 32.1051C33.5063 33.0227 35.5314 34.2778 36.9679 36.0468ZM32.696 46.4405C33.2417 46.3328 33.7572 46.1069 34.2064 45.7786L31.7016 40.8024L34.3166 39.5473L32.1074 37.6303L31.2232 38.0391L27.431 39.7679L28.5356 42.2755L30.3403 41.4669L32.696 46.4405ZM25.848 47.1427C25.7002 47.0311 25.5524 46.8844 25.4059 46.7728C25.1313 46.5443 24.8842 46.2848 24.6695 45.9992L16.0232 47.6346L19.7039 48.8715L25.848 47.1427ZM23.4923 44.0835C23.3445 43.7538 23.2343 43.4216 23.1228 43.0867L5.81732 44.0835L9.31523 45.7799L23.4923 44.0835Z" fill="#1276D1"/>
</g>
<defs>
<clipPath id="clip0_2045_10428">
<rect width="258" height="53" fill="white"/>
</clipPath>
</defs>
</svg>
