<svg width="193" height="50" viewBox="0 0 193 50" fill="none" xmlns="http://www.w3.org/2000/svg">
<g clip-path="url(#clip0_2045_10403)">
<path d="M22.0001 50C13.7298 41.9998 9.59453 37.9998 9.59435 38L1.50579 46C0.673725 47.0973 0.888718 48.6613 1.98599 49.4934C2.41947 49.8221 2.94856 50 3.49258 50C3.50615 50 3.51972 50 3.5333 50C9.6889 50 15.8445 50 22.0001 50Z" fill="#FF4F12"/>
<path fill-rule="evenodd" clip-rule="evenodd" d="M30 18L12 0L1.95029 10.4684C0.698836 11.772 0 13.5091 0 15.3162L0 46C0 48.2091 1.79086 50 4 50C2.63137 50 1.52187 48.8905 1.52187 47.5219C1.52187 46.863 1.78426 46.2313 2.25103 45.7662" fill="#7800FF"/>
<path fill-rule="evenodd" clip-rule="evenodd" d="M158.272 31.1741H153.944L148.773 36.403V31.1741H145.113V45.5825H148.773V39.6275L154.031 45.5825H158.447L151.649 37.8554L158.272 31.1741Z" fill="white"/>
<mask id="mask0_2045_10403" style="mask-type:luminance" maskUnits="userSpaceOnUse" x="33" y="25" width="17" height="21">
<path d="M33 25.248H49.8486V45.5825H33V25.248Z" fill="white"/>
</mask>
<g mask="url(#mask0_2045_10403)">
<path fill-rule="evenodd" clip-rule="evenodd" d="M42.1215 35.0666H36.8343V28.6758H42.1215C44.7939 28.6758 46.0141 29.9538 46.0141 31.8711C46.0141 33.7883 44.7939 35.0666 42.1215 35.0666ZM42.2376 25.2478H33V45.5824H36.8343V38.4943H42.2376C46.8275 38.4943 49.8486 36.1414 49.8486 31.8711C49.8486 27.6007 46.8275 25.2478 42.2376 25.2478Z" fill="white"/>
</g>
<path fill-rule="evenodd" clip-rule="evenodd" d="M58.5038 42.5614C56.3544 42.5614 54.3498 41.0217 54.3498 38.3781C54.3498 35.7348 56.3544 34.1953 58.5038 34.1953C60.6535 34.1953 62.6579 35.7348 62.6579 38.3781C62.6579 41.0217 60.6535 42.5614 58.5038 42.5614ZM58.5038 30.7673C54.5532 30.7673 50.6313 33.3239 50.6313 38.3781C50.6313 43.4331 54.5532 45.9892 58.5038 45.9892C62.4547 45.9892 66.3763 43.4331 66.3763 38.3781C66.3763 33.3239 62.4547 30.7673 58.5038 30.7673Z" fill="white"/>
<path fill-rule="evenodd" clip-rule="evenodd" d="M75.7212 42.5614C73.5135 42.5614 71.8867 40.9637 71.8867 38.3781C71.8867 35.8218 73.5715 34.1953 75.7212 34.1953C77.0285 34.1953 78.1614 34.8053 79.0619 36.1706L82.1991 34.3694C81.1535 32.1324 78.8875 30.7673 75.7502 30.7673C71.6542 30.7673 68.1682 33.7885 68.1682 38.3781C68.1682 42.968 71.4801 45.9892 75.7502 45.9892C78.8294 45.9892 80.8918 44.5951 82.3445 42.1258L79.3233 40.47C78.4519 41.69 77.5221 42.5614 75.7212 42.5614Z" fill="white"/>
<path fill-rule="evenodd" clip-rule="evenodd" d="M114.693 39.337C114.519 41.5446 114.083 42.0387 113.328 42.0387C112.812 42.0387 112.569 41.9814 112.216 41.8889L112.234 45.6177C112.234 45.6177 112.689 45.7566 113.532 45.7566C116.64 45.7566 117.802 43.7523 118.092 39.4822L118.441 34.4567H122.566V45.5535H126.226V31.1741H115.303L114.693 39.337Z" fill="white"/>
<path fill-rule="evenodd" clip-rule="evenodd" d="M100.303 36.4611C100.825 34.8343 102.278 33.556 104.195 33.556C106.229 33.556 107.594 34.6599 107.943 36.4611H100.303ZM104.312 30.7673C100.128 30.7673 96.7295 33.8175 96.7295 38.3781C96.7295 42.939 100.128 45.9892 104.137 45.9892C107.304 45.9892 109.308 44.7982 110.76 42.329L107.855 40.8766C106.955 42.0095 106.141 42.8517 104.195 42.8517C102.046 42.8517 100.477 41.4576 100.245 39.2498H111.341V37.9716C111.341 33.7595 108.437 30.7673 104.312 30.7673Z" fill="white"/>
<path fill-rule="evenodd" clip-rule="evenodd" d="M131.848 36.4611C132.371 34.8343 133.823 33.556 135.741 33.556C137.774 33.556 139.139 34.6599 139.488 36.4611H131.848ZM135.857 30.7673C131.674 30.7673 128.275 33.8175 128.275 38.3781C128.275 42.939 131.674 45.9892 135.683 45.9892C138.849 45.9892 140.853 44.7982 142.306 42.329L139.401 40.8766C138.5 42.0095 137.687 42.8517 135.741 42.8517C133.591 42.8517 132.022 41.4576 131.79 39.2498H142.887V37.9716C142.887 33.7595 139.982 30.7673 135.857 30.7673Z" fill="white"/>
<path fill-rule="evenodd" clip-rule="evenodd" d="M83.4829 34.3694H87.7823V45.5825H91.4422V34.3694H95.7419V31.1741H83.4829V34.3694Z" fill="white"/>
<path fill-rule="evenodd" clip-rule="evenodd" d="M165.714 42.5614C163.564 42.5614 161.56 41.0217 161.56 38.3781C161.56 35.7348 163.564 34.1953 165.714 34.1953C167.864 34.1953 169.868 35.7348 169.868 38.3781C169.868 41.0217 167.864 42.5614 165.714 42.5614ZM165.714 30.7673C161.763 30.7673 157.841 33.3236 157.841 38.3781C157.841 43.4329 161.763 45.9892 165.714 45.9892C169.664 45.9892 173.586 43.4329 173.586 38.3781C173.586 33.3236 169.664 30.7673 165.714 30.7673Z" fill="white"/>
<path fill-rule="evenodd" clip-rule="evenodd" d="M188.15 31.1714L184.178 41.2623L180.205 31.1714H175.421V45.5538H178.9V36.4487L182.757 45.5538H185.599L189.455 36.4487V45.5538H192.935V31.1714H188.15Z" fill="white"/>
</g>
<defs>
<clipPath id="clip0_2045_10403">
<rect width="193" height="50" fill="white"/>
</clipPath>
</defs>
</svg>
