<svg width="40" height="41" viewBox="0 0 40 41" fill="none" xmlns="http://www.w3.org/2000/svg">
<path d="M20 0.5C31.0457 0.5 40 9.4543 40 20.5C40 31.5457 31.0457 40.5 20 40.5C8.9543 40.5 0 31.5457 0 20.5C0 9.4543 8.9543 0.5 20 0.5ZM14.752 21.4971C13.6453 21.4982 12.8346 21.5916 12.2393 21.6904C11.2581 21.864 10.3664 22.7552 10.1934 23.7363C10.0942 24.3315 10.0022 25.1419 10.001 26.248C10.0021 27.3545 10.0945 28.1655 10.1934 28.7607C10.3668 29.7419 11.2585 30.6331 12.2393 30.8066C12.835 30.9059 13.6453 30.9988 14.752 31C15.8586 30.9988 16.6693 30.9055 17.2646 30.8066C18.2458 30.6331 19.1375 29.7419 19.3105 28.7607C19.4097 28.1655 19.5018 27.3545 19.5029 26.248C19.5017 25.1419 19.4093 24.3315 19.3105 23.7363C19.1371 22.7552 18.2458 21.8636 17.2646 21.6904C16.6693 21.5912 15.8586 21.4982 14.752 21.4971ZM25.249 21.4971C24.1424 21.4982 23.3316 21.5916 22.7363 21.6904C21.7551 21.8639 20.8635 22.7551 20.6904 23.7363C20.5912 24.3315 20.4992 25.1419 20.498 26.248C20.4992 27.3546 20.5916 28.1655 20.6904 28.7607C20.8639 29.742 21.7555 30.6332 22.7363 30.8066C23.332 30.9059 24.1424 30.9988 25.249 31C26.3556 30.9988 27.1664 30.9055 27.7617 30.8066C28.7428 30.633 29.6336 29.7419 29.8066 28.7607C29.9059 28.1654 29.9988 27.3546 30 26.248C29.9988 25.1418 29.9054 24.3315 29.8066 23.7363C29.6332 22.7552 28.7428 21.8637 27.7617 21.6904C27.1664 21.5912 26.3556 21.4983 25.249 21.4971ZM15.5713 24.3789C15.8612 24.0894 16.3313 24.0892 16.6211 24.3789C16.9108 24.6687 16.9106 25.1388 16.6211 25.4287L15.8008 26.248L16.6211 27.0684C16.9104 27.3581 16.9104 27.8274 16.6211 28.1172C16.4762 28.2621 16.2855 28.335 16.0957 28.335C15.906 28.3349 15.7165 28.262 15.5713 28.1172L14.752 27.2979L13.9316 28.1172C13.7868 28.2621 13.5974 28.3349 13.4072 28.335C13.217 28.335 13.0277 28.2621 12.8828 28.1172C12.593 27.8273 12.593 27.3582 12.8828 27.0684L13.7021 26.248L12.8828 25.4287C12.593 25.1389 12.593 24.6688 12.8828 24.3789C13.1726 24.0896 13.6419 24.0896 13.9316 24.3789L14.752 25.1992L15.5713 24.3789ZM27.0713 26.835C27.4811 26.835 27.8135 27.1674 27.8135 27.5771C27.8134 27.9868 27.481 28.3193 27.0713 28.3193H23.4258C23.0161 28.3193 22.6837 27.9868 22.6836 27.5771C22.6836 27.1674 23.016 26.835 23.4258 26.835H27.0713ZM27.0713 24.1777C27.4811 24.1777 27.8135 24.5102 27.8135 24.9199C27.8135 25.3297 27.4811 25.6621 27.0713 25.6621H23.4258C23.016 25.6621 22.6836 25.3297 22.6836 24.9199C22.6836 24.5102 23.016 24.1777 23.4258 24.1777H27.0713ZM14.752 11C13.6454 11.0012 12.8346 11.0945 12.2393 11.1934C11.258 11.3668 10.3668 12.258 10.1934 13.2393C10.0945 13.8346 10.0012 14.6454 10 15.752C10.0012 16.8582 10.0946 17.6685 10.1934 18.2637C10.3668 19.2448 11.2576 20.136 12.2383 20.3096C12.8339 20.4088 13.6444 20.5017 14.751 20.5029C15.8576 20.5018 16.6684 20.4084 17.2637 20.3096C18.2449 20.1361 19.1365 19.2449 19.3096 18.2637C19.4088 17.6685 19.5008 16.8581 19.502 15.752C19.5008 14.6454 19.4084 13.8345 19.3096 13.2393H19.3105C19.1371 12.2581 18.2458 11.3665 17.2646 11.1934C16.669 11.0942 15.8584 11.0012 14.752 11ZM25.249 11C24.1424 11.0012 23.3316 11.0945 22.7363 11.1934C21.7551 11.3668 20.8635 12.258 20.6904 13.2393C20.5912 13.8345 20.4992 14.6455 20.498 15.752C20.4992 16.8581 20.5916 17.6685 20.6904 18.2637C20.8639 19.2449 21.7555 20.1361 22.7363 20.3096C23.332 20.4088 24.1424 20.5018 25.249 20.5029C26.3556 20.5017 27.1664 20.4084 27.7617 20.3096C28.7428 20.136 29.6336 19.2448 29.8066 18.2637C29.9058 17.6685 29.9988 16.8582 30 15.752C29.9988 14.6454 29.9055 13.8346 29.8066 13.2393C29.6332 12.2581 28.7428 11.3666 27.7617 11.1934C27.1664 11.0941 26.3556 11.0012 25.249 11ZM14.752 13.1865C15.1615 13.1867 15.4941 13.5191 15.4941 13.9287V15.0098H16.5742C16.984 15.0098 17.3164 15.3422 17.3164 15.752C17.3162 16.1615 16.9839 16.4941 16.5742 16.4941H15.4941V17.5742C15.4941 17.9839 15.1615 18.3162 14.752 18.3164C14.3422 18.3164 14.0098 17.984 14.0098 17.5742V16.4941H12.9287C12.5191 16.4941 12.1867 16.1615 12.1865 15.752C12.1865 15.3422 12.5189 15.0098 12.9287 15.0098H14.0098V13.9287C14.0098 13.5189 14.3422 13.1865 14.752 13.1865ZM27.0713 15.0098C27.4811 15.0098 27.8135 15.3422 27.8135 15.752C27.8133 16.1615 27.4809 16.4941 27.0713 16.4941H23.4258C23.0161 16.4941 22.6838 16.1615 22.6836 15.752C22.6836 15.3422 23.016 15.0098 23.4258 15.0098H27.0713Z" fill="#232C32"/>
</svg>
