<?xml version="1.0" encoding="UTF-8" standalone="no"?>
<svg
   width="12"
   height="14"
   viewBox="0 0 12 14"
   fill="none"
   version="1.1"
   id="svg4"
   sodipodi:docname="calendar.svg"
   inkscape:version="1.1.1 (3bf5ae0d25, 2021-09-20)"
   xmlns:inkscape="http://www.inkscape.org/namespaces/inkscape"
   xmlns:sodipodi="http://sodipodi.sourceforge.net/DTD/sodipodi-0.dtd"
   xmlns="http://www.w3.org/2000/svg"
   xmlns:svg="http://www.w3.org/2000/svg">
  <defs
     id="defs8" />
  <sodipodi:namedview
     id="namedview6"
     pagecolor="#ffffff"
     bordercolor="#666666"
     borderopacity="1.0"
     inkscape:pageshadow="2"
     inkscape:pageopacity="0.0"
     inkscape:pagecheckerboard="0"
     showgrid="false"
     inkscape:zoom="58.857143"
     inkscape:cx="6.006068"
     inkscape:cy="7.0084951"
     inkscape:window-width="1920"
     inkscape:window-height="1009"
     inkscape:window-x="1912"
     inkscape:window-y="-8"
     inkscape:window-maximized="1"
     inkscape:current-layer="svg4" />
  <path
     style="color:#000000;fill:#c2c5c6;stroke-linecap:round;stroke-linejoin:round;-inkscape-stroke:none"
     d="m 3.3339844,0.83398438 a 0.5,0.5 0 0 0 -0.5,0.50000002 v 0.8320312 h -0.033203 c -0.7467293,0 -1.1902076,-0.024336 -1.6328126,0.2011719 C 0.8229773,2.5429698 0.54285201,2.8232138 0.3671875,3.1679688 0.1417434,3.6104364 0.16796875,4.054042 0.16796875,4.8007812 v 0.5332032 5.8652346 c 0,0.746699 -0.0262774,1.190274 0.19921875,1.632812 0.17568516,0.344823 0.45583783,0.625065 0.8007812,0.800782 0.4425141,0.22543 0.8860387,0.201171 1.6328126,0.201171 h 6.4003906 c 0.7467839,0 1.1905221,0.02416 1.6328121,-0.201171 0.344789,-0.175624 0.624866,-0.455689 0.800782,-0.800782 0.225538,-0.442694 0.199218,-0.886202 0.199218,-1.632812 V 5.3339844 4.8007812 c 0,-0.7466499 0.02627,-1.1901894 -0.199218,-1.6328124 C 11.45887,2.8229443 11.178821,2.542877 10.833984,2.3671875 10.391603,2.1417779 9.9479111,2.1660156 9.2011719,2.1660156 H 9.1679688 V 1.3339844 a 0.5,0.5 0 0 0 -0.5,-0.50000002 0.5,0.5 0 0 0 -0.5,0.50000002 V 2.1660156 H 3.8339844 V 1.3339844 a 0.5,0.5 0 0 0 -0.5,-0.50000002 z M 2.8007813,3.1660156 h 0.5332031 5.3339844 0.5332031 c 0.7467392,0 1.0497161,0.026567 1.1777341,0.091797 0.156963,0.07997 0.28533,0.2065462 0.365235,0.3632813 0.06511,0.1278163 0.08984,0.4328589 0.08984,1.1796874 v 0.033203 H 1.1679687 v -0.033203 c 0,-0.7467392 0.026593,-1.0517156 0.091797,-1.1796874 C 1.3397649,3.4640892 1.4662788,3.33769 1.6230469,3.2578125 1.7508813,3.1926807 2.054052,3.1660156 2.8007813,3.1660156 Z M 1.1679687,5.8339844 h 9.6660153 v 5.3652346 c 0,0.746788 -0.02478,1.051982 -0.08984,1.179687 -0.07988,0.156707 -0.208224,0.283306 -0.365235,0.363282 -0.128109,0.06527 -0.4310395,0.0918 -1.1777341,0.0918 H 2.8007813 c -0.7466847,0 -1.049809,-0.02663 -1.1777344,-0.0918 -0.1568161,-0.07988 -0.2833027,-0.206305 -0.3632813,-0.363282 -0.065152,-0.12786 -0.091797,-0.432988 -0.091797,-1.179687 z"
     id="path2" />
</svg>
