<?xml version="1.0" encoding="UTF-8" standalone="no"?>
<svg
   width="25"
   height="25"
   viewBox="0 0 25 25"
   fill="none"
   version="1.1"
   id="svg4"
   sodipodi:docname="close.svg"
   inkscape:version="1.1.1 (3bf5ae0d25, 2021-09-20)"
   xmlns:inkscape="http://www.inkscape.org/namespaces/inkscape"
   xmlns:sodipodi="http://sodipodi.sourceforge.net/DTD/sodipodi-0.dtd"
   xmlns="http://www.w3.org/2000/svg"
   xmlns:svg="http://www.w3.org/2000/svg">
  <defs
     id="defs8" />
  <sodipodi:namedview
     id="namedview6"
     pagecolor="#ffffff"
     bordercolor="#666666"
     borderopacity="1.0"
     inkscape:pageshadow="2"
     inkscape:pageopacity="0.0"
     inkscape:pagecheckerboard="0"
     showgrid="false"
     inkscape:zoom="32.96"
     inkscape:cx="12.48483"
     inkscape:cy="12.51517"
     inkscape:window-width="1920"
     inkscape:window-height="1009"
     inkscape:window-x="-8"
     inkscape:window-y="-8"
     inkscape:window-maximized="1"
     inkscape:current-layer="svg4" />
  <path
     style="color:#000000;fill:#232c32;stroke-linecap:round;stroke-linejoin:round;-inkscape-stroke:none"
     d="m 3.5,2.5 a 1,1 0 0 0 -0.7070312,0.2929688 1,1 0 0 0 0,1.4140624 L 11.085938,12.5 2.7929688,20.792969 a 1,1 0 0 0 0,1.414062 1,1 0 0 0 1.4140624,0 L 12.5,13.914063 l 8.292969,8.292968 a 1,1 0 0 0 1.414062,0 1,1 0 0 0 0,-1.414062 L 13.914063,12.5 22.207031,4.2070312 a 1,1 0 0 0 0,-1.4140624 1,1 0 0 0 -1.414062,0 L 12.5,11.085938 4.2070312,2.7929688 A 1,1 0 0 0 3.5,2.5 Z"
     id="path2" />
</svg>
