<svg width="21" height="20" viewBox="0 0 21 20" fill="none" xmlns="http://www.w3.org/2000/svg">
<path d="M0 13.9023C0 17.1573 2.64692 19.8086 5.90197 19.8086C7.42887 19.8086 8.81577 19.2223 9.86579 18.2686C8.87702 17.0873 8.27763 15.5648 8.27763 13.9023C8.27763 13.4079 8.33451 12.9266 8.43514 12.4585C6.42261 11.8154 4.81695 10.2622 4.09944 8.28467C1.72378 9.05031 0 11.2772 0 13.9023Z" fill="white"/>
<path d="M11.8097 13.9022C11.8097 13.4822 11.7615 13.071 11.6784 12.6729C11.2934 12.7385 10.904 12.7822 10.5015 12.7822C10.099 12.7822 9.70524 12.7385 9.32461 12.6729C9.23711 13.071 9.19336 13.4822 9.19336 13.9022C9.19336 15.3023 9.68337 16.5885 10.5015 17.6036C11.3196 16.5885 11.8097 15.3023 11.8097 13.9022Z" fill="white"/>
<path d="M16.9011 8.28467C16.1836 10.2622 14.5779 11.8197 12.5654 12.4585C12.666 12.9266 12.7229 13.4079 12.7229 13.9023C12.7229 15.5648 12.1235 17.0873 11.1348 18.2686C12.1848 19.2223 13.5717 19.8086 15.0942 19.8086C18.3493 19.8086 21.0006 17.1573 21.0006 13.9023C21.0006 11.2772 19.2768 9.05031 16.9011 8.28467Z" fill="white"/>
<path d="M10.5001 0.0595703C7.24504 0.0595703 4.59375 2.70649 4.59375 5.96592C4.59375 6.3903 4.64188 6.80156 4.725 7.19531C5.11001 7.12969 5.49939 7.08594 5.9019 7.08594C7.6738 7.08594 9.28383 7.77282 10.4957 8.88409C11.7076 7.77282 13.322 7.08594 15.0895 7.08594C15.4921 7.08594 15.8858 7.12969 16.2664 7.19531C16.3496 6.79718 16.3977 6.38592 16.3977 5.96592C16.4064 2.70649 13.7551 0.0595703 10.5001 0.0595703Z" fill="white"/>
<path d="M4.99219 8.0746C5.63095 9.73275 6.9916 11.0321 8.6935 11.579C8.96475 10.8265 9.36288 10.1353 9.86602 9.53587C8.816 8.58211 7.4291 7.99585 5.90658 7.99585C5.59157 8.00022 5.28969 8.03085 4.99219 8.0746Z" fill="white"/>
<path d="M9.58984 11.7891C9.88735 11.8372 10.1892 11.8678 10.4999 11.8678C10.8105 11.8678 11.1124 11.8372 11.4099 11.7891C11.1867 11.2116 10.8805 10.6778 10.4999 10.2053C10.1192 10.6778 9.8086 11.2116 9.58984 11.7891Z" fill="white"/>
<path d="M16.0081 8.0746C15.7106 8.02648 15.4087 7.99585 15.0981 7.99585C13.5712 7.99585 12.1843 8.58211 11.1387 9.53587C11.6418 10.1396 12.0356 10.8309 12.3112 11.579C14.0043 11.0365 15.3694 9.73275 16.0081 8.0746Z" fill="white"/>
</svg>
