<svg width="19" height="22" viewBox="0 0 19 22" fill="none" xmlns="http://www.w3.org/2000/svg">
<path fill-rule="evenodd" clip-rule="evenodd" d="M18.3106 8.91372H11.4733C10.2058 8.91372 9.17861 7.88648 9.17861 6.61907V0.522182C9.04322 0.507649 8.90707 0.5 8.76939 0.5H2.29465C1.02724 0.5 0 1.52724 0 2.79465V19.6221C0 20.8895 1.02724 21.9167 2.29465 21.9167C5.49493 21.9167 12.8623 21.9167 16.0626 21.9167C16.6714 21.9167 17.255 21.675 17.6849 21.2444C18.1155 20.8146 18.3572 20.2309 18.3572 19.6221V9.5111C18.3572 9.30993 18.3411 9.1103 18.3106 8.91372ZM10.7084 1.02777V6.61907C10.7084 7.04129 11.051 7.38396 11.4733 7.38396H17.7109C17.5365 7.12313 17.3284 6.88296 17.0913 6.66879L11.3279 1.48211C11.1359 1.30925 10.9279 1.15704 10.7084 1.02777Z" fill="white"/>
</svg>
