<?xml version="1.0" encoding="UTF-8" standalone="no"?>
<svg
   width="24"
   height="25"
   viewBox="0 0 24 25"
   fill="none"
   version="1.1"
   id="svg1"
   sodipodi:docname="download.svg"
   inkscape:version="1.3.2 (091e20e, 2023-11-25, custom)"
   xmlns:inkscape="http://www.inkscape.org/namespaces/inkscape"
   xmlns:sodipodi="http://sodipodi.sourceforge.net/DTD/sodipodi-0.dtd"
   xmlns="http://www.w3.org/2000/svg"
   xmlns:svg="http://www.w3.org/2000/svg">
  <defs
     id="defs1" />
  <sodipodi:namedview
     id="namedview1"
     pagecolor="#ffffff"
     bordercolor="#cccccc"
     borderopacity="1"
     inkscape:showpageshadow="0"
     inkscape:pageopacity="1"
     inkscape:pagecheckerboard="0"
     inkscape:deskcolor="#d1d1d1"
     inkscape:zoom="47.24"
     inkscape:cx="12.00254"
     inkscape:cy="12.5"
     inkscape:window-width="3440"
     inkscape:window-height="1377"
     inkscape:window-x="-8"
     inkscape:window-y="-8"
     inkscape:window-maximized="1"
     inkscape:current-layer="svg1" />
  <path
     style="color:#000000;fill:#ffffff;stroke-linecap:round;stroke-linejoin:round;-inkscape-stroke:none"
     d="M 12,2.8496094 A 0.64999998,0.64999998 0 0 0 11.349609,3.5 V 15.931641 L 7.4589844,12.041016 a 0.64999998,0.64999998 0 0 0 -0.9179688,0 0.64999998,0.64999998 0 0 0 0,0.917968 l 5.0000004,5 A 0.64999998,0.64999998 0 0 0 12,18.150391 0.64999998,0.64999998 0 0 0 12.458984,17.958984 l 5,-5 a 0.64999998,0.64999998 0 0 0 0,-0.917968 0.64999998,0.64999998 0 0 0 -0.917968,0 l -3.890625,3.890625 V 3.5 A 0.64999998,0.64999998 0 0 0 12,2.8496094 Z M 6,20.849609 A 0.64999998,0.64999998 0 0 0 5.3496094,21.5 0.64999998,0.64999998 0 0 0 6,22.150391 H 18 A 0.64999998,0.64999998 0 0 0 18.650391,21.5 0.64999998,0.64999998 0 0 0 18,20.849609 Z"
     id="path1" />
</svg>
