<?xml version="1.0" encoding="UTF-8" standalone="no"?>
<svg
   width="24"
   height="24"
   viewBox="0 0 24 24"
   fill="none"
   version="1.1"
   id="svg1"
   sodipodi:docname="file.svg"
   inkscape:version="1.3.2 (091e20e, 2023-11-25, custom)"
   xmlns:inkscape="http://www.inkscape.org/namespaces/inkscape"
   xmlns:sodipodi="http://sodipodi.sourceforge.net/DTD/sodipodi-0.dtd"
   xmlns="http://www.w3.org/2000/svg"
   xmlns:svg="http://www.w3.org/2000/svg">
  <defs
     id="defs1" />
  <sodipodi:namedview
     id="namedview1"
     pagecolor="#ffffff"
     bordercolor="#cccccc"
     borderopacity="1"
     inkscape:showpageshadow="0"
     inkscape:pageopacity="1"
     inkscape:pagecheckerboard="0"
     inkscape:deskcolor="#d1d1d1"
     inkscape:zoom="49.208333"
     inkscape:cx="12"
     inkscape:cy="12"
     inkscape:window-width="3440"
     inkscape:window-height="1377"
     inkscape:window-x="-8"
     inkscape:window-y="-8"
     inkscape:window-maximized="1"
     inkscape:current-layer="svg1" />
  <path
     style="color:#000000;fill:#747a7d;stroke-linecap:round;stroke-linejoin:round;-inkscape-stroke:none"
     d="M 8.2011719,2 C 7.081063,2 6.3812748,1.9477884 5.6386719,2.3261719 5.0741028,2.6138196 4.6135796,3.074589 4.3261719,3.6386719 3.9479086,4.3810389 4,5.0791199 4,6.1992187 V 17.800781 c 0,1.120099 -0.052006,1.818209 0.3261719,2.560547 0.2874387,0.564114 0.7481411,1.02487 1.3125,1.3125 C 6.3812803,22.052232 7.081063,22 8.2011719,22 h 7.5996091 c 1.120099,0 1.818371,0.05203 2.560547,-0.326172 0.563898,-0.287418 1.024667,-0.747494 1.3125,-1.3125 C 20.052138,19.618764 20,18.920761 20,17.800781 V 9.3261719 C 20,9.2121163 19.980868,9.1456801 19.980469,9.046875 A 1,1 0 0 0 20,9 1,1 0 0 0 19.964844,8.8222656 c -0.0068,-0.2253479 0.0045,-0.4705313 -0.04883,-0.6933593 v -0.00195 C 19.842625,7.8221139 19.721183,7.5301306 19.556641,7.2617187 h 0.002 c -0.207128,-0.3382245 -0.44285,-0.5600368 -0.789063,-0.90625 l -3.125,-3.1249999 C 15.29858,2.884508 15.079018,2.6490413 14.740234,2.4414063 14.471822,2.2768781 14.179127,2.1555355 13.873047,2.0820313 13.646358,2.0276142 13.398839,2.039692 13.169922,2.0332031 A 1,1 0 0 0 13,2 1,1 0 0 0 12.953125,2.0195313 C 12.854416,2.0191842 12.787774,2 12.673828,2 Z m 0,2 H 12 v 1.8007812 c 0,1.1200989 -0.0521,1.8181801 0.326172,2.5605469 0.287432,0.5642487 0.748059,1.0248947 1.3125,1.3125 C 14.381259,10.052221 15.081055,10 16.201172,10 H 18 v 7.800781 c 0,1.120218 -0.05169,1.539109 -0.109375,1.652344 -0.09557,0.187593 -0.248798,0.341319 -0.4375,0.4375 C 17.339702,19.948423 16.92088,20 15.800781,20 H 8.2011719 C 7.081063,20 6.6579526,19.948221 6.5449219,19.890625 6.3566215,19.794656 6.2054159,19.64161 6.109375,19.453125 6.0515731,19.339664 6,18.92088 6,17.800781 V 6.1992187 C 6,5.0791199 6.0516587,4.6601471 6.109375,4.546875 6.2054469,4.3583187 6.3568317,4.2052069 6.5449219,4.109375 6.6579581,4.0517789 7.081063,4 8.2011719,4 Z M 14,4.4316406 c 0.07982,0.074908 0.08233,0.064748 0.230469,0.2128906 l 3.125,3.125 C 17.503763,7.917826 17.493597,7.920258 17.568359,8 H 16.201172 C 15.081091,8 14.657934,7.9482115 14.544922,7.890625 14.356763,7.7947507 14.205342,7.6415156 14.109375,7.453125 14.051647,7.3398327 14,6.9208801 14,5.8007812 Z M 12,11 a 1,1 0 0 0 -1,1 v 4.130859 l -1.4453125,-0.96289 a 1,1 0 0 0 -1.3867187,0.277344 1,1 0 0 0 0.2773437,1.386718 l 3.0000005,2 A 1,1 0 0 0 11.546875,18.8125 1,1 0 0 0 12,19 a 1,1 0 0 0 0.453125,-0.1875 1,1 0 0 0 0.101563,0.01953 l 3,-2 a 1,1 0 0 0 0.277343,-1.386718 1,1 0 0 0 -1.386718,-0.277344 L 13,16.130859 V 12 a 1,1 0 0 0 -1,-1 z"
     id="path1" />
</svg>
