<svg width="40" height="41" viewBox="0 0 40 41" fill="none" xmlns="http://www.w3.org/2000/svg">
<path d="M20 0.5C31.0457 0.5 40 9.4543 40 20.5C40 31.5457 31.0457 40.5 20 40.5C8.9543 40.5 0 31.5457 0 20.5C0 9.4543 8.9543 0.5 20 0.5ZM29.2588 13.9219C29.5487 12.5688 28.7669 12.0266 27.8721 12.3496L8.58887 19.7852C7.26738 20.3018 7.29008 21.033 8.36133 21.373L10.6562 22.0889C12.3326 22.6118 14.1546 22.3741 15.6406 21.4385L24.75 15.7031C25.2816 15.3499 25.7753 15.5503 25.3721 15.9053L18.6855 21.9453C17.3262 23.1734 17.4193 25.2685 18.8975 26.3506C19.0626 26.4714 19.1653 26.5464 19.1699 26.5498L24.1699 30.2354C25.0815 30.7519 25.7332 30.485 25.9766 29.3887L29.2598 13.9199L29.2588 13.9219Z" fill="white"/>
</svg>
