<svg width="40" height="41" viewBox="0 0 40 41" fill="none" xmlns="http://www.w3.org/2000/svg">
<path fill-rule="evenodd" clip-rule="evenodd" d="M0.598266 40.5C0.463925 40.5 0.333655 40.4471 0.23697 40.3494C0.109754 40.2201 0.0598848 40.0318 0.107718 39.8578L2.79352 30.0509C1.12851 27.0934 0.250201 23.7349 0.252236 20.3255C0.256307 9.39296 9.15232 0.5 20.0838 0.5C25.3862 0.502035 30.368 2.56702 34.1122 6.31431C37.8565 10.0626 39.9174 15.0434 39.9154 20.3397C39.9113 31.2712 31.0143 40.1652 20.0838 40.1652C16.8382 40.1641 13.6273 39.3632 10.7776 37.8478L0.727518 40.4827C0.684773 40.4949 0.642028 40.5 0.598266 40.5ZM15.5443 12.834C15.2053 12.0795 14.8481 12.0642 14.5243 12.0508C14.2597 12.0393 13.9579 12.0403 13.656 12.0403C13.3542 12.0403 12.8633 12.154 12.4478 12.6077C12.0323 13.0613 10.8613 14.1569 10.8613 16.3862C10.8613 18.6154 12.4851 20.7702 12.7114 21.072C12.9378 21.3739 15.8462 26.0951 20.4518 27.9117C24.279 29.4208 25.0584 29.1209 25.8894 29.0455C26.7203 28.97 28.5704 27.9499 28.9477 26.8917C29.325 25.8334 29.325 24.9269 29.2123 24.7378C29.0986 24.5487 28.7968 24.436 28.3441 24.2087C27.8913 23.9814 25.663 22.8858 25.2475 22.7349C24.832 22.584 24.5302 22.5086 24.2274 22.9622C23.9256 23.415 23.0574 24.436 22.7928 24.7378C22.5283 25.0406 22.2637 25.0788 21.811 24.8515C21.3582 24.6242 19.8988 24.1466 18.1671 22.6031C16.8204 21.4025 15.9111 19.9192 15.6465 19.4655C15.382 19.0128 15.6179 18.7673 15.8452 18.5409C16.0487 18.3375 16.2979 18.0118 16.5253 17.7472C16.7516 17.4826 16.8271 17.2935 16.978 16.9917C17.1289 16.6889 17.0535 16.4244 16.9398 16.198C16.828 15.9707 15.9474 13.7299 15.5443 12.834Z" fill="white"/>
</svg>
