<svg width="24" height="24" viewBox="0 0 24 24" fill="none" xmlns="http://www.w3.org/2000/svg">
<path fill-rule="evenodd" clip-rule="evenodd" d="M12 24C18.6274 24 24 18.6274 24 12C24 5.37258 18.6274 0 12 0C5.59629 0 0.364127 5.01601 0.0182056 11.3333H0V12V12.6667H0.0182056C0.364127 18.984 5.59629 24 12 24ZM0.0182056 12.6667L14.3905 12.6667L11.286 15.7712C11.0256 16.0316 11.0256 16.4537 11.286 16.714C11.5463 16.9744 11.9684 16.9744 12.2288 16.714L16.4714 12.4714C16.7318 12.2111 16.7318 11.7889 16.4714 11.5286L12.2288 7.28596C11.9684 7.02561 11.5463 7.02561 11.286 7.28596C11.0256 7.54631 11.0256 7.96842 11.286 8.22876L14.3905 11.3333L0.0182056 11.3333C0.00612132 11.554 0 11.7763 0 12C0 12.2237 0.00612132 12.446 0.0182056 12.6667Z" fill="white"/>
</svg>
