<?xml version="1.0" encoding="UTF-8" standalone="no"?>
<svg
   width="20"
   height="20"
   viewBox="0 0 20 20"
   fill="none"
   version="1.1"
   id="svg1"
   sodipodi:docname="phone.svg"
   inkscape:version="1.3.2 (091e20e, 2023-11-25, custom)"
   xmlns:inkscape="http://www.inkscape.org/namespaces/inkscape"
   xmlns:sodipodi="http://sodipodi.sourceforge.net/DTD/sodipodi-0.dtd"
   xmlns="http://www.w3.org/2000/svg"
   xmlns:svg="http://www.w3.org/2000/svg">
  <defs
     id="defs1" />
  <sodipodi:namedview
     id="namedview1"
     pagecolor="#ffffff"
     bordercolor="#cccccc"
     borderopacity="1"
     inkscape:showpageshadow="0"
     inkscape:pageopacity="1"
     inkscape:pagecheckerboard="0"
     inkscape:deskcolor="#d1d1d1"
     inkscape:zoom="59.05"
     inkscape:cx="10"
     inkscape:cy="10"
     inkscape:window-width="3440"
     inkscape:window-height="1377"
     inkscape:window-x="-8"
     inkscape:window-y="-8"
     inkscape:window-maximized="1"
     inkscape:current-layer="svg1" />
  <path
     style="color:#000000;fill:#a1a5a7;stroke-linecap:round;stroke-linejoin:round;-inkscape-stroke:none"
     d="m 4.078125,1.6660156 c -1.3224155,0 -2.4121094,1.0897131 -2.4121094,2.4121094 0,7.862594 6.393279,14.255859 14.2558594,14.255859 1.322417,0 2.412109,-1.089867 2.412109,-2.412109 v -2.292969 c 0,-1.019856 -0.625734,-1.943473 -1.572265,-2.322265 l -2.195313,-0.878907 h -0.002 c -0.850652,-0.339586 -1.823656,-0.184162 -2.527344,0.402344 l -0.568359,0.472656 c -0.336787,0.28064 -0.813021,0.259205 -1.123047,-0.05078 L 8.7480469,9.6542969 C 8.4381734,9.3444335 8.416548,8.8681173 8.6972656,8.53125 L 9.1699219,7.9628906 C 9.7568467,7.2585838 9.9127009,6.2846669 9.5722656,5.4335937 L 8.6933594,3.2382813 C 8.3146412,2.2914709 7.3908392,1.6660156 6.3710937,1.6660156 Z m 0,1.6679688 h 2.2929687 c 0.3432732,0 0.6459562,0.2047291 0.7734375,0.5234375 l 0.8789063,2.1953125 c 0.1142843,0.2857057 0.064082,0.6074777 -0.1328125,0.84375 L 7.4179687,7.4648437 C 6.5950075,8.4524151 6.6611272,9.9228758 7.5703125,10.832031 l 1.5976563,1.597657 c 0.9091322,0.909013 2.3795762,0.975303 3.3671872,0.152343 l 0.56836,-0.472656 c 0.236197,-0.196864 0.558246,-0.247054 0.84375,-0.132812 l 2.195312,0.878906 c 0.318867,0.127607 0.523438,0.430095 0.523438,0.773437 v 2.292969 c 0,0.421757 -0.32236,0.744141 -0.744141,0.744141 -6.9618448,0 -12.5878906,-5.62606 -12.5878906,-12.587891 0,-0.4216619 0.3224978,-0.7441406 0.7441406,-0.7441406 z"
     id="path1" />
</svg>
