<svg width="30" height="46" viewBox="0 0 30 46" fill="none" xmlns="http://www.w3.org/2000/svg">
<path d="M19.1275 23.8952C18.2215 23.8952 17.3154 23.9976 16.4597 24.2534C15.755 25.0209 15.3524 25.8908 15.3524 27.3235V27.477C16.5101 26.863 17.8188 26.5559 19.1275 26.5559C23.7081 26.5559 27.4329 30.3423 27.4329 34.9986C27.4329 39.6548 23.7081 43.4412 19.1275 43.4412C14.547 43.4412 10.8221 39.6548 10.8221 34.9986V32.389H11.7282C12.4329 32.389 12.9866 31.8262 12.9866 31.1099C12.9866 30.3423 12.9866 29.1655 12.9866 27.3235C12.9866 20.9275 19.2282 21.4904 19.2282 16.3224C19.2282 13.4571 19.2282 11.5639 19.2282 10.4893C19.2282 9.773 18.6745 9.21015 17.9698 9.21015H15.5034V1.33036C15.5034 0.562843 14.8993 0 14.1946 0C13.4396 0 12.8859 0.61401 12.8859 1.33036V9.15899H9.61409H6.34228V1.33036C6.34228 0.562843 5.73826 0 5.03356 0C4.27852 0 3.72483 0.61401 3.72483 1.33036V9.15899H1.25839C0.553691 9.15899 0 9.72183 0 10.4382C0 11.5127 0 13.4059 0 16.2713C0 21.4392 6.24161 20.9275 6.24161 27.2723C6.24161 29.0632 6.24161 30.2912 6.24161 31.0587C6.24161 31.775 6.7953 32.3379 7.5 32.3379H8.40604V34.9474C8.40604 41.0364 13.2886 45.9996 19.2785 45.9996C25.1175 46.0508 30 41.0875 30 34.9474C30 28.8585 25.1174 23.8952 19.1275 23.8952Z" fill="#10181D"/>
</svg>
