<svg width="47" height="32" viewBox="0 0 47 32" fill="none" xmlns="http://www.w3.org/2000/svg">
<g clip-path="url(#clip0_1849_16753)">
<path fill-rule="evenodd" clip-rule="evenodd" d="M4.83203 14.7457H44.3098C44.3438 14.6587 44.3855 14.5708 44.404 14.5228C44.4818 14.3204 44.675 14.2623 44.675 14.1932C44.675 14.0912 44.5992 14.0716 44.5992 13.9696C44.5992 13.9474 44.6515 13.8924 44.675 13.8579C44.6427 13.8213 44.5992 13.7923 44.5992 13.7088C44.5992 13.4917 44.7992 13.4145 44.978 13.3735C44.978 12.9734 45.5324 12.6567 45.7829 12.4513C46.1665 12.1367 45.9175 12.2924 46.145 11.9506C46.2437 11.8024 46.4536 11.6416 46.5692 11.5108V11.3618C46.5122 11.2973 46.4501 11.1755 46.3419 11.1755H46.1903C46.0712 11.1755 46.1086 11.2692 45.8873 11.2873C45.8359 11.0979 45.7256 11.0605 45.5756 10.9604C45.362 10.818 45.4422 10.6167 45.2811 10.6167C45.1251 10.6167 45.0951 10.7146 45.044 10.6612C44.9522 10.5654 45.1042 10.4391 44.9365 10.3962C44.8621 10.3772 44.4662 10.502 44.334 10.5049V10.3932C44.334 10.2689 44.4477 10.3174 44.4477 10.0206H44.2583C44.1733 10.0206 44.1751 9.99113 44.1165 9.94479L44.0688 9.64808H43.8415C43.8405 9.64808 43.3353 9.48168 43.2004 9.45893C42.9606 9.41845 42.6851 9.16376 42.6293 9.16376H42.3641C42.3605 9.16376 41.8359 9.2997 41.7347 9.32719C41.5197 9.38562 41.4822 9.55291 41.2237 9.64423C40.9737 9.73253 40.8519 9.73839 40.5957 9.84631C40.4092 9.92488 40.1827 10.0206 39.9395 10.0206H39.7879V9.87161C39.7879 9.78805 39.7579 9.78983 39.714 9.72293L39.75 9.49905H39.6364C39.5341 9.49905 39.4848 9.39985 39.4848 9.31274C39.4848 9.14011 39.5556 9.20068 39.5606 8.97745C39.7161 9.01312 39.8073 9.08921 40.0152 9.08921C40.1579 9.08921 40.0869 9.06474 40.2398 9.05265L40.1289 8.53039C40.3655 8.53039 40.5077 8.45845 40.5077 8.23238V8.08334C40.6159 8.05857 40.8847 7.9186 40.8696 7.82225L40.8866 6.92773L40.9251 6.92399L41.2654 6.96571H41.3412C41.4168 6.96571 41.7958 6.33383 41.7958 6.33235C41.7958 6.15587 41.5306 6.25419 41.5306 6.03433V5.77353C41.5306 5.54076 41.6276 5.52334 41.6442 5.32648H41.417C41.2101 5.32648 41.207 5.40097 41.0002 5.40097C40.9994 5.40097 40.8043 5.33377 40.778 5.3215C40.6601 5.26627 40.6971 5.28435 40.6971 5.10296C40.659 5.07789 40.5653 4.98841 40.5471 5.00133L39.9395 5.06568C39.8035 5.15522 39.4091 5.32085 39.4091 5.51273V5.6245C39.4091 5.72974 39.496 5.76826 39.5606 5.81081C39.9255 5.81081 40.1289 5.9407 40.1289 6.29513C40.1289 6.5589 40.0152 6.53033 40.0152 6.85395C39.9468 6.89899 39.9486 6.92844 39.8637 6.92844C39.7039 6.92844 39.7908 6.83433 39.704 6.75019C39.6585 6.70616 39.5432 6.69377 39.4469 6.63042C39.4469 6.47303 39.3552 6.10882 39.2196 6.10882H39.106C38.868 6.10882 38.86 6.27392 38.7315 6.3698L38.7272 5.95979H38.4998C38.4769 6.04423 38.4634 6.10882 38.3483 6.10882H38.0073C37.9494 6.10882 37.7043 5.98473 37.7043 5.8853V5.84802C37.7043 5.71102 37.8179 5.76156 37.8179 5.6245V5.58728C37.8179 5.43925 37.6664 5.47445 37.6664 5.32648C37.6664 5.18402 37.6548 5.31291 37.7101 5.20838L37.8558 5.32648C37.8952 5.2533 37.9316 5.21662 37.9316 5.10296C37.9316 4.94811 37.7587 4.9167 37.5906 4.9167C37.6053 4.74384 37.7535 4.68358 37.7526 4.61691L37.6664 4.05982C37.6294 3.84684 38.0073 3.78195 38.0149 3.39664L38.0831 3.31469H38.2725C38.3388 3.27113 38.5168 3.16518 38.5083 3.0527L38.462 2.71866C38.575 2.70941 38.6514 2.69187 38.6514 2.56962L38.6512 2.42147L38.3483 2.38331V2.23433C38.3483 2.14847 38.3219 2.12257 38.2346 2.12257H38.121C37.9767 2.12257 37.7246 2.2373 37.703 2.24257L37.3587 2.19167L37.2497 2.27155C37.0413 2.27155 36.8708 2.36044 36.8708 2.53235C36.8708 2.6159 36.9008 2.61413 36.9466 2.68139C37.6456 2.68139 37.3633 2.74616 37.3633 3.09116C37.3102 3.16921 37.2118 3.33851 37.2118 3.46373V3.501C37.2118 3.63635 37.2567 3.63167 37.2724 3.7333L37.002 3.87244L37.0143 3.92749L36.833 3.83629C36.833 3.72423 36.8658 3.501 36.7571 3.501C36.5483 3.501 36.2647 3.91214 36.2647 3.98533C36.2647 4.06882 36.2947 4.0671 36.3404 4.1343C36.17 4.22302 36.0429 4.22296 36.0352 4.46147L35.8858 4.50687V4.80494C35.8114 4.84364 35.7741 4.87943 35.6586 4.87943H35.6206C35.4701 4.87943 35.506 4.73039 35.3555 4.73039H35.2418C35.1507 4.73039 35.1304 4.79078 35.0524 4.84216C35.0524 5.11807 34.9766 5.00802 34.9766 5.14023V5.17745C34.9766 5.2805 35.0059 5.26705 35.0903 5.28921V5.47552C35.1682 5.49336 35.2078 5.52494 35.2833 5.5333L36.0374 5.40097L36.0374 5.51226L36.5678 5.55001C36.712 5.645 37.0223 5.82533 37.0223 6.03433C37.0223 6.14468 36.8708 6.20174 36.8708 6.29513C36.8708 6.43712 36.9816 6.44044 37.0602 6.55587C36.9832 6.66906 36.7927 6.7794 36.6056 6.7794C36.3913 6.7794 36.3576 6.29513 36.151 6.29513H36.0374C36.013 6.39499 35.9995 6.36536 35.9995 6.44411C35.9995 6.70491 36.3026 6.86515 36.3026 7.22651V7.67356C36.3026 7.83629 36.2268 7.80885 36.2268 7.97158V8.00885C36.2268 8.30041 36.4477 8.24986 36.4529 8.53869L36.1131 8.49318C35.9977 8.2786 35.9128 8.15783 35.5827 8.15783C35.2636 7.9477 35.635 8.00672 35.221 7.80577C35.0015 7.69922 35.2742 7.59902 34.7114 7.59902C34.6672 7.51688 34.6784 7.45004 34.5599 7.45004H34.4084C34.384 7.54989 34.3705 7.52026 34.3705 7.59902C34.3705 7.92417 34.5977 7.8306 34.5977 8.00885V8.04607C34.5977 8.15872 34.5532 8.14912 34.4541 8.15469L34.3706 7.9346L33.9338 8.15505L33.9159 8.12062V7.93431C33.9159 7.62124 33.6633 7.59902 33.3476 7.59902C33.3199 7.55836 33.2434 7.41276 33.1961 7.41276C33.0796 7.41276 33.0445 7.52192 33.0445 7.63629V7.74805H32.893V7.85982C32.893 8.03813 33.0168 7.94029 33.0824 7.89709C33.0764 8.15896 32.8551 8.39919 32.8551 8.56767V8.60494C32.8551 8.7333 32.9894 8.81774 33.1202 8.82847V8.94023C33.1202 9.01644 32.503 9.61081 32.4005 9.61081H32.3626C32.2776 9.61081 32.2794 9.5813 32.2268 9.53496L32.1353 8.90296H31.908C31.7831 8.82076 31.7987 8.84162 31.6464 8.78764C31.4734 8.72631 31.478 8.60494 31.4155 8.60494C31.241 8.60494 31.2087 9.01282 30.923 9.20097C30.3094 9.20097 30.487 9.50894 30.2411 9.57353V9.38728C30.2411 9.22894 30.1799 9.16014 30.0516 9.12648C30.0615 9.00998 30.0895 8.99416 30.0895 8.86568C30.0895 8.77851 30.0267 8.71671 29.938 8.71671H29.9001C29.6705 8.71671 29.8886 9.08921 29.7107 9.08921C29.5758 9.08921 29.5622 9.00091 29.5592 8.86568C29.3789 8.86568 29.2663 8.88393 29.2182 9.01472C28.9961 8.99653 29.0033 8.82847 28.9151 8.82847C28.7248 8.82847 28.8247 9.12648 28.309 9.12648C28.2785 9.14734 28.2154 9.20097 28.1953 9.20097C27.9994 9.20097 27.8165 8.72767 27.8165 8.49318V8.30687C27.8165 8.08791 28.2291 7.84506 28.3914 7.71736C28.495 7.63588 29.0581 7.37549 29.2182 7.37549C29.2901 7.26989 29.4076 7.17828 29.4076 7.00293V6.7794C29.4076 6.67878 29.3895 6.6767 29.3697 6.59315C29.2262 6.60488 28.9416 6.78331 28.9139 6.7877L28.5861 6.75161L28.3848 6.96571C27.8129 6.96571 27.9657 7.05033 27.6114 7.28559C27.1388 7.59949 27.3715 7.45004 26.7557 7.45004C26.59 7.2066 26.6286 6.85395 26.3011 6.85395H26.2253C26.11 6.85395 26.0868 6.87084 25.998 6.89116C25.9675 6.87036 25.9045 6.81668 25.8844 6.81668C25.4727 6.81668 25.5505 7.01869 25.5024 6.55896C25.4804 6.34876 25.4793 6.12222 25.3919 5.95979C24.9739 6.05555 25.1662 6.06651 24.6706 6.03582C24.4536 6.02242 24.4877 6.02325 24.4826 5.81087C24.4765 5.55232 24.4331 5.64962 24.3311 5.51273C24.4779 5.24002 24.7857 5.27131 24.7857 5.06568V4.99119C24.7857 4.87469 24.7177 4.88565 24.6428 4.84109L24.5936 4.43931L24.4827 4.3951C24.5285 4.32784 24.5584 4.32962 24.5584 4.24607V4.20885C24.5584 3.99303 24.0803 3.7618 23.8765 3.7618H23.6871C23.6871 4.15996 23.9901 4.2303 23.9901 4.32062C23.9901 4.55155 23.757 4.73039 23.5734 4.73039C23.5006 4.73039 23.3802 4.6559 23.12 4.65507L23.0052 4.46959C22.8154 4.46959 22.7038 4.46639 22.6642 4.32062C22.8003 4.28488 22.8915 4.05798 22.8915 3.94805C22.8915 3.79066 22.7446 3.83629 22.5876 3.83718L22.2096 3.53822C22.2194 3.42171 22.2475 3.40589 22.2475 3.27747C22.2475 3.14616 22.096 3.12743 22.096 3.05395C22.096 2.88459 22.399 2.82657 22.399 2.68139C22.399 2.44601 21.8307 2.35149 21.8307 2.0853C21.8307 1.98568 22.1338 1.75007 22.1338 1.56376C22.1338 1.50278 22.1112 1.45199 22.0581 1.45199C21.9406 1.45199 21.8832 1.56293 21.7171 1.60097C21.7171 1.3215 21.2171 0.744141 20.9594 0.744141H20.77C20.7753 0.977504 20.8836 0.994096 20.8836 1.04216C20.8836 1.12939 20.8208 1.19119 20.7321 1.19119H20.6942C20.4316 1.19119 20.3435 1.04216 20.126 1.04216C20.0618 1.04216 19.9844 1.09176 19.9463 1.11777L19.8987 1.45199H19.5577C19.2782 1.45199 19.5238 1.66616 19.7077 1.71433C19.8347 1.74758 20.2018 1.76097 20.2018 1.89904C20.2018 1.97839 19.7759 2.42888 19.6845 2.47072C19.3579 2.62017 19.2925 2.6991 19.2975 3.17496L18.6864 3.46373C18.6956 3.05347 18.9895 3.293 18.9895 2.90491C18.9895 2.81768 18.9265 2.75587 18.8379 2.75587H18.7243C18.4882 2.75587 18.4018 2.84091 18.3075 2.9794V3.2402C18.2341 3.34793 18.1492 3.46373 17.9665 3.46373H17.9287C17.7632 3.46373 17.7867 3.16281 17.4741 3.09116V2.9794C17.6014 2.95024 17.7393 2.84784 17.7393 2.71866V2.42059C17.7393 2.30017 17.6018 2.23433 17.4741 2.23433H17.2089C17.0933 2.23433 17.056 2.27013 16.9816 2.30882C16.928 2.28275 16.9187 2.27155 16.83 2.27155H16.7542C16.4523 2.27155 16.6243 2.49507 16.1915 2.49958L16.1099 2.6082L15.9208 2.56962V2.75587H16.0723C16.1073 2.90349 16.2239 2.99404 16.2239 3.12844C16.2239 3.25229 15.9671 3.46373 15.8829 3.46373H15.7693C15.6781 3.46373 15.5419 3.32992 15.5419 3.2402V3.20293C15.5419 2.99451 15.7693 3.18787 15.7693 2.9794V2.90491C15.7693 2.7634 15.5002 2.75587 15.3526 2.75587C15.2503 2.75587 15.201 2.85507 15.201 2.94219C15.201 3.10793 15.3083 2.95848 15.3147 3.2402L15.2092 3.24127L15.0495 4.24607H14.9737V4.1343C14.8523 4.13697 14.7843 4.12222 14.7843 4.24607V4.43238C14.1741 4.41899 14.3196 3.61276 13.9508 3.61276H13.9129C13.7965 3.61276 13.7614 3.72192 13.7614 3.83629V3.87356C13.7614 3.98675 13.8271 4.00002 13.9129 4.02254C13.8757 4.15955 13.7868 4.16773 13.6184 4.16998L13.572 3.98533C13.3447 4.045 13.2965 4.22811 13.1419 4.27019C12.6915 4.39279 12.9428 4.16346 12.8073 4.6863C12.7141 5.04607 12.0566 5.09537 12.0566 5.40097V5.58728C12.0566 5.70094 12.093 5.73762 12.1332 5.81626L12.9219 5.70296L13.0416 5.8853C13.0409 5.88589 12.9709 5.92257 12.9658 5.92257C12.8748 5.92257 12.8545 5.86219 12.7764 5.81081C12.5565 5.86118 12.4415 5.91896 12.4354 6.18337C12.1781 6.31724 12.0871 6.51937 11.868 6.66847C11.4097 6.98023 11.6261 6.86343 11.4126 7.301C11.4379 7.34805 11.4883 7.42414 11.4883 7.48725C11.4883 7.57436 11.4391 7.67356 11.3368 7.67356C11.2308 7.67356 11.2367 7.59428 11.1034 7.56779C10.9768 7.5426 10.8958 7.55368 10.7686 7.52453V7.18924C10.5319 7.19439 10.5791 7.22497 10.5791 7.45004C10.4856 7.58734 10.276 7.65513 10.276 7.78533V7.82254C10.276 7.99907 10.5412 7.90669 10.5412 8.08334C10.5412 8.17122 10.4669 8.24909 10.4276 8.30687C10.4276 9.05425 10.1859 8.86568 9.40013 8.86029L9.29107 8.94023C9.22195 8.88115 9.15639 8.82847 9.02588 8.82847H8.79853C8.70592 8.82847 8.24236 9.06325 8.18482 9.11913C8.07865 9.22219 8.15451 9.66788 8.15849 9.90284L8.34396 10.0206L8.34094 10.3234L8.64705 10.4676V10.5422C8.56202 10.5227 8.55992 10.5049 8.4576 10.5049H8.30605C8.18904 10.5049 8.18054 10.6167 8.04087 10.6167C7.94403 10.6167 7.98429 10.4304 7.81358 10.4304H7.77568C7.66776 10.4304 7.35894 10.8427 7.35894 10.8775V11.5481H7.16956C6.98752 11.5481 6.9727 11.4363 6.79067 11.4363C6.64298 11.4363 6.56699 11.6128 6.56338 11.7716H6.48764V11.5853C6.48764 11.4981 6.42473 11.4363 6.33609 11.4363C6.29373 11.4363 5.76781 12.0258 5.76781 12.2186V12.5167C5.76781 12.6002 5.79782 12.5985 5.8438 12.6678L6.33609 12.6285L6.33953 12.8015L6.71492 12.8893V12.9638C6.4783 12.9689 6.52548 12.9995 6.53391 13.2328L6.37327 13.3623L5.58114 13.4051L5.38898 13.3363V13.5598C5.38898 13.6743 5.18531 13.8048 5.12379 13.8951C5.12379 14.1646 5.12464 14.1612 4.99894 14.3312C4.91386 14.4463 4.88018 14.6173 4.83203 14.7457Z" fill="#10181D"/>
<path fill-rule="evenodd" clip-rule="evenodd" d="M40.7245 17.2543H5.90984C5.95045 17.3038 5.99474 17.3568 5.99474 17.4716V17.5833C5.99474 17.773 5.80535 17.6171 5.80535 17.8069V17.8814C5.80535 18.0719 5.93834 18.1094 5.9569 18.3284H5.80535V18.2166C5.80535 18.1023 5.77028 17.9931 5.65381 17.9931H5.46436C5.23298 17.9931 4.88638 18.2734 4.6688 18.2912V18.403C4.6688 18.5176 4.80196 18.7816 4.82034 18.999L4.93862 18.9998L4.97219 18.7387L5.12343 18.6637C5.18827 18.7966 5.11632 19.0735 5.23707 19.0735C5.36024 19.0735 5.2657 19.0412 5.42646 18.999C5.43026 19.1643 5.41441 19.1719 5.578 19.1853L5.6097 19.2073L5.23936 19.6659L5.00979 19.5579C5.00708 19.6772 5.02208 19.7441 4.89608 19.7441H4.78244C4.40144 19.7441 4.52629 19.5206 4.32787 19.5206H4.17632C3.43667 19.5206 3.83533 20.4763 3.82792 21.0342L4.21422 21.1225C4.17469 21.1806 4.16397 21.2343 4.06268 21.2343H4.02478C3.49458 21.2343 3.87317 20.3029 3.4944 20.3029L3.40642 20.3037L3.38076 21.0108C3.37853 21.0853 3.43975 20.9987 3.4565 21.1971C3.3487 21.141 3.00445 20.7871 2.96402 20.6382C2.68588 20.661 2.85243 20.899 2.62303 20.899H2.50939C2.36622 20.899 2.25673 20.8081 2.16846 20.75C1.66164 20.75 1.70141 20.3402 1.48653 20.3402H1.41073C1.17007 20.3402 1.44773 20.6606 1.48653 20.8245H1.29709C1.0263 20.8245 0.918257 20.9307 0.918257 21.1971V21.6441C1.03967 21.6467 1.1077 21.632 1.1077 21.7559V21.7931C1.1077 21.8767 1.0777 21.8749 1.0319 21.9422C0.807024 21.9422 0.425781 22.0965 0.425781 22.2774V22.3519C0.425781 22.4724 0.563286 22.5382 0.69097 22.5382H0.728871C0.880597 22.5382 1.03738 22.4341 1.0698 22.3147H1.14554C1.13078 22.4894 1.0698 22.499 1.0698 22.6873C1.0698 22.7436 1.25907 23.0264 1.29709 23.0971L1.31565 23.1427L0.850047 23.2908L0.766712 23.3579C0.766712 23.656 0.833536 23.9134 0.843961 24.1761C0.854747 24.4499 0.786657 24.8853 1.0698 24.8853C1.20447 24.8853 1.08806 24.6319 1.21484 24.5064C1.35066 24.3718 1.41073 24.4574 1.41073 24.1402C1.49557 24.1961 1.54384 24.2892 1.63808 24.2892H1.78962C1.8253 24.44 1.90297 24.5873 2.09265 24.5873H2.13056C2.57362 24.5873 2.62303 24.1131 2.62303 23.6559C2.73517 23.5976 3.08435 23.3759 3.13015 23.2604C3.19288 23.1022 3.1196 23.0453 3.23734 22.9188C3.33665 22.8122 3.4186 22.8519 3.4186 22.65V22.3519H3.98687C4.13173 22.3519 4.00067 22.3406 4.10052 22.3892C3.92228 22.651 3.57014 22.6296 3.57014 22.948C3.57014 23.1133 3.71265 23.5068 3.94897 23.5068H4.06268C4.19319 23.5068 4.25875 23.4542 4.32787 23.3951C4.37571 23.42 4.45308 23.4696 4.51725 23.4696C4.56341 23.4696 4.63089 23.3925 4.63089 23.3206V23.2461C4.63089 23.0801 4.47941 23.1885 4.47941 23.0226V22.948C4.47941 22.774 4.66819 22.8607 4.7446 22.5382C4.90536 22.5804 4.81082 22.6127 4.93398 22.6127C5.04956 22.6127 5.08685 22.5769 5.16127 22.5382C5.16434 22.6734 5.1779 22.7618 5.31282 22.7618H5.38862C5.47696 22.7618 5.578 22.6623 5.578 22.5755L5.57764 21.9031L5.80535 21.8677V22.203C5.80535 22.3628 6.23149 22.3232 6.41256 22.3509C6.50867 22.3656 6.94113 22.5237 6.97975 22.5755C6.84267 22.6115 6.75246 22.7055 6.75246 22.8735V22.9853C6.75246 23.106 6.91708 23.2088 7.05549 23.2088C7.27067 23.2088 7.11027 22.9108 7.43438 22.9108L7.55345 22.9131L7.43438 23.2461C7.85064 23.3414 7.97398 23.3955 8.15391 23.7369L11.1091 23.8422V21.9049H11.791C11.9443 21.9049 11.9409 21.7186 12.0941 21.7186C12.3299 21.7186 12.3806 21.8304 12.473 21.8304H12.6245C13.0224 21.8304 12.8302 21.3088 13.117 21.3088C13.2825 21.3088 13.2546 21.3833 13.4201 21.3833H13.4958C13.562 21.3833 13.761 21.2502 13.761 21.1971C13.761 21.0169 13.6675 21.1874 13.6095 20.9735H13.9125C13.9686 21.2104 14.1721 21.5102 14.4279 21.5307L14.4051 21.7931C14.5427 21.8837 14.8965 22.0283 14.9758 22.1633C15.1312 22.4284 14.9178 22.5358 15.3522 22.7618C15.2721 22.8692 15.1628 22.8541 15.1628 22.9853V23.0226C15.1628 23.1061 15.1928 23.1043 15.2385 23.1715C15.3782 23.1715 15.5037 23.1386 15.5037 23.2833V23.3951C15.5037 23.5018 15.3522 23.5707 15.3522 23.7676V23.9167C15.3522 24.0002 15.3821 23.9984 15.4295 24.0562L15.6931 24.1029C15.688 24.3291 15.5416 24.507 15.5416 24.5128C15.5416 24.5999 15.6044 24.6617 15.6931 24.6617H15.9962C16.236 24.6617 16.2771 24.55 16.4508 24.55H16.7918C16.8272 24.55 17.1414 24.7182 17.1787 24.7656C17.2492 24.8551 17.3809 25.0716 17.5116 25.0716H18.042C18.0636 25.1631 18.0902 25.3696 18.1935 25.3696C18.3627 25.3696 18.4749 25.2578 18.5724 25.2578C18.6461 25.2578 18.9475 25.4814 19.1406 25.4814H19.7468V25.5559L19.8628 25.5555L19.9362 26.1147C19.9769 26.1253 20.0394 26.153 20.0506 26.1595L20.6026 26.1205L20.6963 25.6725L21.2705 25.4073L21.2242 26.301C21.2162 26.4321 21.5652 26.3787 21.5655 26.9711L21.7221 27.0467L21.6789 27.4559C21.8396 27.4981 21.7452 27.5304 21.8683 27.5304H21.9441C22.0698 27.5304 22.1262 27.3908 22.1714 27.3069C22.4582 27.3006 22.9064 26.6735 23.3458 26.6735V26.7853C23.3458 27.0388 24.0476 26.948 24.2171 26.8598C24.56 27.0383 24.4272 27.3441 24.6339 27.3441C24.7494 27.3441 24.7867 27.3083 24.8611 27.2696V26.7108C25.0257 26.4691 25.1152 26.6593 25.1889 26.3252C25.2158 26.203 25.1839 26.0901 25.216 25.9794C25.2505 25.8605 25.3157 25.8569 25.3157 25.7049V25.6677C25.3157 25.4296 25.24 25.3842 25.24 25.1461V24.9971C25.24 24.9112 25.2664 24.8853 25.3536 24.8853L25.4626 24.8867L25.5052 25.0343H25.6188C25.7802 25.0343 25.8375 24.686 26.0068 24.5217C26.2404 24.295 26.3007 24.342 26.3007 23.9167C26.3751 23.8779 26.4124 23.8422 26.528 23.8422H26.7175C26.74 23.9251 26.7263 23.9539 26.8311 23.9539H26.9826C27.3905 23.9539 27.5686 23.5644 27.8161 23.5441C27.8681 23.7635 27.811 24.252 28.0434 24.252H28.498C28.5867 24.252 28.6496 24.1902 28.6496 24.1029V23.9167L28.688 23.8871L29.4451 24.8108H30.3165C30.6774 25.3409 30.4285 25.3324 31.3318 25.3398L31.4078 25.4077L31.453 25.8539C31.4762 26.0504 31.2257 26.0451 31.2257 26.1892C31.2257 26.3631 31.3141 26.45 31.4909 26.45C31.5758 26.45 31.5741 26.4205 31.6424 26.3755C31.696 26.4016 31.7053 26.4127 31.7939 26.4127H31.8318C31.9469 26.4127 31.9605 26.3481 31.999 26.2379L32.2336 26.3747L32.2107 26.4127C32.1263 26.4349 32.097 26.4214 32.097 26.5245C32.097 26.6275 32.1263 26.6141 32.2107 26.6363C32.1702 26.7855 32.0591 26.8306 32.0591 27.0088V27.1206C32.0591 27.2073 32.3271 27.4187 32.4001 27.4187C32.5232 27.4187 32.4287 27.3864 32.5895 27.3441V27.1579C32.5895 26.8873 32.4595 26.5413 32.6653 26.4873C32.6524 26.6403 32.6274 26.5705 32.6274 26.7108C32.6274 26.7204 32.829 26.9343 32.8547 26.9343C33.1684 26.9343 33.3093 26.6851 33.3093 26.3382C33.3837 26.2995 33.421 26.2638 33.5366 26.2638C33.6606 26.2638 33.6364 26.3755 33.8397 26.3755C34.0026 26.3755 34.0451 26.3321 34.1807 26.301C34.1595 26.331 34.1049 26.3929 34.1049 26.4127C34.1049 26.5422 34.1807 26.4696 34.1807 26.599V26.7853H34.3322C34.5313 26.7853 34.5595 26.3689 34.5595 26.152C34.6951 26.1209 34.7375 26.0774 34.9005 26.0774H35.0899C35.0591 26.2076 35.0141 26.2029 35.0141 26.3382V26.3755C35.0141 26.6359 35.2796 27.021 35.434 27.1324L35.9102 27.0169L35.9991 27.1579C36.3256 27.1579 36.6793 27.1241 36.8616 27.2783C37.0431 27.4317 37.1907 27.6049 37.5145 27.6049H37.8175C37.8008 27.803 37.6281 27.7492 37.6281 27.9029C37.6281 28.0303 37.8472 28.1637 37.9312 28.1637H37.9691C38.2274 28.1637 37.9805 27.8657 38.348 27.8657H38.5374C38.5492 27.822 38.5753 27.7641 38.5753 27.7539C38.5753 27.4057 38.5246 27.1579 38.992 27.1579C39.0882 27.1579 39.158 27.469 39.1814 27.5676C39.3347 27.6028 39.5603 27.6537 39.5603 27.8284C39.5603 27.9281 39.5056 27.9386 39.4466 27.9775V28.1637C39.3247 28.244 39.2349 28.2755 39.0298 28.2755L38.7489 28.2873L38.9162 28.5363H38.4237C38.4008 28.4519 38.3873 28.3872 38.2722 28.3872H38.2343C38.1112 28.3872 38.2057 28.4195 38.0449 28.4618V28.5736C38.0449 28.7432 38.2343 28.6345 38.2269 29.0813L38.6056 29.1771L38.6676 29.2498L38.8025 29.6912H39.1435C39.0368 29.8479 38.9162 29.8198 38.9162 30.0265V30.101C38.9162 30.2016 38.9343 30.2037 38.9541 30.2873C38.9985 30.2988 39.0574 30.3245 39.0677 30.3245C39.1905 30.3245 39.2945 30.1722 39.4871 30.1409C39.7901 30.0916 39.857 29.952 39.9391 29.952H40.1285C40.4587 29.952 40.5452 30.3449 40.5452 30.6971C40.6457 30.7632 40.8498 30.8479 40.9106 30.9339C40.983 31.0364 41.0468 31.2559 41.1892 31.2559H41.2271C41.4336 31.2559 41.5364 30.9089 41.5899 30.7185C41.6867 30.3745 41.9848 30.4274 41.9848 30.1755C41.9848 30.0074 41.8308 30.0556 41.8323 29.6921C41.8332 29.4762 41.8688 29.2534 41.7662 29.1238C41.5987 28.9123 41.4544 28.5094 41.4544 28.1637C41.4544 28.1063 41.606 28.0348 41.606 27.9775C41.606 27.6061 41.1892 26.9437 41.1892 26.6735C41.1892 26.4382 41.6262 25.8014 41.5435 25.2185L41.4544 24.6245C41.4435 24.5583 41.4935 24.5294 41.5302 24.4755C41.9535 24.4755 41.7726 24.306 42.0899 23.9827C42.2797 23.7893 42.4015 23.5766 42.4015 23.2088C42.5086 23.1384 42.6289 23.0091 42.6289 22.8363L42.6374 22.6489L42.591 22.2402C42.7044 22.1655 42.8183 22.1321 42.8183 21.9422V21.9049C42.8183 21.7755 42.7425 21.8481 42.7425 21.7186V21.4206C42.7425 21.1455 42.9319 20.9672 42.9319 20.75C42.9319 20.6494 42.9138 20.6473 42.8941 20.5637C42.6098 20.5699 42.5992 20.7872 42.25 20.7872H42.1742C41.9977 20.7872 42.0836 20.5822 41.8712 20.5265C41.8712 20.1672 41.6272 19.7338 41.4166 19.5951C41.4166 19.3472 41.3142 19.2226 41.0756 19.2226H40.9999C40.7818 19.2226 40.6872 19.3343 40.5831 19.3343C40.4614 19.3343 40.5327 18.9785 40.3924 18.9907L40.0527 19.0363C40.058 18.8041 40.1664 18.8567 40.1664 18.5892L40.1686 18.4459L39.2951 18.403C39.1909 18.3343 39.1056 18.3173 39.1056 18.1422L39.1088 17.7915L40.0527 17.6578C40.2107 17.6359 40.7891 17.7861 40.7417 17.3961L40.7245 17.2543Z" fill="#10181D"/>
<path fill-rule="evenodd" clip-rule="evenodd" d="M5.90926 17.2543H40.7238L40.6961 17.0245C40.7645 16.9795 40.7627 16.95 40.8476 16.95L40.9967 16.9764L42.1681 17.0573L42.2493 16.95C42.21 16.8768 42.1736 16.8401 42.1736 16.7265C42.1736 16.5698 42.4804 16.4657 42.666 16.4657C42.6944 16.4242 42.7797 16.3404 42.7797 16.3167C42.7797 16.1142 42.7087 16.1162 42.7217 15.9381L43.181 15.6856L43.1586 15.6461C43.2269 15.6911 43.2252 15.7206 43.3101 15.7206C43.4242 15.7206 43.5614 15.5241 43.8389 15.4955C44.0005 15.4789 44.3709 15.438 44.3709 15.2735V15.199C44.3709 15.062 44.2572 15.1125 44.2572 14.9755V14.9383C44.2572 14.8904 44.2803 14.8184 44.3088 14.7457H4.83103L4.82621 14.7585C4.70974 15.0554 4.28559 14.944 4.25137 15.348C4.07542 15.3077 3.92484 15.0127 3.83464 15.0127C3.70786 15.0127 3.38006 15.2494 3.38006 15.348C3.38006 15.6142 3.53161 15.4746 3.53161 15.6461V16.1304C3.53161 16.3901 3.22852 16.5053 3.22852 16.652C3.22852 16.7378 3.25485 16.7637 3.34216 16.7637H3.68309C3.94382 16.7637 4.32717 16.5602 4.32717 16.3539V16.1677C4.32717 16.0392 4.29915 16.0234 4.28927 15.9069L4.32735 15.8942L4.51656 16.5402H4.6302C4.7844 16.5402 4.83399 16.4814 4.9019 16.3901L4.78175 15.7579H5.04693C5.12701 15.7579 5.22758 15.9352 5.38792 16.0186C5.39226 16.2113 5.43456 16.2274 5.61521 16.2421C5.59665 16.4616 5.53947 16.3198 5.53947 16.4657V16.5402C5.53947 16.7063 5.70337 16.6895 5.80008 16.7313C5.96494 16.8024 5.8425 16.9138 5.8425 17.099C5.8425 17.1723 5.87456 17.212 5.90926 17.2543Z" fill="#10181D"/>
</g>
<defs>
<clipPath id="clip0_1849_16753">
<rect width="47" height="32" fill="white"/>
</clipPath>
</defs>
</svg>
