<svg width="39" height="32" viewBox="0 0 39 32" fill="none" xmlns="http://www.w3.org/2000/svg">
<path fill-rule="evenodd" clip-rule="evenodd" d="M38.093 10.12V4.03217C22.6283 -4.6642 0.861328 1.36529 0.861328 15.802C0.861328 31.9002 22.6276 35.92 38.093 28.0924V21.7154C32.3652 23.7443 22.6276 23.1646 22.6276 15.9174C22.6276 8.67018 31.127 7.65751 38.093 10.12ZM13.1347 18.2312C12.5613 18.2312 12.2746 18.2312 11.7012 17.9445V14.6194C11.8319 14.6889 11.9879 14.7911 13.1347 14.7911C14.2812 14.7911 15.7147 13.9313 15.7147 12.2111C15.7147 10.4908 14.3313 9.63108 13.1347 9.63108C11.9553 9.63108 10.5544 10.7776 10.5544 12.2111L10.4908 25.4061C8.99368 25.3484 7.43713 24.4598 7.15494 22.8424L7.15043 11.7763C7.16954 8.85402 9.80202 6.19132 13.0072 6.19132C16.2353 6.19132 19.1542 8.77131 19.1542 12.2726C19.1545 15.7735 16.0015 18.2312 13.1347 18.2312Z" fill="#10181D"/>
</svg>
