<?xml version="1.0" encoding="UTF-8" standalone="no"?>
<svg
   width="40"
   height="40"
   viewBox="0 0 40 40"
   fill="none"
   version="1.1"
   id="svg2"
   sodipodi:docname="telegram.svg"
   inkscape:version="1.3.2 (091e20e, 2023-11-25, custom)"
   xmlns:inkscape="http://www.inkscape.org/namespaces/inkscape"
   xmlns:sodipodi="http://sodipodi.sourceforge.net/DTD/sodipodi-0.dtd"
   xmlns="http://www.w3.org/2000/svg"
   xmlns:svg="http://www.w3.org/2000/svg">
  <sodipodi:namedview
     id="namedview2"
     pagecolor="#ffffff"
     bordercolor="#cccccc"
     borderopacity="1"
     inkscape:showpageshadow="0"
     inkscape:pageopacity="1"
     inkscape:pagecheckerboard="0"
     inkscape:deskcolor="#d1d1d1"
     inkscape:zoom="29.525"
     inkscape:cx="19.983065"
     inkscape:cy="20"
     inkscape:window-width="3440"
     inkscape:window-height="1377"
     inkscape:window-x="-8"
     inkscape:window-y="-8"
     inkscape:window-maximized="1"
     inkscape:current-layer="svg2" />
  <path
     style="color:#000000;fill:#ffffff;-inkscape-stroke:none"
     d="M 20,0 C 8.9661609,0 0,8.9661609 0,20 0,31.03383 8.9661603,40 20,40 31.03383,40 40,31.03383 40,20 40,8.9661603 31.03383,0 20,0 Z m 0,2 c 9.952949,0 18,8.047041 18,18 0,9.952949 -8.047051,18 -18,18 C 10.047041,38 2,29.952949 2,20 2,10.04704 10.04704,2 20,2 Z"
     id="path1" />
  <path
     d="M 8.58863,19.2848 27.872,11.8498 c 0.895,-0.3233 1.6766,0.2183 1.3866,1.5717 l 0.0017,-0.0017 -3.2833,15.4683 c -0.2434,1.0967 -0.895,1.3634 -1.8067,0.8467 l -5,-3.685 c 0,0 -0.1034,-0.0755 -0.2724,-0.1992 -1.4784,-1.082 -1.5716,-3.1772 -0.2122,-4.4053 l 6.6863,-6.0405 c 0.4033,-0.355 -0.09,-0.555 -0.6217,-0.2017 l -9.1099,5.7356 c -1.4859,0.9356 -3.3072,1.1733 -4.9835,0.6503 L 8.36196,20.8731 c -1.07167,-0.34 -1.095,-1.0716 0.22667,-1.5883 z"
     fill="#ffffff"
     id="path2"
     clip-path="url(#clipPath3)" />
  <defs
     id="defs2">
    <clipPath
       clipPathUnits="userSpaceOnUse"
       id="clipPath3">
      <g
         id="g4">
        <rect
           width="40"
           height="40"
           fill="#ffffff"
           id="rect3"
           x="0"
           y="0" />
      </g>
    </clipPath>
    <clipPath
       clipPathUnits="userSpaceOnUse"
       id="clipPath4">
      <g
         id="g5">
        <rect
           width="40"
           height="40"
           fill="#ffffff"
           id="rect4"
           x="0"
           y="0" />
      </g>
    </clipPath>
  </defs>
</svg>
