<?xml version="1.0" encoding="UTF-8" standalone="no"?>
<svg
   width="30"
   height="29"
   viewBox="0 0 30 29"
   fill="none"
   version="1.1"
   id="svg1"
   sodipodi:docname="thin-phone.svg"
   inkscape:version="1.3.2 (091e20e, 2023-11-25, custom)"
   xmlns:inkscape="http://www.inkscape.org/namespaces/inkscape"
   xmlns:sodipodi="http://sodipodi.sourceforge.net/DTD/sodipodi-0.dtd"
   xmlns="http://www.w3.org/2000/svg"
   xmlns:svg="http://www.w3.org/2000/svg">
  <defs
     id="defs1" />
  <sodipodi:namedview
     id="namedview1"
     pagecolor="#ffffff"
     bordercolor="#cccccc"
     borderopacity="1"
     inkscape:showpageshadow="0"
     inkscape:pageopacity="1"
     inkscape:pagecheckerboard="0"
     inkscape:deskcolor="#d1d1d1"
     inkscape:zoom="40.724138"
     inkscape:cx="14.991109"
     inkscape:cy="14.5"
     inkscape:window-width="3440"
     inkscape:window-height="1377"
     inkscape:window-x="-8"
     inkscape:window-y="-8"
     inkscape:window-maximized="1"
     inkscape:current-layer="svg1" />
  <path
     style="color:#000000;fill:#232c32;stroke-linecap:round;stroke-linejoin:round;-inkscape-stroke:none"
     d="M 6.4140625,3.125 C 4.8793911,3.125 3.625,4.3794043 3.625,5.9140625 3.625,16.932058 12.567932,25.875 23.585937,25.875 c 1.534619,0 2.789063,-1.254496 2.789063,-2.789063 v -3.324218 c 0,-1.191194 -0.728115,-2.266637 -1.833984,-2.708985 l -3.183594,-1.273437 c -0.993741,-0.397569 -2.128896,-0.218494 -2.951172,0.466797 l -0.822266,0.685547 c -0.764946,0.637482 -1.877969,0.586874 -2.582031,-0.117188 L 12.685547,14.498047 C 11.981538,13.794038 11.930849,12.680996 12.568359,11.916016 L 13.253906,11.09375 C 13.9391,10.271445 14.118269,9.136384 13.720703,8.1425781 L 12.447266,4.9589844 C 12.004899,3.8530564 10.92941,3.125 9.7382813,3.125 Z m 0,1 h 3.3242188 c 0.7852487,0 1.4876637,0.4759879 1.7792967,1.2050781 l 1.275391,3.1835938 c 0.261833,0.6545125 0.144564,1.3979599 -0.306641,1.9394531 l -0.6875,0.822266 c -0.962888,1.155417 -0.883902,2.866098 0.179688,3.929687 l 2.316406,2.316406 c 1.063536,1.063536 2.774236,1.142604 3.929687,0.179688 l 0.822266,-0.685547 c 0.541523,-0.451309 1.284996,-0.570424 1.939453,-0.308594 l 3.183594,1.275391 c 0.729129,0.291651 1.205078,0.994093 1.205078,1.779297 v 3.324218 C 25.375,24.080169 24.580116,24.875 23.585937,24.875 13.108365,24.875 4.625,16.391606 4.625,5.9140625 4.625,4.9198432 5.4198564,4.125 6.4140625,4.125 Z"
     id="path1" />
</svg>
