<?xml version="1.0" encoding="UTF-8" standalone="no"?>
<svg
   width="40"
   height="40"
   viewBox="0 0 40 40"
   fill="none"
   version="1.1"
   id="svg2"
   sodipodi:docname="whatsapp.svg"
   inkscape:version="1.3.2 (091e20e, 2023-11-25, custom)"
   xmlns:inkscape="http://www.inkscape.org/namespaces/inkscape"
   xmlns:sodipodi="http://sodipodi.sourceforge.net/DTD/sodipodi-0.dtd"
   xmlns="http://www.w3.org/2000/svg"
   xmlns:svg="http://www.w3.org/2000/svg">
  <sodipodi:namedview
     id="namedview2"
     pagecolor="#ffffff"
     bordercolor="#cccccc"
     borderopacity="1"
     inkscape:showpageshadow="0"
     inkscape:pageopacity="1"
     inkscape:pagecheckerboard="0"
     inkscape:deskcolor="#d1d1d1"
     inkscape:zoom="29.525"
     inkscape:cx="19.983065"
     inkscape:cy="20"
     inkscape:window-width="3440"
     inkscape:window-height="1377"
     inkscape:window-x="-8"
     inkscape:window-y="-8"
     inkscape:window-maximized="1"
     inkscape:current-layer="svg2" />
  <path
     style="color:#000000;fill:#ffffff;-inkscape-stroke:none"
     d="M 20.082031,0 C 9.1606605,4.5247381e-4 0.25602534,8.9036254 0.25195313,19.826172 v 0.0078 l 0.009766,0.623047 v 0.0078 c 0.10096273,3.189483 0.97000835,6.312729 2.53125005,9.085937 L -0.125,40.205078 10.777344,37.347656 c 2.672596,1.421303 5.660842,2.214227 8.699218,2.308594 h 0.0078 l 0.591797,0.0078 h 0.0078 c 10.920777,-1.05e-4 19.82608,-8.902445 19.830078,-19.824218 v -0.0059 l -0.0039,-0.482422 v -0.0078 C 39.791333,14.392533 37.824703,9.7548974 34.404297,6.1699219 v -0.0625 L 34.111328,5.8144531 C 30.371342,2.0717011 25.380175,0.00202927 20.083984,0 Z m 0,2 h 0.002 c 4.772088,0.00234 9.230314,1.8487079 12.601563,5.2167969 0.0037,0.00365 0.0081,0.00611 0.01172,0.00977 v 0.00195 c 3.268332,3.2718704 5.102432,7.5614104 5.21289,12.1640624 l 0.0059,0.457031 -0.002,-0.01172 c -0.0036,9.836806 -7.994475,17.826077 -17.830078,17.826171 l 0.01563,0.002 -0.5625,-0.0098 c -2.731417,-0.08483 -5.421514,-0.798524 -7.820312,-2.074219 l -0.691406,-0.367187 -0.75586,0.199218 -7.550781,1.978516 2.0039062,-7.3125 0.2167969,-0.792969 -0.4023437,-0.716797 C 3.135314,26.080326 2.3524958,23.268102 2.2617188,20.400391 l -0.00977,-0.574219 v -0.002 C 2.2566956,9.9880191 10.247155,2.0014822 20.082031,2 Z"
     id="path1" />
  <path
     fill-rule="evenodd"
     clip-rule="evenodd"
     d="m 15.5443,12.3338 c -0.339,-0.7546 -0.6962,-0.7699 -1.02,-0.7832 -0.2646,-0.0115 -0.5664,-0.0105 -0.8683,-0.0105 -0.3018,0 -0.7927,0.1136 -1.2082,0.5673 -0.4155,0.4537 -1.5865,1.5492 -1.5865,3.7785 0,2.2293 1.6238,4.3841 1.8501,4.6859 0.2264,0.3018 3.1348,5.023 7.7404,6.8397 3.8272,1.5091 4.6066,1.2092 5.4376,1.1337 0.8309,-0.0754 2.681,-1.0955 3.0583,-2.1538 0.3773,-1.0583 0.3773,-1.9647 0.2646,-2.1538 -0.1137,-0.1891 -0.4155,-0.3018 -0.8682,-0.5292 -0.4528,-0.2273 -2.6811,-1.3228 -3.0966,-1.4737 -0.4155,-0.1509 -0.7173,-0.2264 -1.0201,0.2273 -0.3018,0.4527 -1.17,1.4738 -1.4346,1.7756 -0.2645,0.3028 -0.5291,0.341 -0.9818,0.1136 -0.4528,-0.2273 -1.9122,-0.7048 -3.6439,-2.2483 -1.3467,-1.2006 -2.256,-2.684 -2.5206,-3.1376 -0.2645,-0.4528 -0.0286,-0.6982 0.1987,-0.9246 0.2035,-0.2035 0.4527,-0.5292 0.6801,-0.7937 0.2263,-0.2646 0.3018,-0.4537 0.4527,-0.7555 0.1509,-0.3028 0.0755,-0.5674 -0.0382,-0.7938 -0.1118,-0.2273 -0.9924,-2.468 -1.3955,-3.3639 z"
     fill="#ffffff"
     id="path2"
     clip-path="url(#clipPath3)" />
  <defs
     id="defs2">
    <clipPath
       clipPathUnits="userSpaceOnUse"
       id="clipPath3">
      <g
         id="g4">
        <rect
           width="40"
           height="40"
           fill="#ffffff"
           id="rect3"
           x="0"
           y="0" />
      </g>
    </clipPath>
    <clipPath
       clipPathUnits="userSpaceOnUse"
       id="clipPath4">
      <g
         id="g5">
        <rect
           width="40"
           height="40"
           fill="#ffffff"
           id="rect4"
           x="0"
           y="0" />
      </g>
    </clipPath>
  </defs>
</svg>
