<svg width="216" height="36" viewBox="0 0 216 36" fill="none" xmlns="http://www.w3.org/2000/svg">
<path fill-rule="evenodd" clip-rule="evenodd" d="M0 0V35.4953H14.0863V20.8381L15.8795 18.7899L24.5567 35.4965H40.4336L26.6812 10.255L39.5409 0H32.0571L14.0863 13.4908V0H0ZM143.67 35.4965L159.514 0.00125206H165.82L180.784 35.4965H165.82L163.731 31.3812H149.939L147.85 35.4965H143.67ZM152.048 26.9966L157.422 15.5566L161.639 26.9966H152.048ZM45.0651 35.4965L60.9447 0H67.2146L81.8803 35.4953H67.2159L65.1246 31.38H51.353L48.9445 35.4953L45.0651 35.4965ZM53.4442 26.9966L58.8342 15.5566L63.0334 26.9966H53.4442ZM90.4858 35.4965V0H104.237L113.83 17.6023L122.508 0H136.318V35.4953H121.332V14.6596L111.741 35.4965H105.453L95.8604 16.7066V35.4965H90.4858ZM186.346 0H216L206.407 30.2325H213.906V35.4953H186.346L195.625 5.26403H186.346V0Z" fill="#2B67DB"/>
</svg>
