<svg width="154" height="109" viewBox="0 0 154 109" fill="none" xmlns="http://www.w3.org/2000/svg">
<path d="M81.3548 76.6488H87.7778V44.9971H81.3548V76.6488ZM73.7373 76.6488H80.1641V38.4666H73.7373V76.6488ZM66.1233 76.6488H72.5475V44.9971H66.1233V76.6488Z" fill="#FDCF00"/>
<path d="M81.3549 44.0048H87.7779V10.1414H81.3549V44.0048ZM88.9672 53.2975L95.3959 47.071V17.1995H88.9672M96.5846 46.2411L103.008 40.6016V24.3695H96.5846M73.7374 37.069H80.1642V3.08496H73.7374V37.069ZM66.1234 44.0048H72.5476V10.1414H66.1234V44.0048ZM64.9294 53.2975L58.5042 47.071V17.1995H64.9294M57.3102 46.2411L50.8867 40.6016V24.3695H57.3102" fill="white"/>
<path d="M63.6503 97.0233C62.9151 96.272 61.5665 95.8842 59.646 95.8265H59.6377L51.9941 95.8237C51.2885 95.8237 50.715 95.2629 50.715 94.5641C50.715 93.8652 51.2885 93.3027 51.9941 93.3027H64.1668V89.5989H51.9715C49.7921 89.5989 48.2836 89.9833 47.4389 90.7555C46.669 91.4648 46.2484 92.5008 46.1876 93.86C45.9443 99.5852 49.4793 99.5467 51.398 99.6009H51.4077L59.0495 99.6065C59.7586 99.6065 60.3287 100.167 60.3287 100.87C60.3287 101.567 59.7586 102.133 59.0495 102.133H46.8386V105.833H59.0721C61.2481 105.833 62.7601 105.45 63.603 104.676C64.3746 103.965 64.7883 102.935 64.8526 101.572C64.8582 101.451 65.1101 98.5065 63.6503 97.0233ZM22.1421 105.866L16.6276 100.253C18.5185 100.187 19.8289 99.7987 20.5641 99.0667C21.3687 98.2648 21.7754 97.1065 21.7754 95.5988V94.3164C21.7754 92.8087 21.3687 91.6504 20.5641 90.8485C19.7559 90.0466 18.2613 89.6482 16.0662 89.6482H3.10278V105.856H7.9934V100.263H11.0679L16.5633 105.866H22.1421ZM7.9934 93.338H15.2459C16.1531 93.338 16.8865 94.0613 16.8865 94.9576C16.8865 95.8556 16.1531 96.5824 15.2459 96.5824H7.9934M138.832 93.2787H132.007V89.5679H150.897V93.2787H143.784V105.873H138.832M115.787 99.5157V105.873H110.832L110.806 94.2657C110.806 92.6881 111.235 91.5124 112.085 90.7332C112.94 89.9575 114.466 89.5679 116.668 89.5679H129.725V93.2804H118.858C117.643 93.2804 116.832 93.504 116.421 93.9565C116.018 94.4073 115.803 95.0222 115.787 95.8067H129.725V99.5157M42.2991 104.664C41.484 105.468 39.9702 105.873 37.7491 105.873H30.4653C28.2633 105.873 26.7374 105.485 25.8858 104.706C25.0359 103.929 24.6066 102.753 24.6066 101.179V94.2657C24.6066 92.6881 25.0359 91.5124 25.8858 90.7349C26.7374 89.9592 28.2633 89.5679 30.4653 89.5679H37.7491C39.9702 89.5679 41.484 89.9749 42.2991 90.7751C43.1177 91.584 43.5226 92.7423 43.5226 94.2657V101.179C43.5226 102.697 43.1177 103.859 42.2991 104.664ZM38.5451 95.8643C38.5451 94.9681 38.3556 94.3112 37.9768 93.8989C37.5944 93.4848 36.7532 93.2787 35.4463 93.2787H32.6569C31.4438 93.2787 30.6304 93.504 30.2255 93.9565C29.8188 94.4055 29.6119 95.0449 29.6119 95.8643V99.5733C29.6119 100.4 29.8188 101.036 30.2255 101.485C30.6304 101.937 31.4438 102.163 32.6569 102.163H35.4463C36.7532 102.163 37.5875 101.956 37.9472 101.542C38.3105 101.13 38.5068 100.487 38.5451 99.6013M94.2676 99.5419C94.2902 100.394 94.4987 101.048 94.9037 101.499C95.3069 101.946 96.1011 102.171 97.3107 102.171H108.05V105.856H95.1435C92.971 105.856 91.4538 105.473 90.6144 104.696C89.7697 103.922 89.3509 102.755 89.3509 101.189V94.3164C89.3509 92.7475 89.7697 91.584 90.6144 90.8065C91.4538 90.0361 92.971 89.6482 95.1435 89.6482H108.05V93.3398H97.3107C96.1011 93.3398 95.3069 93.5652 94.9037 94.0054C94.4987 94.4492 94.2902 95.0642 94.2676 95.8521H108.05V99.5419M86.5145 105.915H81.5318V95.9342C81.5318 95.0292 81.3441 94.3793 80.9617 93.9687C80.5898 93.5512 79.74 93.345 78.4313 93.345H75.6471C74.4357 93.345 73.6223 93.5722 73.2139 94.0229C72.8038 94.4684 72.6004 95.1096 72.6004 95.9342V105.915H67.5934V94.3304C67.5934 92.7563 68.0226 91.5788 68.8725 90.8031C69.7293 90.0256 71.2518 89.6378 73.4555 89.6378H80.7375C82.9587 89.6378 84.4759 90.0378 85.291 90.8467C86.1061 91.6504 86.5145 92.8104 86.5145 94.3304" fill="white"/>
</svg>
