<svg width="269" height="33" viewBox="0 0 269 33" fill="none" xmlns="http://www.w3.org/2000/svg">
<g clip-path="url(#clip0_2045_10480)">
<path d="M14.1598 26.4816C9.3823 24.2098 6.13895 20.1638 5.19327 15.851C5.01485 15.008 5.00354 14.1365 5.16002 13.2889C5.31649 12.4412 5.63754 11.6348 6.10393 10.918C6.69936 9.95875 7.42088 9.89384 7.42088 9.89384C7.42088 9.89384 6.67834 9.53324 5.68362 9.38178C4.43672 9.18706 2.81154 9.3313 1.77479 10.9468C0.983753 12.8508 0.569381 14.8981 0.555908 16.9689C0.576923 21.0798 2.08301 25.8253 6.67834 29.59C7.95327 30.5709 9.3823 31.3426 10.9234 31.8691C11.1336 31.9412 11.3577 31.9989 11.5609 32.0566C12.2404 32.2513 12.9059 32.3883 13.5433 32.4965C13.5924 32.4965 13.6414 32.5037 13.6834 32.5181L14.2648 32.5758C14.5661 32.6047 14.8533 32.6335 15.1475 32.648L15.5818 32.6552H15.7359L16.5625 32.6335L17.4101 32.5614L17.5082 32.547C17.7394 32.5181 17.9635 32.4749 18.1947 32.4388L18.587 32.3667L18.671 32.3451C21.2069 31.8114 23.3084 30.6286 24.9336 29.4025C25.8792 28.6525 26.7269 27.7942 27.4694 26.8422C23.7427 28.6813 18.7901 28.6885 14.1598 26.4816ZM6.01987 8.28555C7.17329 6.76406 8.60819 5.49305 10.2416 4.54598C11.8751 3.59891 13.6746 2.99457 15.5363 2.76789C17.398 2.54122 19.2848 2.6967 21.0878 3.22536C22.8907 3.75402 24.574 4.64536 26.0404 5.84786C23.2342 3.14247 19.5313 1.64124 15.6869 1.65043C10.398 1.65043 5.73966 4.44151 3.0357 8.68221C3.97181 8.2541 5.00884 8.11625 6.01987 8.28555Z" fill="#2069BC"/>
<path d="M14.9093 25.3204C16.8007 26.4239 18.8672 27.0369 20.9267 27.2388C21.7883 27.0225 22.6149 26.7051 23.3364 26.2724C26.2575 24.4045 34.8458 12.1367 34.8458 12.1367C34.8458 12.1367 30.1664 11.1415 28.1349 12.6704C26.1034 14.1994 24.5763 16.6226 22.3207 19.2478C20.0791 21.8586 19.0843 23.5102 17.0949 24.0294C15.6168 24.4189 14.2228 24.3468 12.9619 24.0583C13.5644 24.491 14.2088 24.9021 14.9093 25.3204Z" fill="#2069BC"/>
<path d="M28.8004 25.8685C30.6077 24.5126 34.8108 18.6204 34.8108 18.6204C34.8108 18.6204 31.5884 16.8895 28.6603 18.6204C25.7182 20.3729 25.8093 20.82 22.9022 23.2866C20.0021 25.7459 17.8305 26.0272 16.2263 25.8974C16.1283 25.8974 16.0512 25.8757 15.9531 25.8685C20.1422 27.8735 25.6061 28.2052 28.8004 25.8685Z" fill="#EE2121"/>
<path d="M34.7967 1.65043C34.7967 1.65043 30.1804 0.345041 26.4887 3.63375C23.8268 5.99931 18.0966 21.8731 13.5993 22.7746C12.9027 22.931 12.1873 22.9797 11.4768 22.9189C12.2263 22.991 13.109 22.9621 14.1177 22.7602C18.629 21.8587 24.5833 7.21094 27.3363 4.95356C30.0963 2.71782 33.3957 3.28757 33.3957 3.28757L30.6147 8.34324L34.7967 1.65043ZM45.9558 4.1386L41.6687 11.0983H50.2359L47.8191 30.2896H56.2602L58.67 11.0983H65.605L66.4456 4.1386H45.9558ZM243.065 3.99435L242.238 10.9468H249.698L247.268 30.2608H255.695L258.125 10.9468H264.22L268.5 3.99435H243.065ZM216.494 10.8603L217.321 4.00878H196.544L193.3 30.1886H214.078L214.897 23.3372H202.596L203.045 20.0629L215.303 20.0124L216.046 14.0913L203.773 14.1418L204.221 10.8603H216.494ZM112.287 4.11696H99.9439C99.1033 4.11696 98.2627 4.66508 98.0105 5.40071L89.1841 30.2896H97.7863L99.2364 25.8398L107.46 25.7388L107.916 30.2896H116.532L113.856 5.38629C113.8 4.62902 113.155 4.11696 112.287 4.11696ZM101.667 19.1974L104.294 11.9853H105.975L106.76 19.1974H101.667ZM134.059 15.9664L130.423 4.11696H121.947L118.696 30.2968H127.18L128.574 19.2046L132.286 30.2968H141.239L144.489 4.11696H135.53L134.059 15.9664ZM216.831 30.1886H225.307L226.568 20.0629L235.289 20.0124L235.989 14.0913L227.303 14.1418L227.744 10.8603H236.606L240.844 4.00878H220.081L216.831 30.1886ZM89.6114 5.60986C89.1818 5.1287 88.6566 4.74829 88.0716 4.49444C87.4867 4.24059 86.8555 4.11923 86.2209 4.1386L69.2687 4.12417L66.971 25.8974L66.3756 30.2896H74.8797L75.6713 24.08H77.4226L79.1388 30.2896H87.0545L85.2472 23.8564C87.2437 23.2795 88.8689 21.5846 89.128 19.6013L90.438 8.62451C90.5185 8.09038 90.4863 7.54466 90.3437 7.02447C90.2011 6.50428 89.9513 6.02181 89.6114 5.60986ZM77.1424 12.3387L77.3105 11.0478H81.7587L81.0092 16.4785C80.9794 16.6632 80.8871 16.8311 80.7487 16.9526C80.6102 17.074 80.4345 17.1411 80.2526 17.142H76.4979L77.1424 12.3387ZM162.527 4.11696H153.358C151.543 4.12625 149.793 4.81301 148.433 6.0498C147.292 7.0589 146.548 8.46137 146.338 9.99481L145.925 13.3917C145.645 15.6924 146.296 17.0915 148.454 17.9858C152.741 19.7528 158.205 21.7938 158.205 21.7938L158.156 22.2698L158.086 22.8035L153.259 22.7963L153.4 21.1591H144.93L144.538 24.3757C144.188 27.6356 146.696 30.2896 150.135 30.2896H159.312C161.084 30.2896 162.87 29.5828 164.215 28.3423C165.342 27.3162 166.075 25.9094 166.282 24.3757L166.758 20.5172C167.01 18.4329 166.359 17.2285 163.998 16.327L154.478 12.6416C154.569 12.043 154.618 11.6319 154.618 11.5598L154.689 10.9829L155.221 10.9973L159.053 11.0189H159.599L159.354 12.6777H167.781L168.215 9.06445C168.636 5.40071 165.413 4.11696 162.527 4.11696ZM184.999 4.11696L183.514 15.9664L179.984 4.11696H171.501L168.257 30.304H176.733L178.135 19.2046L181.756 30.3112H190.723L193.952 4.10254L184.999 4.11696Z" fill="#2069BC"/>
</g>
<defs>
<clipPath id="clip0_2045_10480">
<rect width="268" height="33" fill="white" transform="translate(0.5)"/>
</clipPath>
</defs>
</svg>
