<svg width="189" height="64" viewBox="0 0 189 64" fill="none" xmlns="http://www.w3.org/2000/svg">
<g clip-path="url(#clip0_2045_10453)">
<path d="M110.444 61.5674H94.875V63.718H110.444V61.5674Z" fill="#08B0A0"/>
<path d="M99.3901 34.1154H97.552V38.7843H94.8867V27.2041H97.552V31.8821H99.4728L102.515 27.2041H105.346L101.559 32.792L105.465 38.7843H102.423L99.3901 34.1154Z" fill="white"/>
<path d="M113.198 30.7337C113.586 31.1187 113.887 31.5835 114.079 32.096C114.271 32.6085 114.35 33.1565 114.31 33.7022V38.7846H111.892V37.6726C111.597 38.1051 111.19 38.4491 110.714 38.6677C110.238 38.8863 109.711 38.9712 109.19 38.9133C108.579 38.9295 107.97 38.8135 107.407 38.5733C106.946 38.3808 106.548 38.0623 106.259 37.6542C105.992 37.2412 105.854 36.758 105.863 36.2664C105.847 35.8915 105.923 35.5183 106.083 35.1789C106.243 34.8394 106.483 34.544 106.783 34.318C107.646 33.7751 108.661 33.5239 109.678 33.6011H111.727C111.741 33.3606 111.703 33.1199 111.614 32.896C111.525 32.6721 111.388 32.4704 111.212 32.3053C110.774 31.9691 110.228 31.8056 109.678 31.8457C109.204 31.8175 108.729 31.8672 108.271 31.9928C107.853 32.1214 107.461 32.3237 107.113 32.5902L106.194 30.7521C106.725 30.3877 107.316 30.1201 107.941 29.9617C108.619 29.7693 109.321 29.6734 110.027 29.6768C111.178 29.624 112.308 30.0006 113.198 30.7337ZM111.029 36.873C111.372 36.6629 111.63 36.337 111.755 35.9539V35.0349H109.981C108.924 35.0349 108.391 35.3841 108.391 36.0734C108.385 36.2278 108.418 36.3811 108.487 36.5192C108.556 36.6574 108.659 36.7759 108.786 36.8638C109.101 37.0728 109.475 37.1728 109.852 37.1487C110.262 37.1639 110.668 37.0686 111.029 36.873Z" fill="white"/>
<path d="M123.482 34.9147C123.77 35.2561 123.923 35.6906 123.914 36.137C123.919 36.6864 123.711 37.2165 123.335 37.6167C122.899 38.076 122.351 38.4148 121.745 38.6001C121.01 38.842 120.24 38.96 119.466 38.9493C118.777 38.9482 118.091 38.8774 117.416 38.7379C116.779 38.5982 116.161 38.3789 115.578 38.0854L116.277 36.2473C117.25 36.7072 118.316 36.9397 119.392 36.9274C119.882 36.9517 120.371 36.8571 120.817 36.6517C120.969 36.5902 121.101 36.485 121.194 36.3493C121.287 36.2136 121.338 36.0534 121.341 35.8889C121.346 35.7554 121.315 35.623 121.25 35.5063C121.185 35.3895 121.089 35.293 120.973 35.2271C120.647 35.0596 120.282 34.9834 119.916 35.0066H118.078V33.4442H119.668C120.028 33.4654 120.386 33.3892 120.706 33.2236C120.821 33.1656 120.917 33.0758 120.982 32.965C121.047 32.8543 121.079 32.7271 121.074 32.5986C121.071 32.4553 121.026 32.3159 120.945 32.1982C120.863 32.0804 120.748 31.9895 120.615 31.9369C120.206 31.7618 119.763 31.6832 119.319 31.7071C118.351 31.7307 117.397 31.9365 116.506 32.3137L115.881 30.5307C117.013 30.0124 118.24 29.7369 119.484 29.722C120.215 29.7082 120.943 29.8074 121.644 30.0161C122.207 30.1761 122.722 30.4728 123.142 30.88C123.317 31.0542 123.456 31.2621 123.549 31.491C123.642 31.72 123.688 31.9654 123.684 32.2126C123.69 32.624 123.557 33.0252 123.307 33.3523C123.031 33.6984 122.674 33.9727 122.269 34.1518C122.736 34.2893 123.156 34.5533 123.482 34.9147Z" fill="white"/>
<path d="M132.429 30.7333C132.816 31.1191 133.115 31.5843 133.306 32.0967C133.496 32.6092 133.573 33.1567 133.532 33.7018V38.7842H131.115V37.6722C130.819 38.107 130.41 38.4525 129.932 38.6712C129.454 38.89 128.926 38.9735 128.404 38.9129C127.795 38.9292 127.189 38.8132 126.63 38.5729C126.167 38.383 125.768 38.064 125.481 37.6538C125.211 37.2416 125.071 36.7585 125.077 36.266C125.06 35.891 125.135 35.5175 125.295 35.1779C125.455 34.8384 125.695 34.5431 125.996 34.3176C126.856 33.7761 127.868 33.5248 128.881 33.6007H130.931C130.946 33.3609 130.909 33.1206 130.822 32.8968C130.735 32.6729 130.599 32.4708 130.425 32.3049C129.984 31.9688 129.435 31.8055 128.881 31.8453C128.406 31.8439 127.934 31.9215 127.484 32.0751C127.064 32.2045 126.668 32.4067 126.317 32.6725L125.398 30.8344C125.93 30.471 126.521 30.2035 127.144 30.044C127.826 29.8523 128.532 29.7564 129.24 29.7591C130.387 29.6802 131.522 30.027 132.429 30.7333ZM130.223 36.8726C130.569 36.665 130.828 36.3382 130.949 35.9535V35.0345H129.185C128.128 35.0345 127.595 35.3837 127.595 36.073C127.588 36.2265 127.62 36.3793 127.687 36.5174C127.755 36.6555 127.856 36.7744 127.981 36.8634C128.296 37.0711 128.67 37.1711 129.047 37.1483C129.457 37.1648 129.863 37.0695 130.223 36.8726Z" fill="white"/>
<path d="M135.783 29.8887H138.347V33.3627H142.217V29.8887H144.799V38.7852H142.217V35.4582H138.347V38.7852H135.783V29.8887Z" fill="white"/>
<path d="M148.942 38.3248C148.21 37.9607 147.595 37.3968 147.169 36.6981C146.74 35.9859 146.52 35.1674 146.535 34.3361C146.514 33.5097 146.73 32.6947 147.156 31.9866C147.583 31.2785 148.203 30.7067 148.942 30.3382C149.734 29.9396 150.611 29.7378 151.497 29.75C152.352 29.733 153.197 29.9356 153.951 30.3382C154.63 30.7073 155.169 31.2883 155.486 31.9925L153.483 33.0678C153.295 32.6985 153.006 32.3901 152.649 32.1786C152.293 31.967 151.884 31.8611 151.47 31.873C151.161 31.8636 150.853 31.9174 150.565 32.0311C150.278 32.1449 150.016 32.3163 149.797 32.5348C149.365 33.0354 149.127 33.6748 149.127 34.3361C149.127 34.9975 149.365 35.6368 149.797 36.1375C150.016 36.3559 150.278 36.5273 150.565 36.6411C150.853 36.7549 151.161 36.8087 151.47 36.7992C151.886 36.8103 152.297 36.7008 152.652 36.4839C153.008 36.2671 153.293 35.9521 153.473 35.5768L155.477 36.6705C155.151 37.3692 154.615 37.9479 153.942 38.3248C153.19 38.7318 152.344 38.9346 151.488 38.913C150.604 38.9274 149.73 38.7255 148.942 38.3248Z" fill="white"/>
<path d="M160.974 35.4122H159.641V38.7852H157.059V29.8887H159.641V33.3443H161.029L163.418 29.8887H166.176L163.069 34.1531L166.396 38.7484H163.345L160.974 35.4122Z" fill="white"/>
<path d="M167.674 29.8887H170.238V35.1825L174.576 29.8887H176.938V38.7852H174.374V33.4914L170.054 38.7852H167.674V29.8887Z" fill="white"/>
<path d="M179.42 29.8876H181.984V35.1814L186.322 29.8876H188.684V38.7841H186.12V33.4903L181.8 38.7841H179.42V29.8876ZM180.964 26.3584H182.646C182.63 26.6948 182.746 27.0241 182.967 27.2775C183.088 27.3946 183.233 27.484 183.392 27.5396C183.55 27.5951 183.719 27.6155 183.887 27.5991C184.054 27.6125 184.222 27.5907 184.38 27.5354C184.538 27.48 184.683 27.3921 184.806 27.2775C184.921 27.1558 185.01 27.0109 185.065 26.8525C185.121 26.694 185.142 26.5256 185.127 26.3584H186.855C186.855 28.0678 185.863 28.9226 183.905 28.9226C181.947 28.9226 180.973 28.0678 180.964 26.3584Z" fill="white"/>
<path d="M99.3868 50.567H97.5487V55.2266H94.8926V43.6465H97.5487V48.3337H99.4695L102.512 43.6465H105.342L101.556 49.2436L105.462 55.2266H102.42L99.3868 50.567Z" fill="white"/>
<path d="M114.201 46.7711C114.875 47.1416 115.43 47.6962 115.801 48.3702C116.181 49.1158 116.38 49.941 116.38 50.7782C116.38 51.6153 116.181 52.4405 115.801 53.1861C115.428 53.8607 114.874 54.4178 114.201 54.7944C113.509 55.1756 112.731 55.3718 111.941 55.3643C111.443 55.3906 110.946 55.308 110.485 55.1222C110.023 54.9365 109.607 54.6521 109.266 54.289V58.4431H106.684V46.3299H109.193V47.3592C109.534 46.9688 109.959 46.6609 110.437 46.4587C110.915 46.2565 111.432 46.1654 111.95 46.192C112.738 46.1846 113.515 46.3843 114.201 46.7711ZM113.126 52.5703C113.537 52.0632 113.76 51.4305 113.76 50.7782C113.76 50.1258 113.537 49.4931 113.126 48.986C112.692 48.5555 112.106 48.314 111.495 48.314C110.884 48.314 110.297 48.5555 109.864 48.986C109.453 49.4931 109.229 50.1258 109.229 50.7782C109.229 51.4305 109.453 52.0632 109.864 52.5703C110.297 53.0008 110.884 53.2423 111.495 53.2423C112.106 53.2423 112.692 53.0008 113.126 52.5703Z" fill="white"/>
<path d="M126.783 51.5043H120.046C120.155 52.0369 120.464 52.5073 120.91 52.8186C121.407 53.148 121.995 53.3149 122.592 53.2965C123.012 53.3029 123.429 53.2312 123.823 53.0851C124.201 52.9435 124.543 52.7207 124.825 52.4326L126.204 53.9215C125.737 54.4201 125.164 54.8084 124.528 55.058C123.892 55.3076 123.209 55.4123 122.527 55.3644C121.605 55.3797 120.692 55.1782 119.862 54.7762C119.123 54.409 118.504 53.8382 118.079 53.1311C117.653 52.4179 117.437 51.5994 117.454 50.7691C117.441 49.9433 117.654 49.1296 118.07 48.4163C118.474 47.7219 119.063 47.1526 119.77 46.7712C120.518 46.3768 121.351 46.1746 122.196 46.183C123.022 46.1731 123.837 46.369 124.568 46.7528C125.264 47.1169 125.838 47.6757 126.222 48.3611C126.638 49.1075 126.848 49.9515 126.828 50.8058C126.828 50.8058 126.81 51.0724 126.783 51.5043ZM120.744 48.6461C120.337 48.9901 120.078 49.4768 120.018 50.0063H124.402C124.336 49.4793 124.074 48.9967 123.667 48.6552C123.262 48.3136 122.745 48.1336 122.215 48.1498C121.681 48.1316 121.158 48.3079 120.744 48.6461Z" fill="white"/>
<path d="M137.5 55.2266V49.9052L134.834 54.3719H133.75L131.149 49.8868V55.2266H128.814V46.3301H131.516L134.356 51.4768L137.389 46.3301H139.797V55.2266H137.5Z" fill="white"/>
<path d="M150.833 46.3301V55.2266H148.251V48.4439H145.438L145.356 50.0155C145.333 50.9946 145.222 51.9696 145.025 52.9289C144.902 53.6049 144.608 54.2379 144.17 54.767C143.958 54.9901 143.701 55.1648 143.415 55.279C143.13 55.3932 142.823 55.4443 142.516 55.4288C142.062 55.4193 141.611 55.3514 141.174 55.2266L141.302 53.1127C141.431 53.1223 141.56 53.1223 141.688 53.1127C141.857 53.1213 142.024 53.0869 142.175 53.013C142.326 52.939 142.456 52.8279 142.552 52.69C142.76 52.365 142.892 51.9975 142.938 51.6147C143.021 51.042 143.074 50.4652 143.095 49.8868L143.196 46.3301H150.833Z" fill="white"/>
<path d="M160.798 49.9604C161.108 50.2287 161.352 50.5647 161.511 50.9424C161.67 51.3201 161.741 51.7293 161.717 52.1385C161.735 52.5765 161.649 53.0126 161.465 53.4106C161.281 53.8086 161.005 54.157 160.66 54.427C159.812 55.0188 158.788 55.307 157.756 55.245H153.289V46.3301H155.853V49.1792H158.105C159.066 49.1173 160.019 49.3937 160.798 49.9604ZM158.693 53.1311C158.83 53.0068 158.937 52.8527 159.006 52.6807C159.074 52.5086 159.103 52.3232 159.088 52.1385C159.099 51.966 159.07 51.7932 159.003 51.6338C158.936 51.4743 158.833 51.3325 158.702 51.2195C158.359 51.0034 157.959 50.8946 157.554 50.907H155.881V53.4068H157.554C157.954 53.4589 158.36 53.3607 158.693 53.1311Z" fill="white"/>
<path d="M79.3052 0H15.5684V55.2355H79.3052L60.1795 27.6177L79.3052 0Z" fill="#ED2C44"/>
<path d="M43.1867 63.7265H58.0571L54.7944 55.2344H37.3047L43.1867 63.7265Z" fill="#08B0A0"/>
<path d="M15.5689 8.4834H0V63.7281H24.061V55.236H15.5689V8.4834Z" fill="#08B0A0"/>
<path d="M38.9401 36.1103L58.0566 8.4834H43.1862L24.0605 36.1103L37.3042 55.236H54.7939L47.4322 36.1103H38.9401Z" fill="white"/>
<path d="M24.0605 8.4834H15.5684V55.236H24.0605V36.1103V8.4834Z" fill="white"/>
</g>
<defs>
<clipPath id="clip0_2045_10453">
<rect width="189" height="64" fill="white"/>
</clipPath>
</defs>
</svg>
