<svg width="117" height="18" viewBox="0 0 117 18" fill="none" xmlns="http://www.w3.org/2000/svg">
<g clip-path="url(#clip0_1421_6589)">
<path fill-rule="evenodd" clip-rule="evenodd" d="M112.681 6.93177V6.42627C112.681 5.90739 112.476 5.4429 112.065 5.03286C111.655 4.62271 111.191 4.41764 110.672 4.41764H94.8689V13.9596C94.8689 14.4604 94.7117 15.0522 94.4012 15.7351C94.0909 16.418 93.5859 17.0182 92.8864 17.5312C92.1871 18.0445 91.3015 18.3011 90.2254 18.3011C89.1203 18.3011 88.3008 18.1479 87.767 17.8457C87.2332 17.5437 86.6621 16.9849 86.0577 16.1655L77.615 5.98022C77.2722 5.52695 77.001 5.14423 76.3899 5.14423C76.0286 5.14423 75.6739 5.42756 75.6739 5.81069V17.73H70.7571V3.89437C70.7571 3.65019 70.8357 3.31918 70.9929 2.90532C71.3906 1.84912 72.2275 0.979338 73.2237 0.467483C73.8239 0.157239 74.5522 0 75.3965 0C76.4726 0 77.3169 0.177798 77.9253 0.538045C78.5337 0.898084 79.0262 1.29118 79.3987 1.70928L87.8994 11.7165C88.2748 12.2243 88.5692 12.5648 89.2362 12.5648C89.8692 12.5648 89.8778 12.0832 89.8778 11.5716V2.42725C90.2159 1.01963 91.4133 0.245363 92.9271 0.372333C98.8153 0.372333 104.751 0.400486 110.672 0.400486C112.312 0.400486 113.727 0.995145 114.915 2.18312C116.103 3.3711 116.698 4.78682 116.698 6.42627V17.7506H112.681V10.9489H100.724V17.7506H96.7511C96.7511 14.7288 96.7234 11.7438 96.7234 8.74607C97.0992 7.65278 97.8435 7.00724 99.0572 6.93177H112.681Z" fill="#142356"/>
<path fill-rule="evenodd" clip-rule="evenodd" d="M50.9235 11.2392C50.9235 11.8 51.1451 12.302 51.5883 12.745C52.0314 13.1883 52.5334 13.4099 53.0939 13.4099H63.8438L63.8469 0.38208H68.1402C68.1402 6.26276 68.1458 11.8777 68.1458 17.7508H53.0937C51.322 17.7508 49.7921 17.108 48.5086 15.8245C47.225 14.541 46.5809 13.0108 46.5823 11.2392L46.5907 0.38983H50.9317C50.9317 6.34386 50.9235 8.93946 50.9235 11.2392Z" fill="#142356"/>
<path fill-rule="evenodd" clip-rule="evenodd" d="M4.0171 6.93175V6.42625C4.0171 5.90737 4.22223 5.44288 4.63237 5.03284C5.04236 4.62269 5.5069 4.41762 6.02578 4.41762C16.5755 4.41762 27.119 4.42005 37.6685 4.42005C37.9374 4.42005 38.19 4.46138 38.4341 4.54005C38.6742 4.6227 38.8728 4.75111 39.0217 4.92906C39.1709 5.10691 39.2453 5.34701 39.2453 5.64496C39.2453 6.0548 39.0921 6.37754 38.7859 6.60937C38.4797 6.83697 38.1652 6.95288 37.8505 6.95288H24.4104C23.3226 7.20491 22.5057 7.77007 22.1362 8.87871V17.7506H27.177V11.1246H33.6582L39.8291 17.7506H46.39L40.2882 11.1246C40.3876 11.0915 40.7187 11.0418 41.2816 10.9797C41.8445 10.9136 42.341 10.8018 42.7756 10.6404C43.2102 10.4789 43.5826 10.185 43.893 9.75882C44.2035 9.33669 44.3607 8.74079 44.3607 7.97091V3.63365C44.3607 2.73556 44.042 1.96992 43.4048 1.32846C42.7631 0.691031 42.0017 0.372314 41.1119 0.372314C29.3915 0.372314 17.7412 0.400467 6.02578 0.400467C4.38598 0.400467 2.97056 0.995127 1.78263 2.1831C0.594659 3.37108 0 4.78681 0 6.42625V17.7506H4.0171V10.9489H15.9737V17.7711H19.9467C19.9467 14.7425 19.9744 11.7506 19.9744 8.74605C19.5987 7.65276 18.8543 7.00722 17.6407 6.93175H15.9737H4.0171Z" fill="#142356"/>
</g>
<defs>
<clipPath id="clip0_1421_6589">
<rect width="117" height="18" fill="white"/>
</clipPath>
</defs>
</svg>
