<svg width="95" height="116" viewBox="0 0 95 116" fill="none" xmlns="http://www.w3.org/2000/svg">
<g clip-path="url(#clip0_2045_10434)">
<path fill-rule="evenodd" clip-rule="evenodd" d="M22.7971 105.437C24.6837 105.437 26.2146 107.151 26.2146 109.262C26.2146 111.373 24.6837 113.086 22.7971 113.086C20.9105 113.086 19.3797 111.373 19.3797 109.262C19.3797 107.151 20.9105 105.437 22.7971 105.437ZM22.7971 102.524C26.5559 102.524 29.6042 105.541 29.6042 109.262C29.6042 112.982 26.5559 116 22.7971 116C19.0383 116 15.9901 112.982 15.9901 109.262C15.9901 105.541 19.0383 102.524 22.7971 102.524ZM38.7166 105.437C39.8831 105.437 40.9804 105.958 41.5971 106.957L43.8331 104.819C42.5854 103.412 40.7557 102.524 38.7166 102.524C34.9578 102.524 31.9095 105.541 31.9095 109.262C31.9095 112.982 34.9578 116 38.7166 116C40.803 116 42.67 115.07 43.9188 113.606L41.5953 111.622C40.975 112.589 39.861 113.086 38.7166 113.086C36.83 113.086 35.2992 111.373 35.2992 109.262C35.2992 107.151 36.83 105.437 38.7166 105.437ZM61.2173 110.146H70.9948C71.0317 109.857 71.0509 109.562 71.0509 109.262C71.0509 105.541 68.1107 102.524 64.4852 102.524C60.8598 102.524 57.9196 105.541 57.9196 109.262C57.9196 112.982 60.8598 116 64.4852 116C66.5528 116 68.9301 115.65 70.1337 114.116L68.6388 111.959C67.8889 113.034 65.905 113.333 64.6391 113.333C62.9658 113.333 61.5653 111.969 61.2173 110.146ZM61.2918 108.051C61.7358 106.394 63.067 105.19 64.639 105.19C66.2111 105.19 67.5424 106.394 67.9864 108.051H61.2918ZM45.8931 102.831H56.4154V105.723H52.7789V115.692H49.5297V105.723H45.8931V102.831ZM76.4291 109.062L71.9998 102.831H75.9126L78.5636 106.813L81.2146 102.831H85.1274L80.6981 109.062L85.328 115.692H81.5468L78.5636 111.387L75.5804 115.692H71.7992L76.4291 109.062ZM78.5636 107.415L78.5483 107.44L78.5636 107.441L78.5788 107.44L78.5636 107.415ZM8.08595 101.142C9.49716 101.142 10.6416 102.283 10.6416 103.691C10.6416 105.098 9.49716 106.239 8.08595 106.239H3.7785V101.142H8.08595ZM0.209473 98.116H8.82061C11.9076 98.116 14.4111 100.612 14.4111 103.691C14.4111 106.769 11.9076 109.265 8.82061 109.265H3.7785V115.692H0.209473V98.116Z" fill="white"/>
<path fill-rule="evenodd" clip-rule="evenodd" d="M10.897 10.8664H39.389L28.492 0H0V28.4121L10.897 39.2785V10.8664ZM45.2721 10.8664H73.7641V39.2785L84.6611 28.4121V0H56.169L45.2721 10.8664ZM73.7641 45.1449V73.557H45.2721L56.169 84.4234H84.6611V56.0113L73.7641 45.1449ZM39.389 73.557H10.897V45.1449L0 56.0113V84.4234H28.492L39.389 73.557Z" fill="white"/>
<path d="M87.7021 0.459717H90.4283V1.04581H89.3592V4.30076H88.7712V1.04581H87.7021V0.459717ZM92.8768 3.31931L94.1536 0.459951H94.8081V4.30068H94.2201V1.77701L93.0897 4.30068H92.6638L91.5334 1.77701V4.30068H90.9455V0.459951H91.5999L92.8768 3.31931Z" fill="white"/>
</g>
<defs>
<clipPath id="clip0_2045_10434">
<rect width="95" height="116" fill="white"/>
</clipPath>
</defs>
</svg>
