<svg width="264" height="41" viewBox="0 0 264 41" fill="none" xmlns="http://www.w3.org/2000/svg">
<g clip-path="url(#clip0_2045_10441)">
<path d="M118.07 12.5362L123.582 8.45828H105.134V32.8899H123.582V28.812H110.405V22.574H121.665V18.4961H110.405V12.5362H118.07ZM91.2003 17.9761H84.8107V12.5362H95.0341L100.544 8.45828H79.5424V32.8899H90.5228C96.6713 32.8899 100.223 30.094 100.223 25.2129C100.223 20.5351 97.0305 17.9761 91.2003 17.9761ZM90.3227 28.8145H84.8132V22.0514H90.3227C93.6766 22.0514 95.2342 23.1713 95.2342 25.4497C95.2342 27.7307 93.556 28.8094 90.3227 28.8094V28.8145ZM138.512 8.45828H128.491V32.8899H133.762V25.9749H138.553C144.943 25.9749 148.933 22.6152 148.933 17.2166C148.933 11.818 144.94 8.45828 138.512 8.45828ZM138.394 21.897H133.723V12.5337H138.394C141.786 12.5337 143.624 14.2148 143.624 17.214C143.624 20.2133 141.786 21.8918 138.394 21.8918V21.897ZM70.5199 27.6123C69.1225 28.3732 67.5576 28.7715 65.9676 28.7708C61.2152 28.7708 57.7817 25.3725 57.7817 20.6947C57.7817 16.0169 61.2152 12.616 65.9676 12.616C67.6861 12.5905 69.3668 13.1234 70.7586 14.135L74.5513 11.3365L74.3127 11.0971C72.1161 9.13794 69.1625 8.13647 65.8085 8.13647C62.1749 8.13647 58.862 9.37736 56.4653 11.6171C55.273 12.769 54.3312 14.1559 53.6992 15.6907C53.0673 17.2254 52.7588 18.8748 52.7932 20.5351C52.7709 22.2174 53.0844 23.8871 53.715 25.4461C54.3457 27.005 55.2808 28.4217 56.4653 29.6126C58.9799 31.9828 62.3177 33.2742 65.7675 33.2117C69.5602 33.2117 72.8756 31.8936 75.1107 29.4942L71.7157 26.9712L70.5199 27.6123ZM212.296 8.4969V32.9311H217.566V22.9345H228.788V32.9311H234.059V8.49947H228.788V18.5347H217.569V8.4969H212.296ZM203.235 32.9311H208.782L198.482 8.49947H193.132L182.631 32.9311H187.943L190.058 28.0139H201.238L203.235 32.9311ZM191.654 23.9359L195.726 14.1375L199.56 23.9359H191.654ZM245.876 23.058H249.148L257.213 32.8925H264L253.223 20.257L262.643 8.46086H256.612L248.788 18.9389H245.873V8.46086H240.605V32.8925H245.873L245.876 23.058ZM165.22 18.0147V12.5774H178.995V8.4969H159.952V32.9311H170.93C177.078 32.9311 180.632 30.1327 180.632 25.2541C180.632 20.5737 177.437 18.0147 171.61 18.0147H165.22ZM165.22 28.8531V22.0952H170.732C174.086 22.0952 175.641 23.2151 175.641 25.4935C175.641 27.7744 174.004 28.8918 170.732 28.8918H165.22V28.8531ZM36.3033 8.29867C37.2604 9.53698 38.0585 10.8989 38.7385 12.3354L20.2907 25.9749L12.5461 21.0937V15.2549L20.2522 20.0948L36.3033 8.29867Z" fill="#21A038"/>
<path d="M4.68084 20.6946C4.68084 20.414 4.68084 20.1746 4.7219 19.894L0.0515578 19.6545C0.0515578 19.9738 0.0104999 20.3342 0.0104999 20.6534C0.00937439 23.3219 0.534349 25.9643 1.5552 28.4284C2.57606 30.8925 4.07263 33.1297 5.95877 35.0112L9.27163 31.6901C7.81461 30.2568 6.65792 28.5457 5.86954 26.6574C5.08116 24.7692 4.67701 22.7418 4.68084 20.6946Z" fill="url(#paint0_linear_2045_10441)"/>
<path d="M20.252 5.09601C20.5317 5.09601 20.7704 5.09601 21.0501 5.1372L21.2913 0.459406C20.9705 0.459406 20.6113 0.418215 20.2905 0.418215C17.6283 0.417024 14.992 0.942843 12.5327 1.96555C10.0734 2.98825 7.83943 4.48773 5.95874 6.37809L9.2716 9.69656C10.7071 8.23861 12.417 7.08118 14.3019 6.29144C16.1868 5.50169 18.2093 5.09536 20.252 5.09601Z" fill="url(#paint1_linear_2045_10441)"/>
<path d="M20.252 36.2907C19.9723 36.2907 19.7337 36.2907 19.454 36.2496L19.2153 40.9299C19.5335 40.9299 19.8928 40.9685 20.211 40.9685C22.8734 40.9704 25.5101 40.4452 27.9699 39.4229C30.4296 38.4006 32.6641 36.9014 34.5453 35.0112L31.2325 31.6902C29.8048 33.1587 28.0965 34.323 26.2098 35.1135C24.323 35.9041 22.2967 36.3044 20.252 36.2907Z" fill="url(#paint2_linear_2045_10441)"/>
<path d="M29.036 7.81982L32.9879 4.89781C29.3812 1.97734 24.887 0.382967 20.2522 0.379639V5.05743C23.3891 5.07721 26.4483 6.04096 29.036 7.81982Z" fill="url(#paint3_linear_2045_10441)"/>
<path d="M40.5348 20.6947C40.5348 19.4564 40.4142 18.2541 40.2166 17.0544L35.8644 20.2957V20.6947C35.866 22.877 35.4078 25.0349 34.5198 27.027C33.6318 29.0191 32.334 30.8004 30.7117 32.254L33.868 35.7296C35.9666 33.8315 37.6444 31.5124 38.7929 28.9224C39.9413 26.3325 40.5347 23.5294 40.5348 20.6947Z" fill="#21A038"/>
<path d="M20.252 36.2934C18.0753 36.2952 15.9227 35.8364 13.9346 34.947C11.9466 34.0576 10.168 32.7575 8.71476 31.1316L5.24023 34.293C7.13527 36.4007 9.45127 38.0845 12.0376 39.2351C14.624 40.3857 17.4228 40.9772 20.252 40.9712V36.2934Z" fill="url(#paint4_linear_2045_10441)"/>
<path d="M9.83107 9.13789L6.67731 5.65723C4.57462 7.55251 2.89402 9.87143 1.74526 12.4626C0.596489 15.0537 0.00538233 17.8588 0.0105314 20.6946H4.68087C4.68313 18.5133 5.14285 16.3568 6.03015 14.3653C6.91744 12.3738 8.21247 10.5919 9.83107 9.13532V9.13789Z" fill="url(#paint5_linear_2045_10441)"/>
</g>
<defs>
<linearGradient id="paint0_linear_2045_10441" x1="562.215" y1="254.961" x2="313.865" y2="144.478" gradientUnits="userSpaceOnUse">
<stop offset="0.144" stop-color="#F2E913"/>
<stop offset="0.304" stop-color="#E7E518"/>
<stop offset="0.582" stop-color="#CADB26"/>
<stop offset="0.891" stop-color="#A3CD39"/>
</linearGradient>
<linearGradient id="paint1_linear_2045_10441" x1="142.956" y1="86.6079" x2="1495.47" y2="7.26909" gradientUnits="userSpaceOnUse">
<stop offset="0.059" stop-color="#0FA8E0"/>
<stop offset="0.538" stop-color="#0099F9"/>
<stop offset="0.923" stop-color="#0291EB"/>
</linearGradient>
<linearGradient id="paint2_linear_2045_10441" x1="-8.99963" y1="115.819" x2="1522.36" y2="62.5526" gradientUnits="userSpaceOnUse">
<stop offset="0.123" stop-color="#A3CD39"/>
<stop offset="0.285" stop-color="#86C339"/>
<stop offset="0.869" stop-color="#21A038"/>
</linearGradient>
<linearGradient id="paint3_linear_2045_10441" x1="-78.4869" y1="48.0293" x2="1229.92" y2="110.15" gradientUnits="userSpaceOnUse">
<stop offset="0.057" stop-color="#0291EB"/>
<stop offset="0.79" stop-color="#0C8ACB"/>
</linearGradient>
<linearGradient id="paint4_linear_2045_10441" x1="127.433" y1="93.5093" x2="1551.11" y2="175.373" gradientUnits="userSpaceOnUse">
<stop offset="0.132" stop-color="#F2E913"/>
<stop offset="0.298" stop-color="#EBE716"/>
<stop offset="0.531" stop-color="#D9E01F"/>
<stop offset="0.802" stop-color="#BBD62D"/>
<stop offset="0.983" stop-color="#A3CD39"/>
</linearGradient>
<linearGradient id="paint5_linear_2045_10441" x1="365.639" y1="253.937" x2="657.149" y2="137.23" gradientUnits="userSpaceOnUse">
<stop offset="0.07" stop-color="#A3CD39"/>
<stop offset="0.26" stop-color="#81C55F"/>
<stop offset="0.922" stop-color="#0FA8E0"/>
</linearGradient>
<clipPath id="clip0_2045_10441">
<rect width="264" height="41" fill="white"/>
</clipPath>
</defs>
</svg>
