<svg width="33" height="32" viewBox="0 0 33 32" fill="none" xmlns="http://www.w3.org/2000/svg">
<g clip-path="url(#clip0_1637_13232)">
<path d="M16.5 32C25.3366 32 32.5 24.8366 32.5 16C32.5 7.16344 25.3366 0 16.5 0C7.66344 0 0.5 7.16344 0.5 16C0.5 24.8366 7.66344 32 16.5 32Z" fill="#585D61"/>
<path fill-rule="evenodd" clip-rule="evenodd" d="M7.74138 15.8309C12.4057 13.7988 15.516 12.459 17.0722 11.8117C21.5156 9.96359 22.4389 9.64255 23.0407 9.63195C23.173 9.62962 23.469 9.66242 23.6607 9.81797C23.8226 9.94931 23.8671 10.1267 23.8884 10.2513C23.9097 10.3758 23.9362 10.6595 23.9152 10.8811C23.6744 13.4111 22.6325 19.5507 22.1024 22.3843C21.8781 23.5833 21.4365 23.9853 21.009 24.0247C20.0798 24.1102 19.3743 23.4106 18.4743 22.8207C17.0661 21.8976 16.2706 21.323 14.9037 20.4222C13.324 19.3812 14.348 18.8091 15.2483 17.874C15.4839 17.6293 19.5778 13.9056 19.657 13.5678C19.6669 13.5256 19.6761 13.3681 19.5825 13.285C19.489 13.2018 19.3509 13.2302 19.2513 13.2529C19.11 13.2849 16.8604 14.7718 12.5024 17.7136C11.8638 18.1521 11.2855 18.3657 10.7672 18.3545C10.196 18.3422 9.09704 18.0315 8.28011 17.766C7.27811 17.4403 6.48174 17.2681 6.55108 16.7149C6.5872 16.4268 6.98397 16.1321 7.74138 15.8309Z" fill="white"/>
</g>
<defs>
<clipPath id="clip0_1637_13232">
<rect width="32" height="32" fill="white" transform="translate(0.5)"/>
</clipPath>
</defs>
</svg>
