<?xml version="1.0" standalone="no"?>
<!DOCTYPE svg PUBLIC "-//W3C//DTD SVG 20010904//EN"
 "http://www.w3.org/TR/2001/REC-SVG-20010904/DTD/svg10.dtd">
<svg version="1.0" xmlns="http://www.w3.org/2000/svg"
 width="300.000000pt" height="300.000000pt" viewBox="0 0 300.000000 300.000000"
 preserveAspectRatio="xMidYMid meet">
<metadata>
Created by potrace 1.14, written by Peter Selinger 2001-2017
</metadata>
<g transform="translate(0.000000,300.000000) scale(0.100000,-0.100000)"
fill="#000000" stroke="none">
<path d="M12 2988 c-17 -17 -17 -2959 0 -2976 17 -17 2959 -17 2976 0 17 17
17 2959 0 2976 -17 17 -2959 17 -2976 0z m2438 -1483 l0 -815 -190 0 -190 0 0
320 0 320 -565 0 -565 0 0 -320 0 -320 -190 0 -190 0 0 568 c0 624 0 624 62
752 38 79 156 201 238 245 122 65 102 64 883 64 l707 1 0 -815z"/>
<path d="M1055 1926 c-34 -15 -92 -76 -106 -113 -5 -13 -9 -42 -9 -64 l0 -39
560 0 560 0 0 115 0 115 -487 0 c-381 -1 -495 -4 -518 -14z"/>
</g>
</svg>
