<svg width="117" height="19" viewBox="0 0 117 19" fill="none" xmlns="http://www.w3.org/2000/svg">
<g clip-path="url(#clip0_1421_6556)">
<path fill-rule="evenodd" clip-rule="evenodd" d="M112.681 6.93177V6.42627C112.681 5.90739 112.476 5.4429 112.065 5.03286C111.655 4.62271 111.191 4.41764 110.672 4.41764H94.8689V13.9596C94.8689 14.4604 94.7117 15.0522 94.4012 15.7351C94.0909 16.418 93.5859 17.0182 92.8864 17.5312C92.1871 18.0445 91.3015 18.3011 90.2254 18.3011C89.1203 18.3011 88.3008 18.1479 87.767 17.8457C87.2332 17.5437 86.6621 16.9849 86.0577 16.1655L77.615 5.98022C77.2722 5.52695 77.001 5.14423 76.3899 5.14423C76.0286 5.14423 75.6739 5.42756 75.6739 5.81069V17.73H70.7571V3.89437C70.7571 3.65019 70.8357 3.31918 70.9929 2.90532C71.3906 1.84912 72.2275 0.979338 73.2237 0.467483C73.8239 0.157239 74.5522 0 75.3965 0C76.4726 0 77.3169 0.177798 77.9253 0.538045C78.5337 0.898084 79.0262 1.29118 79.3987 1.70928L87.8994 11.7165C88.2748 12.2243 88.5692 12.5648 89.2362 12.5648C89.8692 12.5648 89.8778 12.0832 89.8778 11.5716V2.42725C90.2159 1.01963 91.4133 0.245363 92.9271 0.372333C98.8153 0.372333 104.751 0.400486 110.672 0.400486C112.312 0.400486 113.727 0.995145 114.915 2.18312C116.103 3.3711 116.698 4.78682 116.698 6.42627V17.7506H112.681V10.9489H100.724V17.7506H96.7511C96.7511 14.7288 96.7234 11.7438 96.7234 8.74607C97.0992 7.65278 97.8435 7.00724 99.0572 6.93177H112.681Z" fill="white"/>
<path fill-rule="evenodd" clip-rule="evenodd" d="M50.9235 11.239C50.9235 11.7997 51.1451 12.3017 51.5883 12.7448C52.0314 13.188 52.5334 13.4096 53.0939 13.4096H63.8438L63.8469 0.381836H68.1402C68.1402 6.26252 68.1458 11.8775 68.1458 17.7506H53.0937C51.322 17.7506 49.7921 17.1077 48.5086 15.8242C47.225 14.5408 46.5809 13.0106 46.5823 11.239L46.5907 0.389586H50.9317C50.9317 6.34362 50.9235 8.93921 50.9235 11.239Z" fill="white"/>
<path fill-rule="evenodd" clip-rule="evenodd" d="M4.0171 6.932V6.4265C4.0171 5.90762 4.22223 5.44313 4.63237 5.03308C5.04236 4.62294 5.5069 4.41787 6.02578 4.41787C16.5755 4.41787 27.119 4.4203 37.6685 4.4203C37.9374 4.4203 38.19 4.46162 38.4341 4.54029C38.6742 4.62294 38.8728 4.75135 39.0217 4.92931C39.1709 5.10716 39.2453 5.34726 39.2453 5.64521C39.2453 6.05504 39.0921 6.37779 38.7859 6.60962C38.4797 6.83721 38.1652 6.95312 37.8505 6.95312H24.4104C23.3226 7.20515 22.5057 7.77032 22.1362 8.87895V17.7508H27.177V11.1249H33.6582L39.8291 17.7508H46.39L40.2882 11.1249C40.3876 11.0918 40.7187 11.042 41.2816 10.9799C41.8445 10.9138 42.341 10.8021 42.7756 10.6407C43.2102 10.4792 43.5826 10.1853 43.893 9.75906C44.2035 9.33693 44.3607 8.74103 44.3607 7.97115V3.63389C44.3607 2.73581 44.042 1.97016 43.4048 1.32871C42.7631 0.691275 42.0017 0.372559 41.1119 0.372559C29.3915 0.372559 17.7412 0.400711 6.02578 0.400711C4.38598 0.400711 2.97056 0.995371 1.78263 2.18335C0.594659 3.37132 0 4.78705 0 6.4265V17.7508H4.0171V10.9492H15.9737V17.7714H19.9467C19.9467 14.7427 19.9744 11.7508 19.9744 8.7463C19.5987 7.65301 18.8543 7.00747 17.6407 6.932H15.9737H4.0171Z" fill="white"/>
</g>
<defs>
<clipPath id="clip0_1421_6556">
<rect width="117" height="18.2086" fill="white"/>
</clipPath>
</defs>
</svg>
