<svg width="41" height="40" viewBox="0 0 41 40" fill="none" xmlns="http://www.w3.org/2000/svg">
<path opacity="0.3" d="M32.2701 34.9489C29.0129 38.2061 20.6714 35.1455 13.6388 28.1129C6.60621 21.0803 3.54565 12.7388 6.80284 9.48163L8.94745 7.33701C10.428 5.85647 12.8676 5.89561 14.3964 7.42443L17.7182 10.7462C19.247 12.2751 19.2862 14.7146 17.8056 16.1952L17.345 16.6558C16.5456 17.4552 16.4674 18.7447 17.2102 19.6448C17.9266 20.513 18.699 21.3778 19.5365 22.2153C20.3739 23.0527 21.2387 23.8251 22.1069 24.5415C23.007 25.2843 24.2965 25.2061 25.0959 24.4067L25.5565 23.9461C27.0371 22.4655 29.4766 22.5047 31.0055 24.0335L34.3273 27.3553C35.8561 28.8841 35.8952 31.3237 34.4147 32.8043L32.2701 34.9489Z" fill="white"/>
<path d="M29.8789 16.2513C29.4723 15.2593 28.8663 14.3299 28.0608 13.5245C27.3008 12.7645 26.4305 12.182 25.5014 11.7771" stroke="white" stroke-width="2.5" stroke-linecap="round"/>
<path d="M25.5032 6.10568C27.7276 6.91152 29.8146 8.20609 31.598 9.98941C33.426 11.8175 34.7405 13.9647 35.5414 16.2519" stroke="white" stroke-width="2.5" stroke-linecap="round"/>
</svg>
