<svg preserveAspectRatio="none" width="100%" height="100%" overflow="visible" style="display: block;" viewBox="0 0 80.0001 80" fill="none" xmlns="http://www.w3.org/2000/svg">
<g id="Frame 1171278814">
<rect x="0.5" y="0.5" width="79.0001" height="79" rx="4.5" stroke="var(--stroke-0, #C2C5C6)"/>
<path id="Union" d="M18 24H26V21H31V24H35V28.999L35.001 29L25 39.332V58H32V63H13V58H20V39.4688L19.9668 39.502L9 29V24H13V21H18V24ZM20 32.4648V29H16.5352L20 32.4648ZM25 32.2676L28.2676 29H25V32.2676Z" fill="var(--fill-0, black)"/>
<path id="Union_2" d="M56 24H64V21H69V24H73V28.999L73.001 29L63 39.332V58H70V63H51V58H58V39.4688L57.9668 39.502L47 29V24H51V21H56V24ZM58 32.4648V29H54.5352L58 32.4648ZM63 32.2676L66.2676 29H63V32.2676Z" fill="var(--fill-0, black)"/>
<path id="Vector 63" d="M28 38.5C32 41.1667 41.3 44.9 54.5 38.5" stroke="var(--stroke-0, black)" stroke-width="4"/>
</g>
</svg>
