<svg preserveAspectRatio="none" width="100%" height="100%" overflow="visible" style="display: block;" viewBox="0 0 40 40" fill="none" xmlns="http://www.w3.org/2000/svg">
<g id="Group">
<path id="Vector" d="M29.408 36L26.7093 17.9947H34.0053V13.9947H26.1013L25.2053 8H38.0053V4H24.5973L24 0H16L15.4027 4H2.00533V8H14.8053L13.9093 13.9947H6.00533V17.9947H13.3013L10.6027 36H0V40H10.0053H30.0053H40V36H29.408ZM22.0587 14.016L22.6667 18.0053L23.0507 20.5973L22.6667 20.9813L18.6773 16.992L22.0053 13.664L22.0587 14.016ZM18.848 8L19.4453 4H20.5653L21.1627 8L21.2693 8.74667L18.2827 11.7333L18.848 8ZM16.9067 20.8747L19.84 23.7973L15.872 27.7653L16.9067 20.8747ZM14.6453 36L14.88 34.4213L22.6667 26.624L24.1813 28.128L25.3653 36H14.6453Z" fill="var(--fill-0, black)"/>
</g>
</svg>
