<svg preserveAspectRatio="none" width="100%" height="100%" overflow="visible" style="display: block;" viewBox="0 0 43 43" fill="none" xmlns="http://www.w3.org/2000/svg">
<path id="Vector" d="M0 27.3202C0.503691 29.1841 1.23588 30.9494 2.17573 32.5849C4.46044 31.6503 7.18137 32.1072 9.0351 33.9607C10.8889 35.8091 11.3458 38.5349 10.4112 40.8142C12.0469 41.7591 13.8123 42.486 15.6765 42.9948C16.2996 41.4995 17.4939 40.3054 18.9686 39.6564C19.7475 39.3189 20.599 39.1164 21.4974 39.1164C22.4061 39.1164 23.2577 39.3137 24.0262 39.6564C25.5061 40.3105 26.6952 41.5047 27.3235 43C29.1825 42.4912 30.9479 41.7643 32.5888 40.8194C31.649 38.5349 32.1111 35.8143 33.9649 33.9556C35.8186 32.1072 38.5396 31.6503 40.8191 32.5797C41.7641 30.9494 42.4963 29.1841 43 27.3202C40.7204 26.3701 39.1315 24.1167 39.1315 21.5C39.1315 18.878 40.7256 16.6299 43 15.6746C42.4963 13.8159 41.7641 12.0506 40.8243 10.4099C40.0558 10.7266 39.2405 10.8876 38.4305 10.8876C36.8104 10.8876 35.1955 10.2697 33.9649 9.03923C32.1111 7.1805 31.649 4.4599 32.5888 2.17544C30.9479 1.23568 29.1825 0.508796 27.3235 0C26.3732 2.27407 24.1196 3.8732 21.4974 3.8732C18.8752 3.8732 16.6372 2.27407 15.6765 0C13.8175 0.508796 12.0469 1.23568 10.4112 2.17544C11.3458 4.4599 10.8889 7.1805 9.0351 9.03404C7.80447 10.2645 6.18957 10.8824 4.56947 10.8824C3.75428 10.8824 2.94417 10.7214 2.17573 10.4099C1.23588 12.0506 0.503691 13.8159 1.07929e-07 15.6746C2.27437 16.6299 3.87369 18.878 3.87369 21.5C3.87369 24.1167 2.27437 26.3701 0 27.3202ZM21.4974 8.87309C28.4711 8.87309 34.131 14.522 34.131 21.5C34.131 28.4728 28.4711 34.1269 21.4974 34.1269C14.5237 34.1269 8.87419 28.4728 8.87419 21.5C8.87419 14.522 14.5237 8.87309 21.4974 8.87309Z" fill="var(--fill-0, black)"/>
</svg>
