<svg preserveAspectRatio="none" width="100%" height="100%" overflow="visible" style="display: block;" viewBox="0 0 41 39.9977" fill="none" xmlns="http://www.w3.org/2000/svg">
<g id="Group">
<path id="Vector" d="M35.6191 11.1891C35.4619 10.3247 34.7089 9.69641 33.8303 9.69641H26.4326C26.8991 8.78656 27.1641 7.75711 27.1641 6.66625C27.1641 2.99047 24.1736 0 20.4978 0C16.8221 0 13.8316 2.99047 13.8316 6.66625C13.8316 7.75711 14.0967 8.78648 14.5631 9.69641H7.16527C6.28668 9.69641 5.53371 10.3248 5.37652 11.1891C3.62908 20.8002 0 39.9977 0 39.9977C0 39.9977 1.77785 39.9977 2.31715 39.9977H38.6786H38.681C39.6852 39.9977 41 39.9977 41 39.9977C41 39.9977 37.2693 20.2655 35.6191 11.1891ZM20.4978 9.69641C18.8271 9.69641 17.4677 8.33711 17.4677 6.66625C17.4677 4.99539 18.827 3.63609 20.4978 3.63609C22.1687 3.63609 23.528 4.99539 23.528 6.66625C23.528 8.33711 22.1686 9.69641 20.4978 9.69641Z" fill="var(--fill-0, black)"/>
</g>
</svg>
