<svg width="50" height="65" viewBox="0 0 50 65" fill="none" xmlns="http://www.w3.org/2000/svg">
<path d="M44.3837 64.5H5.05302C3.74707 64.5 2.4946 63.984 1.57115 63.0655C0.647695 62.147 0.128906 60.9013 0.128906 59.6023V5.45383C0.128906 4.81066 0.256272 4.17378 0.503732 3.57957C0.751192 2.98535 1.1139 2.44544 1.57115 1.99065C2.02839 1.53586 2.57122 1.1751 3.16864 0.928966C3.76606 0.682834 4.40638 0.556152 5.05302 0.556152H29.9936L49.3079 20.3502V59.6023C49.3079 60.9013 48.7891 62.147 47.8656 63.0655C46.9422 63.984 45.6897 64.5 44.3837 64.5Z" fill="#EAEBEF"/>
<path d="M0.128906 44.8511H49.3079V59.616C49.3079 62.4995 46.9703 64.837 44.0868 64.837H5.34996C2.46645 64.837 0.128906 62.4995 0.128906 59.616V44.8511Z" fill="#232C32"/>
<path d="M29.9766 0.552246V15.8767C29.9789 17.0901 30.462 18.2531 31.3199 19.1111C32.1779 19.9691 33.341 20.4521 34.5543 20.4545H49.2921L29.9766 0.552246Z" fill="#F6F7F9"/>
<g opacity="0.2">
<path d="M30.1836 17.2188C30.1927 18.379 30.5977 19.5013 31.3316 20.4001C32.0654 21.2988 33.0842 21.92 34.2191 22.161C34.3771 22.205 34.5374 22.2406 34.6992 22.2676C36.628 22.6143 49.2947 24.8632 49.2947 24.5787V20.4543H34.5569C34.5569 20.4543 30.8769 20.3299 30.1836 17.2188Z" fill="black" fill-opacity="0.3"/>
</g>
<path d="M49.2926 20.4556C48.8073 20.5278 48.3165 20.5576 47.8259 20.5444L43.8348 20.6244H37.9148H34.4126C33.754 20.6062 33.1062 20.4524 32.5097 20.1725C31.9132 19.8926 31.3809 19.4927 30.946 18.9978C30.5152 18.5035 30.1878 17.9279 29.9833 17.305C29.7787 16.6821 29.701 16.0245 29.7548 15.3711C29.7548 14.1622 29.7548 12.9889 29.7548 11.8778C29.7548 9.66445 29.7548 7.66444 29.8082 5.95778C29.8615 4.25111 29.8615 2.98889 29.8793 1.96667C29.8721 1.47624 29.9018 0.985967 29.9682 0.5C30.0405 0.985368 30.0702 1.47612 30.0571 1.96667C30.0571 2.98889 30.1015 4.33111 30.1371 5.95778C30.1726 7.58444 30.1371 9.66445 30.1371 11.8778C30.1371 12.9889 30.1371 14.1622 30.1371 15.3711C30.0862 15.9696 30.156 16.5722 30.3423 17.1433C30.5285 17.7143 30.8275 18.2422 31.2215 18.6956C31.617 19.1416 32.0991 19.5025 32.6386 19.7562C33.178 20.0098 33.7635 20.151 34.3593 20.1711H37.8437L43.7637 20.2244L47.7549 20.2956C48.2709 20.3082 48.7851 20.3617 49.2926 20.4556Z" fill="white"/>
<path d="M15.5857 58.5H12.9457V51.5H15.5857C16.2191 51.5 16.7957 51.6467 17.3157 51.94C17.8424 52.2333 18.2624 52.65 18.5757 53.19C18.8891 53.7233 19.0457 54.3233 19.0457 54.99C19.0457 55.6633 18.8891 56.27 18.5757 56.81C18.2624 57.3433 17.8424 57.76 17.3157 58.06C16.7957 58.3533 16.2191 58.5 15.5857 58.5ZM15.4857 52.42H13.8957V57.58H15.4857C16.2124 57.58 16.8257 57.3367 17.3257 56.85C17.8324 56.3633 18.0857 55.7433 18.0857 54.99C18.0857 54.2367 17.8324 53.62 17.3257 53.14C16.8257 52.66 16.2124 52.42 15.4857 52.42ZM27.9087 51.5H28.9587L27.0187 58.5H25.7087L24.0887 52.92L22.5587 58.5H21.2387L19.2287 51.5H20.2787L21.9287 57.35L23.5887 51.5H24.6087L26.3187 57.35L27.9087 51.5ZM30.8034 53.02C30.2967 53.5333 30.0434 54.19 30.0434 54.99C30.0434 55.79 30.2967 56.4467 30.8034 56.96C31.3167 57.4733 31.9401 57.73 32.6734 57.73C33.3467 57.73 33.9234 57.5267 34.4034 57.12C34.8901 56.7067 35.1667 56.1733 35.2334 55.52H32.3834V54.64H36.2334C36.2467 54.7467 36.2534 54.91 36.2534 55.13C36.2534 55.8033 36.0901 56.4133 35.7634 56.96C35.4434 57.5 35.0101 57.9233 34.4634 58.23C33.9234 58.53 33.3267 58.68 32.6734 58.68C32.1867 58.68 31.7234 58.59 31.2834 58.41C30.8434 58.2233 30.4634 57.97 30.1434 57.65C29.8234 57.33 29.5667 56.94 29.3734 56.48C29.1867 56.0133 29.0934 55.5167 29.0934 54.99C29.0934 54.4633 29.1867 53.97 29.3734 53.51C29.5667 53.0433 29.8234 52.65 30.1434 52.33C30.4634 52.01 30.8434 51.76 31.2834 51.58C31.7234 51.3933 32.1867 51.3 32.6734 51.3C33.3667 51.3 34.0001 51.4867 34.5734 51.86C35.1467 52.2267 35.5801 52.7267 35.8734 53.36L35.0134 53.78C34.8001 53.3067 34.4834 52.9333 34.0634 52.66C33.6434 52.3867 33.1801 52.25 32.6734 52.25C31.9401 52.25 31.3167 52.5067 30.8034 53.02Z" fill="white"/>
</svg>
