<svg width="50" height="65" viewBox="0 0 50 65" fill="none" xmlns="http://www.w3.org/2000/svg">
<path d="M44.3837 64.5H5.05302C3.74707 64.5 2.4946 63.984 1.57115 63.0655C0.647695 62.147 0.128906 60.9013 0.128906 59.6023V5.45383C0.128906 4.81066 0.256272 4.17378 0.503732 3.57957C0.751192 2.98535 1.1139 2.44544 1.57115 1.99065C2.02839 1.53586 2.57122 1.1751 3.16864 0.928966C3.76606 0.682834 4.40638 0.556152 5.05302 0.556152H29.9936L49.3079 20.3502V59.6023C49.3079 60.9013 48.7891 62.147 47.8656 63.0655C46.9422 63.984 45.6897 64.5 44.3837 64.5Z" fill="#EAEBEF"/>
<path d="M0.128906 44.8511H49.3079V59.616C49.3079 62.4995 46.9703 64.837 44.0868 64.837H5.34996C2.46645 64.837 0.128906 62.4995 0.128906 59.616V44.8511Z" fill="#232C32"/>
<path d="M29.9766 0.552246V15.8767C29.9789 17.0901 30.462 18.2531 31.3199 19.1111C32.1779 19.9691 33.341 20.4521 34.5543 20.4545H49.2921L29.9766 0.552246Z" fill="#F6F7F9"/>
<g opacity="0.2">
<path d="M30.1836 17.2188C30.1927 18.379 30.5977 19.5013 31.3316 20.4001C32.0654 21.2988 33.0842 21.92 34.2191 22.161C34.3771 22.205 34.5374 22.2406 34.6992 22.2676C36.628 22.6143 49.2947 24.8632 49.2947 24.5787V20.4543H34.5569C34.5569 20.4543 30.8769 20.3299 30.1836 17.2188Z" fill="black" fill-opacity="0.3"/>
</g>
<path d="M49.2926 20.4556C48.8073 20.5278 48.3165 20.5576 47.8259 20.5444L43.8348 20.6244H37.9148H34.4126C33.754 20.6062 33.1062 20.4524 32.5097 20.1725C31.9132 19.8926 31.3809 19.4927 30.946 18.9978C30.5152 18.5035 30.1878 17.9279 29.9833 17.305C29.7787 16.6821 29.701 16.0245 29.7548 15.3711C29.7548 14.1622 29.7548 12.9889 29.7548 11.8778C29.7548 9.66445 29.7548 7.66444 29.8082 5.95778C29.8615 4.25111 29.8615 2.98889 29.8793 1.96667C29.8721 1.47624 29.9018 0.985967 29.9682 0.5C30.0405 0.985368 30.0702 1.47612 30.0571 1.96667C30.0571 2.98889 30.1015 4.33111 30.1371 5.95778C30.1726 7.58444 30.1371 9.66445 30.1371 11.8778C30.1371 12.9889 30.1371 14.1622 30.1371 15.3711C30.0862 15.9696 30.156 16.5722 30.3423 17.1433C30.5285 17.7143 30.8275 18.2422 31.2215 18.6956C31.617 19.1416 32.0991 19.5025 32.6386 19.7562C33.178 20.0098 33.7635 20.151 34.3593 20.1711H37.8437L43.7637 20.2244L47.7549 20.2956C48.2709 20.3082 48.7851 20.3617 49.2926 20.4556Z" fill="white"/>
<path d="M14.7282 56.78L15.6082 56.44C15.7348 56.8333 15.9382 57.1367 16.2182 57.35C16.5048 57.5567 16.8548 57.66 17.2682 57.66C17.7615 57.66 18.1648 57.5067 18.4782 57.2C18.7915 56.8867 18.9482 56.4533 18.9482 55.9V51.5H19.8982V56C19.8982 56.7533 19.6448 57.3767 19.1382 57.87C18.6315 58.3633 18.0082 58.61 17.2682 58.61C16.6482 58.61 16.1148 58.45 15.6682 58.13C15.2215 57.8033 14.9082 57.3533 14.7282 56.78ZM23.8919 52.43H21.9719V55.28H23.8919C24.3519 55.28 24.7352 55.1433 25.0419 54.87C25.3486 54.59 25.5019 54.2433 25.5019 53.83C25.5019 53.43 25.3486 53.0967 25.0419 52.83C24.7352 52.5633 24.3519 52.43 23.8919 52.43ZM23.8919 56.2H21.9719V58.5H21.0219V51.5H23.9919C24.6986 51.5 25.2852 51.7233 25.7519 52.17C26.2186 52.61 26.4519 53.1633 26.4519 53.83C26.4519 54.49 26.2019 55.05 25.7019 55.51C25.2086 55.97 24.6052 56.2 23.8919 56.2ZM28.821 53.02C28.3143 53.5333 28.061 54.19 28.061 54.99C28.061 55.79 28.3143 56.4467 28.821 56.96C29.3343 57.4733 29.9576 57.73 30.691 57.73C31.3643 57.73 31.941 57.5267 32.421 57.12C32.9076 56.7067 33.1843 56.1733 33.251 55.52H30.401V54.64H34.251C34.2643 54.7467 34.271 54.91 34.271 55.13C34.271 55.8033 34.1076 56.4133 33.781 56.96C33.461 57.5 33.0276 57.9233 32.481 58.23C31.941 58.53 31.3443 58.68 30.691 58.68C30.2043 58.68 29.741 58.59 29.301 58.41C28.861 58.2233 28.481 57.97 28.161 57.65C27.841 57.33 27.5843 56.94 27.391 56.48C27.2043 56.0133 27.111 55.5167 27.111 54.99C27.111 54.4633 27.2043 53.97 27.391 53.51C27.5843 53.0433 27.841 52.65 28.161 52.33C28.481 52.01 28.861 51.76 29.301 51.58C29.741 51.3933 30.2043 51.3 30.691 51.3C31.3843 51.3 32.0176 51.4867 32.591 51.86C33.1643 52.2267 33.5976 52.7267 33.891 53.36L33.031 53.78C32.8176 53.3067 32.501 52.9333 32.081 52.66C31.661 52.3867 31.1976 52.25 30.691 52.25C29.9576 52.25 29.3343 52.5067 28.821 53.02Z" fill="white"/>
</svg>
