<svg width="64" height="65" viewBox="0 0 64 65" fill="none" xmlns="http://www.w3.org/2000/svg">
<path d="M51.3837 64.5H12.053C10.7471 64.5 9.4946 63.984 8.57115 63.0655C7.64769 62.147 7.12891 60.9013 7.12891 59.6023V5.45383C7.12891 4.81066 7.25627 4.17378 7.50373 3.57957C7.75119 2.98535 8.1139 2.44544 8.57115 1.99065C9.02839 1.53586 9.57122 1.1751 10.1686 0.928966C10.7661 0.682834 11.4064 0.556152 12.053 0.556152H36.9936L56.3079 20.3502V59.6023C56.3079 60.9013 55.7891 62.147 54.8656 63.0655C53.9422 63.984 52.6897 64.5 51.3837 64.5Z" fill="#EAEBEF"/>
<path d="M7.12891 44.8511H56.3079V59.616C56.3079 62.4995 53.9703 64.837 51.0868 64.837H12.35C9.46645 64.837 7.12891 62.4995 7.12891 59.616V44.8511Z" fill="#232C32"/>
<path d="M36.9766 0.552246V15.8767C36.9789 17.0901 37.462 18.2531 38.3199 19.1111C39.1779 19.9691 40.341 20.4521 41.5543 20.4545H56.2921L36.9766 0.552246Z" fill="#F6F7F9"/>
<g opacity="0.2">
<path d="M37.1836 17.2188C37.1927 18.379 37.5977 19.5013 38.3316 20.4001C39.0654 21.2988 40.0842 21.92 41.2191 22.161C41.3771 22.205 41.5374 22.2406 41.6992 22.2676C43.628 22.6143 56.2947 24.8632 56.2947 24.5787V20.4543H41.5569C41.5569 20.4543 37.8769 20.3299 37.1836 17.2188Z" fill="black" fill-opacity="0.3"/>
</g>
<path d="M56.2926 20.4556C55.8073 20.5278 55.3165 20.5576 54.8259 20.5444L50.8348 20.6244H44.9148H41.4126C40.754 20.6062 40.1062 20.4524 39.5097 20.1725C38.9132 19.8926 38.3809 19.4927 37.946 18.9978C37.5152 18.5035 37.1878 17.9279 36.9833 17.305C36.7787 16.6821 36.701 16.0245 36.7548 15.3711C36.7548 14.1622 36.7548 12.9889 36.7548 11.8778C36.7548 9.66445 36.7548 7.66444 36.8082 5.95778C36.8615 4.25111 36.8615 2.98889 36.8793 1.96667C36.8721 1.47624 36.9018 0.985967 36.9682 0.5C37.0405 0.985368 37.0702 1.47612 37.0571 1.96667C37.0571 2.98889 37.1015 4.33111 37.1371 5.95778C37.1726 7.58444 37.1371 9.66445 37.1371 11.8778C37.1371 12.9889 37.1371 14.1622 37.1371 15.3711C37.0862 15.9696 37.156 16.5722 37.3423 17.1433C37.5285 17.7143 37.8275 18.2422 38.2215 18.6956C38.617 19.1416 39.0991 19.5025 39.6386 19.7562C40.178 20.0098 40.7635 20.151 41.3593 20.1711H44.8437L50.7637 20.2244L54.7549 20.2956C55.2709 20.3082 55.7851 20.3617 56.2926 20.4556Z" fill="white"/>
<path d="M21.7282 56.78L22.6082 56.44C22.7348 56.8333 22.9382 57.1367 23.2182 57.35C23.5048 57.5567 23.8548 57.66 24.2682 57.66C24.7615 57.66 25.1648 57.5067 25.4782 57.2C25.7915 56.8867 25.9482 56.4533 25.9482 55.9V51.5H26.8982V56C26.8982 56.7533 26.6448 57.3767 26.1382 57.87C25.6315 58.3633 25.0082 58.61 24.2682 58.61C23.6482 58.61 23.1148 58.45 22.6682 58.13C22.2215 57.8033 21.9082 57.3533 21.7282 56.78ZM30.8919 52.43H28.9719V55.28H30.8919C31.3519 55.28 31.7352 55.1433 32.0419 54.87C32.3486 54.59 32.5019 54.2433 32.5019 53.83C32.5019 53.43 32.3486 53.0967 32.0419 52.83C31.7352 52.5633 31.3519 52.43 30.8919 52.43ZM30.8919 56.2H28.9719V58.5H28.0219V51.5H30.9919C31.6986 51.5 32.2852 51.7233 32.7519 52.17C33.2186 52.61 33.4519 53.1633 33.4519 53.83C33.4519 54.49 33.2019 55.05 32.7019 55.51C32.2086 55.97 31.6052 56.2 30.8919 56.2ZM35.821 53.02C35.3143 53.5333 35.061 54.19 35.061 54.99C35.061 55.79 35.3143 56.4467 35.821 56.96C36.3343 57.4733 36.9576 57.73 37.691 57.73C38.3643 57.73 38.941 57.5267 39.421 57.12C39.9076 56.7067 40.1843 56.1733 40.251 55.52H37.401V54.64H41.251C41.2643 54.7467 41.271 54.91 41.271 55.13C41.271 55.8033 41.1076 56.4133 40.781 56.96C40.461 57.5 40.0276 57.9233 39.481 58.23C38.941 58.53 38.3443 58.68 37.691 58.68C37.2043 58.68 36.741 58.59 36.301 58.41C35.861 58.2233 35.481 57.97 35.161 57.65C34.841 57.33 34.5843 56.94 34.391 56.48C34.2043 56.0133 34.111 55.5167 34.111 54.99C34.111 54.4633 34.2043 53.97 34.391 53.51C34.5843 53.0433 34.841 52.65 35.161 52.33C35.481 52.01 35.861 51.76 36.301 51.58C36.741 51.3933 37.2043 51.3 37.691 51.3C38.3843 51.3 39.0176 51.4867 39.591 51.86C40.1643 52.2267 40.5976 52.7267 40.891 53.36L40.031 53.78C39.8176 53.3067 39.501 52.9333 39.081 52.66C38.661 52.3867 38.1976 52.25 37.691 52.25C36.9576 52.25 36.3343 52.5067 35.821 53.02Z" fill="white"/>
</svg>
