<svg preserveAspectRatio="none" width="100%" height="100%" overflow="visible" style="display: block;" viewBox="0 0 17.3204 14.6359" fill="none" xmlns="http://www.w3.org/2000/svg">
<g id="Group">
<path id="Vector" d="M5.13975 8.35136C5.38 8.07576 5.18429 7.64544 4.81866 7.64544H3.72395C3.71682 7.53712 3.71283 7.42797 3.71283 7.31789C3.71283 4.59039 5.93178 2.37144 8.65926 2.37144C9.96999 2.37144 11.1631 2.88405 12.0491 3.7191L13.5927 1.91324C12.2415 0.677095 10.5025 0 8.65926 0C6.70459 0 4.86692 0.761212 3.48475 2.14335C2.10261 3.52552 1.3414 5.36319 1.3414 7.31786C1.3414 7.42746 1.34414 7.53662 1.3489 7.64541H0.426822C0.0611873 7.64541 -0.134557 8.07572 0.10573 8.35133L2.18581 10.7373L2.62272 11.2385L4.19138 9.43911L5.13975 8.35136Z" fill="var(--fill-0, white)"/>
<path id="Vector_2" d="M17.2147 6.95939L15.6633 5.17978L14.6977 4.07227L13.3192 5.65353L12.1807 6.95939C11.9405 7.23499 12.1362 7.66531 12.5018 7.66531H13.5953C13.4164 10.2313 11.2719 12.2644 8.6612 12.2644C7.52158 12.2644 6.47088 11.8768 5.63359 11.2268L4.08984 13.0328C5.3831 14.0714 6.97866 14.6359 8.66124 14.6359C10.6159 14.6359 12.4536 13.8747 13.8357 12.4925C15.1357 11.1925 15.8862 9.48956 15.9709 7.66534H16.8937C17.2593 7.66531 17.455 7.23499 17.2147 6.95939Z" fill="var(--fill-0, white)"/>
</g>
</svg>
