<svg xmlns="http://www.w3.org/2000/svg" width="65" height="65" viewBox="0 0 65 65" fill="none">
    <path
        d="M16.0723 49.2048H54.2178C54.3346 49.2048 54.4477 49.1882 54.5565 49.1622C54.5651 49.1622 54.5723 49.1637 54.581 49.1637C55.3953 49.1637 56.0568 48.5029 56.0568 47.688V5.97584C56.057 5.16117 55.3953 4.5 54.581 4.5H54.2207H18.4327H16.0744C12.1461 4.5 8.95085 7.696 8.95085 11.6232C8.95085 11.6758 8.96122 11.7258 8.96634 11.7767C8.96122 15.4044 8.91623 48.7386 8.96122 53.1207C8.95841 53.2064 8.94793 53.2901 8.94793 53.3766C8.94793 57.1528 11.9047 60.2442 15.6239 60.4778C15.6985 60.4893 15.7716 60.5001 15.8491 60.5001H54.5809C55.3952 60.5001 56.0567 59.8393 56.0567 59.0243V53.469C56.0567 52.6546 55.3951 51.9932 54.5809 51.9932C53.7667 51.9932 53.105 52.6547 53.105 53.469V57.5486H16.0723C13.8296 57.5486 11.9988 55.768 11.9089 53.5476C11.9111 53.5079 11.9183 53.4705 11.9175 53.4301C11.9161 53.3653 11.9139 53.2645 11.9124 53.1303C12.0414 50.9451 13.8552 49.2048 16.0723 49.2048ZM17.0786 11.6232C17.0786 10.8085 17.7398 10.1473 18.5545 10.1473C19.3691 10.1473 20.0303 10.8085 20.0303 11.6232V41.6014C20.0303 42.4157 19.3691 43.0772 18.5545 43.0772C17.7398 43.0772 17.0786 42.4156 17.0786 41.6014V11.6232Z"
        fill="black" />
</svg>