<svg xmlns="http://www.w3.org/2000/svg" width="65" height="63" viewBox="0 0 65 63" fill="none">
    <path fill-rule="evenodd" clip-rule="evenodd"
        d="M55.4395 49.3955L49.8242 59.1221H38.5928L32.9766 49.3955L38.5928 39.6689H49.8242L55.4395 49.3955ZM43.9688 45.332C41.7251 45.332 39.9062 47.1509 39.9062 49.3945C39.9062 51.6382 41.7251 53.457 43.9688 53.457C46.2124 53.457 48.0312 51.6382 48.0312 49.3945C48.0312 47.1509 46.2124 45.332 43.9688 45.332Z"
        fill="black" />
    <path
        d="M10.5074 3.10742H14.4926M35.3674 3.10742H30.8129M30.8129 3.10742V6.7585M30.8129 3.10742H14.4926M30.8129 6.7585L22.6528 15.0215M30.8129 6.7585V23.2844M14.4926 23.2844L22.6528 15.0215M14.4926 23.2844L22.6528 32.1239M14.4926 23.2844V6.7585M14.4926 23.2844V40.9633M22.6528 15.0215L14.4926 6.7585M22.6528 15.0215L30.8129 23.2844M14.4926 6.7585V3.10742M30.8129 23.2844L22.6528 32.1239M22.6528 50.1871L30.8129 40.9633V23.2844M22.6528 32.1239L14.4926 40.9633M22.6528 32.1239L30.8129 40.9633M14.4926 40.9633L22.6528 50.1871M14.4926 40.9633V59.0265M22.6528 50.1871L14.4926 59.0265M22.6528 50.1871L30.8129 59.0265H14.4926M14.4926 59.0265H9.55859"
        stroke="black" stroke-width="3.82353" />
</svg>