<svg width="41" height="40" viewBox="0 0 41 40" fill="none" xmlns="http://www.w3.org/2000/svg">
<path opacity="0.3" fill-rule="evenodd" clip-rule="evenodd" d="M20.4974 2.9165C12.4556 2.9165 5.91406 9.37119 5.91406 17.3609C5.91406 22.3302 8.81193 27.2346 11.8831 30.8046C13.4373 32.6113 15.0869 34.1365 16.542 35.2212C17.2683 35.7627 17.9665 36.2096 18.5966 36.5269C19.1874 36.8244 19.862 37.0832 20.4974 37.0832C21.1328 37.0832 21.8074 36.8244 22.3982 36.5269C23.0283 36.2096 23.7265 35.7627 24.4528 35.2212C25.9079 34.1365 27.5575 32.6113 29.1117 30.8046C32.1829 27.2346 35.0807 22.3302 35.0807 17.3609C35.0807 9.37119 28.5392 2.9165 20.4974 2.9165Z" fill="white"/>
<circle cx="5" cy="5" r="5" transform="matrix(-1 0 0 1 25.5 11.6667)" fill="white"/>
</svg>
