<svg width="64" height="65" viewBox="0 0 64 65" fill="none" xmlns="http://www.w3.org/2000/svg">
<path d="M51.3837 64.5H12.053C10.7471 64.5 9.4946 63.984 8.57115 63.0655C7.64769 62.147 7.12891 60.9013 7.12891 59.6023V5.45383C7.12891 4.81066 7.25627 4.17378 7.50373 3.57957C7.75119 2.98535 8.1139 2.44544 8.57115 1.99065C9.02839 1.53586 9.57122 1.1751 10.1686 0.928966C10.7661 0.682834 11.4064 0.556152 12.053 0.556152H36.9936L56.3079 20.3502V59.6023C56.3079 60.9013 55.7891 62.147 54.8656 63.0655C53.9422 63.984 52.6897 64.5 51.3837 64.5Z" fill="#EAEBEF"/>
<path d="M7.12891 44.8511H56.3079V59.616C56.3079 62.4995 53.9703 64.837 51.0868 64.837H12.35C9.46645 64.837 7.12891 62.4995 7.12891 59.616V44.8511Z" fill="#232C32"/>
<path d="M36.9766 0.552246V15.8767C36.9789 17.0901 37.462 18.2531 38.3199 19.1111C39.1779 19.9691 40.341 20.4521 41.5543 20.4545H56.2921L36.9766 0.552246Z" fill="#F6F7F9"/>
<g opacity="0.2">
<path d="M37.1836 17.2188C37.1927 18.379 37.5977 19.5013 38.3316 20.4001C39.0654 21.2988 40.0842 21.92 41.2191 22.161C41.3771 22.205 41.5374 22.2406 41.6992 22.2676C43.628 22.6143 56.2947 24.8632 56.2947 24.5787V20.4543H41.5569C41.5569 20.4543 37.8769 20.3299 37.1836 17.2188Z" fill="black" fill-opacity="0.3"/>
</g>
<path d="M56.2926 20.4556C55.8073 20.5278 55.3165 20.5576 54.8259 20.5444L50.8348 20.6244H44.9148H41.4126C40.754 20.6062 40.1062 20.4524 39.5097 20.1725C38.9132 19.8926 38.3809 19.4927 37.946 18.9978C37.5152 18.5035 37.1878 17.9279 36.9833 17.305C36.7787 16.6821 36.701 16.0245 36.7548 15.3711C36.7548 14.1622 36.7548 12.9889 36.7548 11.8778C36.7548 9.66445 36.7548 7.66444 36.8082 5.95778C36.8615 4.25111 36.8615 2.98889 36.8793 1.96667C36.8721 1.47624 36.9018 0.985967 36.9682 0.5C37.0405 0.985368 37.0702 1.47612 37.0571 1.96667C37.0571 2.98889 37.1015 4.33111 37.1371 5.95778C37.1726 7.58444 37.1371 9.66445 37.1371 11.8778C37.1371 12.9889 37.1371 14.1622 37.1371 15.3711C37.0862 15.9696 37.156 16.5722 37.3423 17.1433C37.5285 17.7143 37.8275 18.2422 38.2215 18.6956C38.617 19.1416 39.0991 19.5025 39.6386 19.7562C40.178 20.0098 40.7635 20.151 41.3593 20.1711H44.8437L50.7637 20.2244L54.7549 20.2956C55.2709 20.3082 55.7851 20.3617 56.2926 20.4556Z" fill="white"/>
<path d="M25.4525 52.43H23.5325V55.28H25.4525C25.9125 55.28 26.2958 55.1433 26.6025 54.87C26.9091 54.59 27.0625 54.2433 27.0625 53.83C27.0625 53.43 26.9091 53.0967 26.6025 52.83C26.2958 52.5633 25.9125 52.43 25.4525 52.43ZM25.4525 56.2H23.5325V58.5H22.5825V51.5H25.5525C26.2591 51.5 26.8458 51.7233 27.3125 52.17C27.7791 52.61 28.0125 53.1633 28.0125 53.83C28.0125 54.49 27.7625 55.05 27.2625 55.51C26.7691 55.97 26.1658 56.2 25.4525 56.2ZM31.5115 58.5H28.8715V51.5H31.5115C32.1449 51.5 32.7215 51.6467 33.2415 51.94C33.7682 52.2333 34.1882 52.65 34.5015 53.19C34.8149 53.7233 34.9715 54.3233 34.9715 54.99C34.9715 55.6633 34.8149 56.27 34.5015 56.81C34.1882 57.3433 33.7682 57.76 33.2415 58.06C32.7215 58.3533 32.1449 58.5 31.5115 58.5ZM31.4115 52.42H29.8215V57.58H31.4115C32.1382 57.58 32.7515 57.3367 33.2515 56.85C33.7582 56.3633 34.0115 55.7433 34.0115 54.99C34.0115 54.2367 33.7582 53.62 33.2515 53.14C32.7515 52.66 32.1382 52.42 31.4115 52.42ZM36.8332 54.52H40.3732V55.46H36.8332V58.5H35.8832V51.5H40.6132V52.43H36.8332V54.52Z" fill="white"/>
</svg>
