<svg width="50" height="65" viewBox="0 0 50 65" fill="none" xmlns="http://www.w3.org/2000/svg">
<path d="M44.3837 64.5H5.05302C3.74707 64.5 2.4946 63.984 1.57115 63.0655C0.647695 62.147 0.128906 60.9013 0.128906 59.6023V5.45383C0.128906 4.81066 0.256272 4.17378 0.503732 3.57957C0.751192 2.98535 1.1139 2.44544 1.57115 1.99065C2.02839 1.53586 2.57122 1.1751 3.16864 0.928966C3.76606 0.682834 4.40638 0.556152 5.05302 0.556152H29.9936L49.3079 20.3502V59.6023C49.3079 60.9013 48.7891 62.147 47.8656 63.0655C46.9422 63.984 45.6897 64.5 44.3837 64.5Z" fill="#EAEBEF"/>
<path d="M0.128906 44.8511H49.3079V59.616C49.3079 62.4995 46.9703 64.837 44.0868 64.837H5.34996C2.46645 64.837 0.128906 62.4995 0.128906 59.616V44.8511Z" fill="#232C32"/>
<path d="M29.9766 0.552246V15.8767C29.9789 17.0901 30.462 18.2531 31.3199 19.1111C32.1779 19.9691 33.341 20.4521 34.5543 20.4545H49.2921L29.9766 0.552246Z" fill="#F6F7F9"/>
<g opacity="0.2">
<path d="M30.1836 17.2188C30.1927 18.379 30.5977 19.5013 31.3316 20.4001C32.0654 21.2988 33.0842 21.92 34.2191 22.161C34.3771 22.205 34.5374 22.2406 34.6992 22.2676C36.628 22.6143 49.2947 24.8632 49.2947 24.5787V20.4543H34.5569C34.5569 20.4543 30.8769 20.3299 30.1836 17.2188Z" fill="black" fill-opacity="0.3"/>
</g>
<path d="M49.2926 20.4556C48.8073 20.5278 48.3165 20.5576 47.8259 20.5444L43.8348 20.6244H37.9148H34.4126C33.754 20.6062 33.1062 20.4524 32.5097 20.1725C31.9132 19.8926 31.3809 19.4927 30.946 18.9978C30.5152 18.5035 30.1878 17.9279 29.9833 17.305C29.7787 16.6821 29.701 16.0245 29.7548 15.3711C29.7548 14.1622 29.7548 12.9889 29.7548 11.8778C29.7548 9.66445 29.7548 7.66444 29.8082 5.95778C29.8615 4.25111 29.8615 2.98889 29.8793 1.96667C29.8721 1.47624 29.9018 0.985967 29.9682 0.5C30.0405 0.985368 30.0702 1.47612 30.0571 1.96667C30.0571 2.98889 30.1015 4.33111 30.1371 5.95778C30.1726 7.58444 30.1371 9.66445 30.1371 11.8778C30.1371 12.9889 30.1371 14.1622 30.1371 15.3711C30.0862 15.9696 30.156 16.5722 30.3423 17.1433C30.5285 17.7143 30.8275 18.2422 31.2215 18.6956C31.617 19.1416 32.0991 19.5025 32.6386 19.7562C33.178 20.0098 33.7635 20.151 34.3593 20.1711H37.8437L43.7637 20.2244L47.7549 20.2956C48.2709 20.3082 48.7851 20.3617 49.2926 20.4556Z" fill="white"/>
<path d="M18.4525 52.43H16.5325V55.28H18.4525C18.9125 55.28 19.2958 55.1433 19.6025 54.87C19.9091 54.59 20.0625 54.2433 20.0625 53.83C20.0625 53.43 19.9091 53.0967 19.6025 52.83C19.2958 52.5633 18.9125 52.43 18.4525 52.43ZM18.4525 56.2H16.5325V58.5H15.5825V51.5H18.5525C19.2591 51.5 19.8458 51.7233 20.3125 52.17C20.7791 52.61 21.0125 53.1633 21.0125 53.83C21.0125 54.49 20.7625 55.05 20.2625 55.51C19.7691 55.97 19.1658 56.2 18.4525 56.2ZM24.5115 58.5H21.8715V51.5H24.5115C25.1449 51.5 25.7215 51.6467 26.2415 51.94C26.7682 52.2333 27.1882 52.65 27.5015 53.19C27.8149 53.7233 27.9715 54.3233 27.9715 54.99C27.9715 55.6633 27.8149 56.27 27.5015 56.81C27.1882 57.3433 26.7682 57.76 26.2415 58.06C25.7215 58.3533 25.1449 58.5 24.5115 58.5ZM24.4115 52.42H22.8215V57.58H24.4115C25.1382 57.58 25.7515 57.3367 26.2515 56.85C26.7582 56.3633 27.0115 55.7433 27.0115 54.99C27.0115 54.2367 26.7582 53.62 26.2515 53.14C25.7515 52.66 25.1382 52.42 24.4115 52.42ZM29.8332 54.52H33.3732V55.46H29.8332V58.5H28.8832V51.5H33.6132V52.43H29.8332V54.52Z" fill="white"/>
</svg>
