<svg width="70" height="84" viewBox="0 0 70 84" fill="none" xmlns="http://www.w3.org/2000/svg">
<path d="M70 34.6354C70 58.3821 42 83.125 35 83.125C28 83.125 0 58.3821 0 34.6354C0 15.5068 15.67 0 35 0C54.33 0 70 15.5068 70 34.6354Z" fill="#232C32"/>
<g clip-path="url(#clip0_4333_10246)">
<path fill-rule="evenodd" clip-rule="evenodd" d="M59.0418 35.9484V35.7136C59.0418 35.4726 58.9489 35.2569 58.7631 35.0664C58.5774 34.8759 58.3669 34.7806 58.1319 34.7806H50.9732V39.2127C50.9732 39.4452 50.902 39.7202 50.7614 40.0373C50.6208 40.3545 50.392 40.6333 50.0752 40.8716C49.7584 41.11 49.3572 41.2292 48.8698 41.2292C48.3692 41.2292 47.9979 41.158 47.7561 41.0177C47.5143 40.8774 47.2556 40.6178 46.9818 40.2372L43.1574 35.5064C43.0021 35.2959 42.8792 35.1181 42.6024 35.1181C42.4388 35.1181 42.278 35.2497 42.278 35.4277V40.9639H40.0508V34.5376C40.0508 34.4242 40.0864 34.2704 40.1576 34.0782C40.3378 33.5876 40.7169 33.1836 41.1682 32.9459C41.44 32.8018 41.7699 32.7288 42.1524 32.7288C42.6398 32.7288 43.0223 32.8113 43.2979 32.9787C43.5735 33.1459 43.7966 33.3285 43.9654 33.5227L47.8161 38.1708C47.9862 38.4066 48.1195 38.5648 48.4217 38.5648C48.7084 38.5648 48.7123 38.3411 48.7123 38.1035V33.8562C48.8655 33.2024 49.4079 32.8427 50.0936 32.9017C52.7609 32.9017 55.4497 32.9148 58.1319 32.9148C58.8747 32.9148 59.5159 33.191 60.054 33.7428C60.5922 34.2946 60.8616 34.9521 60.8616 35.7136V40.9735H59.0418V37.8143H53.6256V40.9735H51.8258C51.8258 39.5699 51.8133 38.1834 51.8133 36.7911C51.9835 36.2833 52.3207 35.9834 52.8705 35.9484H59.0418Z" fill="white"/>
<path fill-rule="evenodd" clip-rule="evenodd" d="M31.0681 37.9489C31.0681 38.2093 31.1685 38.4425 31.3693 38.6483C31.57 38.8542 31.7974 38.9571 32.0513 38.9571H36.9209L36.9223 32.906H38.8671C38.8671 35.6374 38.8697 38.2455 38.8697 40.9734H32.0512C31.2486 40.9734 30.5556 40.6748 29.9742 40.0786C29.3927 39.4825 29.1009 38.7717 29.1016 37.9489L29.1054 32.9096H31.0718C31.0718 35.6751 31.0681 36.8807 31.0681 37.9489Z" fill="white"/>
<path fill-rule="evenodd" clip-rule="evenodd" d="M9.81971 35.9483V35.7135C9.81971 35.4725 9.91263 35.2568 10.0984 35.0663C10.2841 34.8758 10.4946 34.7806 10.7296 34.7806C15.5085 34.7806 20.2847 34.7817 25.0635 34.7817C25.1853 34.7817 25.2997 34.8009 25.4103 34.8374C25.5191 34.8758 25.609 34.9355 25.6765 35.0181C25.7441 35.1007 25.7778 35.2122 25.7778 35.3506C25.7778 35.541 25.7084 35.6909 25.5697 35.7986C25.431 35.9043 25.2885 35.9581 25.146 35.9581H19.0577C18.5649 36.0752 18.1949 36.3377 18.0275 36.8526V40.9734H20.311V37.8958H23.2469L26.0423 40.9734H29.0143L26.2502 37.8958C26.2952 37.8804 26.4452 37.8573 26.7002 37.8285C26.9552 37.7978 27.1801 37.7459 27.377 37.6709C27.5739 37.5959 27.7425 37.4594 27.8832 37.2614C28.0238 37.0653 28.095 36.7886 28.095 36.431V34.4164C28.095 33.9993 27.9507 33.6437 27.662 33.3457C27.3713 33.0496 27.0264 32.9016 26.6233 32.9016C21.3141 32.9016 16.0366 32.9147 10.7296 32.9147C9.98681 32.9147 9.34564 33.1909 8.80752 33.7427C8.26938 34.2945 8 34.952 8 35.7135V40.9734H9.81971V37.8142H15.236V40.9829H17.0357C17.0357 39.5762 17.0482 38.1865 17.0482 36.791C16.878 36.2832 16.5408 35.9834 15.9911 35.9483H15.236H9.81971Z" fill="white"/>
</g>
<defs>
<clipPath id="clip0_4333_10246">
<rect width="53" height="8.45745" fill="white" transform="translate(8 32.729)"/>
</clipPath>
</defs>
</svg>
