<svg width="64" height="65" viewBox="0 0 64 65" fill="none" xmlns="http://www.w3.org/2000/svg">
<path d="M51.3837 64.5H12.053C10.7471 64.5 9.4946 63.984 8.57115 63.0655C7.64769 62.147 7.12891 60.9013 7.12891 59.6023V5.45383C7.12891 4.81066 7.25627 4.17378 7.50373 3.57957C7.75119 2.98535 8.1139 2.44544 8.57115 1.99065C9.02839 1.53586 9.57122 1.1751 10.1686 0.928966C10.7661 0.682834 11.4064 0.556152 12.053 0.556152H36.9936L56.3079 20.3502V59.6023C56.3079 60.9013 55.7891 62.147 54.8656 63.0655C53.9422 63.984 52.6897 64.5 51.3837 64.5Z" fill="#EAEBEF"/>
<path d="M7.12891 44.8511H56.3079V59.616C56.3079 62.4995 53.9703 64.837 51.0868 64.837H12.35C9.46645 64.837 7.12891 62.4995 7.12891 59.616V44.8511Z" fill="#232C32"/>
<path d="M36.9766 0.552246V15.8767C36.9789 17.0901 37.462 18.2531 38.3199 19.1111C39.1779 19.9691 40.341 20.4521 41.5543 20.4545H56.2921L36.9766 0.552246Z" fill="#F6F7F9"/>
<g opacity="0.2">
<path d="M37.1836 17.2188C37.1927 18.379 37.5977 19.5013 38.3316 20.4001C39.0654 21.2988 40.0842 21.92 41.2191 22.161C41.3771 22.205 41.5374 22.2406 41.6992 22.2676C43.628 22.6143 56.2947 24.8632 56.2947 24.5787V20.4543H41.5569C41.5569 20.4543 37.8769 20.3299 37.1836 17.2188Z" fill="black" fill-opacity="0.3"/>
</g>
<path d="M56.2926 20.4556C55.8073 20.5278 55.3165 20.5576 54.8259 20.5444L50.8348 20.6244H44.9148H41.4126C40.754 20.6062 40.1062 20.4524 39.5097 20.1725C38.9132 19.8926 38.3809 19.4927 37.946 18.9978C37.5152 18.5035 37.1878 17.9279 36.9833 17.305C36.7787 16.6821 36.701 16.0245 36.7548 15.3711C36.7548 14.1622 36.7548 12.9889 36.7548 11.8778C36.7548 9.66445 36.7548 7.66444 36.8082 5.95778C36.8615 4.25111 36.8615 2.98889 36.8793 1.96667C36.8721 1.47624 36.9018 0.985967 36.9682 0.5C37.0405 0.985368 37.0702 1.47612 37.0571 1.96667C37.0571 2.98889 37.1015 4.33111 37.1371 5.95778C37.1726 7.58444 37.1371 9.66445 37.1371 11.8778C37.1371 12.9889 37.1371 14.1622 37.1371 15.3711C37.0862 15.9696 37.156 16.5722 37.3423 17.1433C37.5285 17.7143 37.8275 18.2422 38.2215 18.6956C38.617 19.1416 39.0991 19.5025 39.6386 19.7562C40.178 20.0098 40.7635 20.151 41.3593 20.1711H44.8437L50.7637 20.2244L54.7549 20.2956C55.2709 20.3082 55.7851 20.3617 56.2926 20.4556Z" fill="white"/>
<path d="M23.9124 52.43H21.9924V55.28H23.9124C24.3724 55.28 24.7558 55.1433 25.0624 54.87C25.3691 54.59 25.5224 54.2433 25.5224 53.83C25.5224 53.43 25.3691 53.0967 25.0624 52.83C24.7558 52.5633 24.3724 52.43 23.9124 52.43ZM23.9124 56.2H21.9924V58.5H21.0424V51.5H24.0124C24.7191 51.5 25.3058 51.7233 25.7724 52.17C26.2391 52.61 26.4724 53.1633 26.4724 53.83C26.4724 54.49 26.2224 55.05 25.7224 55.51C25.2291 55.97 24.6258 56.2 23.9124 56.2ZM27.3315 58.5V51.5H28.4515L32.1315 57.02V51.5H33.0815V58.5H31.9715L28.2815 52.92V58.5H27.3315ZM35.7067 53.02C35.2001 53.5333 34.9467 54.19 34.9467 54.99C34.9467 55.79 35.2001 56.4467 35.7067 56.96C36.2201 57.4733 36.8434 57.73 37.5767 57.73C38.2501 57.73 38.8267 57.5267 39.3067 57.12C39.7934 56.7067 40.0701 56.1733 40.1367 55.52H37.2867V54.64H41.1367C41.1501 54.7467 41.1567 54.91 41.1567 55.13C41.1567 55.8033 40.9934 56.4133 40.6667 56.96C40.3467 57.5 39.9134 57.9233 39.3667 58.23C38.8267 58.53 38.2301 58.68 37.5767 58.68C37.0901 58.68 36.6267 58.59 36.1867 58.41C35.7467 58.2233 35.3667 57.97 35.0467 57.65C34.7267 57.33 34.4701 56.94 34.2767 56.48C34.0901 56.0133 33.9967 55.5167 33.9967 54.99C33.9967 54.4633 34.0901 53.97 34.2767 53.51C34.4701 53.0433 34.7267 52.65 35.0467 52.33C35.3667 52.01 35.7467 51.76 36.1867 51.58C36.6267 51.3933 37.0901 51.3 37.5767 51.3C38.2701 51.3 38.9034 51.4867 39.4767 51.86C40.0501 52.2267 40.4834 52.7267 40.7767 53.36L39.9167 53.78C39.7034 53.3067 39.3867 52.9333 38.9667 52.66C38.5467 52.3867 38.0834 52.25 37.5767 52.25C36.8434 52.25 36.2201 52.5067 35.7067 53.02Z" fill="white"/>
</svg>
