<svg width="50" height="65" viewBox="0 0 50 65" fill="none" xmlns="http://www.w3.org/2000/svg">
<path d="M44.3837 64.5H5.05302C3.74707 64.5 2.4946 63.984 1.57115 63.0655C0.647695 62.147 0.128906 60.9013 0.128906 59.6023V5.45383C0.128906 4.81066 0.256272 4.17378 0.503732 3.57957C0.751192 2.98535 1.1139 2.44544 1.57115 1.99065C2.02839 1.53586 2.57122 1.1751 3.16864 0.928966C3.76606 0.682834 4.40638 0.556152 5.05302 0.556152H29.9936L49.3079 20.3502V59.6023C49.3079 60.9013 48.7891 62.147 47.8656 63.0655C46.9422 63.984 45.6897 64.5 44.3837 64.5Z" fill="#EAEBEF"/>
<path d="M0.128906 44.8511H49.3079V59.616C49.3079 62.4995 46.9703 64.837 44.0868 64.837H5.34996C2.46645 64.837 0.128906 62.4995 0.128906 59.616V44.8511Z" fill="#232C32"/>
<path d="M29.9766 0.552246V15.8767C29.9789 17.0901 30.462 18.2531 31.3199 19.1111C32.1779 19.9691 33.341 20.4521 34.5543 20.4545H49.2921L29.9766 0.552246Z" fill="#F6F7F9"/>
<g opacity="0.2">
<path d="M30.1836 17.2188C30.1927 18.379 30.5977 19.5013 31.3316 20.4001C32.0654 21.2988 33.0842 21.92 34.2191 22.161C34.3771 22.205 34.5374 22.2406 34.6992 22.2676C36.628 22.6143 49.2947 24.8632 49.2947 24.5787V20.4543H34.5569C34.5569 20.4543 30.8769 20.3299 30.1836 17.2188Z" fill="black" fill-opacity="0.3"/>
</g>
<path d="M49.2926 20.4556C48.8073 20.5278 48.3165 20.5576 47.8259 20.5444L43.8348 20.6244H37.9148H34.4126C33.754 20.6062 33.1062 20.4524 32.5097 20.1725C31.9132 19.8926 31.3809 19.4927 30.946 18.9978C30.5152 18.5035 30.1878 17.9279 29.9833 17.305C29.7787 16.6821 29.701 16.0245 29.7548 15.3711C29.7548 14.1622 29.7548 12.9889 29.7548 11.8778C29.7548 9.66445 29.7548 7.66444 29.8082 5.95778C29.8615 4.25111 29.8615 2.98889 29.8793 1.96667C29.8721 1.47624 29.9018 0.985967 29.9682 0.5C30.0405 0.985368 30.0702 1.47612 30.0571 1.96667C30.0571 2.98889 30.1015 4.33111 30.1371 5.95778C30.1726 7.58444 30.1371 9.66445 30.1371 11.8778C30.1371 12.9889 30.1371 14.1622 30.1371 15.3711C30.0862 15.9696 30.156 16.5722 30.3423 17.1433C30.5285 17.7143 30.8275 18.2422 31.2215 18.6956C31.617 19.1416 32.0991 19.5025 32.6386 19.7562C33.178 20.0098 33.7635 20.151 34.3593 20.1711H37.8437L43.7637 20.2244L47.7549 20.2956C48.2709 20.3082 48.7851 20.3617 49.2926 20.4556Z" fill="white"/>
<path d="M16.9124 52.43H14.9924V55.28H16.9124C17.3724 55.28 17.7558 55.1433 18.0624 54.87C18.3691 54.59 18.5224 54.2433 18.5224 53.83C18.5224 53.43 18.3691 53.0967 18.0624 52.83C17.7558 52.5633 17.3724 52.43 16.9124 52.43ZM16.9124 56.2H14.9924V58.5H14.0424V51.5H17.0124C17.7191 51.5 18.3058 51.7233 18.7724 52.17C19.2391 52.61 19.4724 53.1633 19.4724 53.83C19.4724 54.49 19.2224 55.05 18.7224 55.51C18.2291 55.97 17.6258 56.2 16.9124 56.2ZM20.3315 58.5V51.5H21.4515L25.1315 57.02V51.5H26.0815V58.5H24.9715L21.2815 52.92V58.5H20.3315ZM28.7067 53.02C28.2001 53.5333 27.9467 54.19 27.9467 54.99C27.9467 55.79 28.2001 56.4467 28.7067 56.96C29.2201 57.4733 29.8434 57.73 30.5767 57.73C31.2501 57.73 31.8267 57.5267 32.3067 57.12C32.7934 56.7067 33.0701 56.1733 33.1367 55.52H30.2867V54.64H34.1367C34.1501 54.7467 34.1567 54.91 34.1567 55.13C34.1567 55.8033 33.9934 56.4133 33.6667 56.96C33.3467 57.5 32.9134 57.9233 32.3667 58.23C31.8267 58.53 31.2301 58.68 30.5767 58.68C30.0901 58.68 29.6267 58.59 29.1867 58.41C28.7467 58.2233 28.3667 57.97 28.0467 57.65C27.7267 57.33 27.4701 56.94 27.2767 56.48C27.0901 56.0133 26.9967 55.5167 26.9967 54.99C26.9967 54.4633 27.0901 53.97 27.2767 53.51C27.4701 53.0433 27.7267 52.65 28.0467 52.33C28.3667 52.01 28.7467 51.76 29.1867 51.58C29.6267 51.3933 30.0901 51.3 30.5767 51.3C31.2701 51.3 31.9034 51.4867 32.4767 51.86C33.0501 52.2267 33.4834 52.7267 33.7767 53.36L32.9167 53.78C32.7034 53.3067 32.3867 52.9333 31.9667 52.66C31.5467 52.3867 31.0834 52.25 30.5767 52.25C29.8434 52.25 29.2201 52.5067 28.7067 53.02Z" fill="white"/>
</svg>
