<svg width="50" height="65" viewBox="0 0 50 65" fill="none" xmlns="http://www.w3.org/2000/svg">
<path d="M44.3837 64.5H5.05302C3.74707 64.5 2.4946 63.984 1.57115 63.0655C0.647695 62.147 0.128906 60.9013 0.128906 59.6023V5.45383C0.128906 4.81066 0.256272 4.17378 0.503732 3.57957C0.751192 2.98535 1.1139 2.44544 1.57115 1.99065C2.02839 1.53586 2.57122 1.1751 3.16864 0.928966C3.76606 0.682834 4.40638 0.556152 5.05302 0.556152H29.9936L49.3079 20.3502V59.6023C49.3079 60.9013 48.7891 62.147 47.8656 63.0655C46.9422 63.984 45.6897 64.5 44.3837 64.5Z" fill="#EAEBEF"/>
<path d="M0.128906 44.8511H49.3079V59.616C49.3079 62.4995 46.9703 64.837 44.0868 64.837H5.34996C2.46645 64.837 0.128906 62.4995 0.128906 59.616V44.8511Z" fill="#232C32"/>
<path d="M29.9766 0.552246V15.8767C29.9789 17.0901 30.462 18.2531 31.3199 19.1111C32.1779 19.9691 33.341 20.4521 34.5543 20.4545H49.2921L29.9766 0.552246Z" fill="#F6F7F9"/>
<g opacity="0.2">
<path d="M30.1836 17.2188C30.1927 18.379 30.5977 19.5013 31.3316 20.4001C32.0654 21.2988 33.0842 21.92 34.2191 22.161C34.3771 22.205 34.5374 22.2406 34.6992 22.2676C36.628 22.6143 49.2947 24.8632 49.2947 24.5787V20.4543H34.5569C34.5569 20.4543 30.8769 20.3299 30.1836 17.2188Z" fill="black" fill-opacity="0.3"/>
</g>
<path d="M49.2926 20.4556C48.8073 20.5278 48.3165 20.5576 47.8259 20.5444L43.8348 20.6244H37.9148H34.4126C33.754 20.6062 33.1062 20.4524 32.5097 20.1725C31.9132 19.8926 31.3809 19.4927 30.946 18.9978C30.5152 18.5035 30.1878 17.9279 29.9833 17.305C29.7787 16.6821 29.701 16.0245 29.7548 15.3711C29.7548 14.1622 29.7548 12.9889 29.7548 11.8778C29.7548 9.66445 29.7548 7.66444 29.8082 5.95778C29.8615 4.25111 29.8615 2.98889 29.8793 1.96667C29.8721 1.47624 29.9018 0.985967 29.9682 0.5C30.0405 0.985368 30.0702 1.47612 30.0571 1.96667C30.0571 2.98889 30.1015 4.33111 30.1371 5.95778C30.1726 7.58444 30.1371 9.66445 30.1371 11.8778C30.1371 12.9889 30.1371 14.1622 30.1371 15.3711C30.0862 15.9696 30.156 16.5722 30.3423 17.1433C30.5285 17.7143 30.8275 18.2422 31.2215 18.6956C31.617 19.1416 32.0991 19.5025 32.6386 19.7562C33.178 20.0098 33.7635 20.151 34.3593 20.1711H37.8437L43.7637 20.2244L47.7549 20.2956C48.2709 20.3082 48.7851 20.3617 49.2926 20.4556Z" fill="white"/>
<path d="M18.7113 52.43H16.7913V55.28H18.7113C19.1713 55.28 19.5546 55.1433 19.8613 54.87C20.1679 54.59 20.3213 54.2433 20.3213 53.83C20.3213 53.43 20.1679 53.0967 19.8613 52.83C19.5546 52.5633 19.1713 52.43 18.7113 52.43ZM18.7113 56.2H16.7913V58.5H15.8413V51.5H18.8113C19.5179 51.5 20.1046 51.7233 20.5713 52.17C21.0379 52.61 21.2713 53.1633 21.2713 53.83C21.2713 54.49 21.0213 55.05 20.5213 55.51C20.0279 55.97 19.4246 56.2 18.7113 56.2ZM25.0003 52.43H23.0803V55.28H25.0003C25.4603 55.28 25.8436 55.1433 26.1503 54.87C26.457 54.59 26.6103 54.2433 26.6103 53.83C26.6103 53.43 26.457 53.0967 26.1503 52.83C25.8436 52.5633 25.4603 52.43 25.0003 52.43ZM25.0003 56.2H23.0803V58.5H22.1303V51.5H25.1003C25.807 51.5 26.3936 51.7233 26.8603 52.17C27.327 52.61 27.5603 53.1633 27.5603 53.83C27.5603 54.49 27.3103 55.05 26.8103 55.51C26.317 55.97 25.7136 56.2 25.0003 56.2ZM33.4524 51.5V52.43H31.2024V58.5H30.2524V52.43H28.0024V51.5H33.4524Z" fill="white"/>
</svg>
