<svg width="50" height="65" viewBox="0 0 50 65" fill="none" xmlns="http://www.w3.org/2000/svg">
<path d="M44.3837 64.5H5.05302C3.74707 64.5 2.4946 63.984 1.57115 63.0655C0.647695 62.147 0.128906 60.9013 0.128906 59.6023V5.45383C0.128906 4.81066 0.256272 4.17378 0.503732 3.57957C0.751192 2.98535 1.1139 2.44544 1.57115 1.99065C2.02839 1.53586 2.57122 1.1751 3.16864 0.928966C3.76606 0.682834 4.40638 0.556152 5.05302 0.556152H29.9936L49.3079 20.3502V59.6023C49.3079 60.9013 48.7891 62.147 47.8656 63.0655C46.9422 63.984 45.6897 64.5 44.3837 64.5Z" fill="#EAEBEF"/>
<path d="M0.128906 44.8511H49.3079V59.616C49.3079 62.4995 46.9703 64.837 44.0868 64.837H5.34996C2.46645 64.837 0.128906 62.4995 0.128906 59.616V44.8511Z" fill="#232C32"/>
<path d="M29.9766 0.552246V15.8767C29.9789 17.0901 30.462 18.2531 31.3199 19.1111C32.1779 19.9691 33.341 20.4521 34.5543 20.4545H49.2921L29.9766 0.552246Z" fill="#F6F7F9"/>
<g opacity="0.2">
<path d="M30.1836 17.2188C30.1927 18.379 30.5977 19.5013 31.3316 20.4001C32.0654 21.2988 33.0842 21.92 34.2191 22.161C34.3771 22.205 34.5374 22.2406 34.6992 22.2676C36.628 22.6143 49.2947 24.8632 49.2947 24.5787V20.4543H34.5569C34.5569 20.4543 30.8769 20.3299 30.1836 17.2188Z" fill="black" fill-opacity="0.3"/>
</g>
<path d="M49.2926 20.4556C48.8073 20.5278 48.3165 20.5576 47.8259 20.5444L43.8348 20.6244H37.9148H34.4126C33.754 20.6062 33.1062 20.4524 32.5097 20.1725C31.9132 19.8926 31.3809 19.4927 30.946 18.9978C30.5152 18.5035 30.1878 17.9279 29.9833 17.305C29.7787 16.6821 29.701 16.0245 29.7548 15.3711C29.7548 14.1622 29.7548 12.9889 29.7548 11.8778C29.7548 9.66445 29.7548 7.66444 29.8082 5.95778C29.8615 4.25111 29.8615 2.98889 29.8793 1.96667C29.8721 1.47624 29.9018 0.985967 29.9682 0.5C30.0405 0.985368 30.0702 1.47612 30.0571 1.96667C30.0571 2.98889 30.1015 4.33111 30.1371 5.95778C30.1726 7.58444 30.1371 9.66445 30.1371 11.8778C30.1371 12.9889 30.1371 14.1622 30.1371 15.3711C30.0862 15.9696 30.156 16.5722 30.3423 17.1433C30.5285 17.7143 30.8275 18.2422 31.2215 18.6956C31.617 19.1416 32.0991 19.5025 32.6386 19.7562C33.178 20.0098 33.7635 20.151 34.3593 20.1711H37.8437L43.7637 20.2244L47.7549 20.2956C48.2709 20.3082 48.7851 20.3617 49.2926 20.4556Z" fill="white"/>
<path d="M17.8547 52.43H15.8147V55H17.8547C18.268 55 18.6114 54.8767 18.8847 54.63C19.1647 54.3767 19.3047 54.0667 19.3047 53.7C19.3047 53.3333 19.168 53.03 18.8947 52.79C18.6214 52.55 18.2747 52.43 17.8547 52.43ZM18.2747 55.85L20.2947 58.5H19.1647L17.1947 55.92H15.8147V58.5H14.8647V51.5H17.9547C18.6347 51.5 19.1947 51.7067 19.6347 52.12C20.0747 52.5333 20.2947 53.0667 20.2947 53.72C20.2947 54.2867 20.1014 54.7733 19.7147 55.18C19.3347 55.58 18.8547 55.8033 18.2747 55.85ZM22.4623 55.8H26.5323V56.69H22.4623V55.8ZM22.0423 58.5H20.9523L23.8823 51.5H25.1223L28.0523 58.5H26.9723L24.5123 52.49L22.0423 58.5ZM31.8977 52.43H29.8577V55H31.8977C32.311 55 32.6543 54.8767 32.9277 54.63C33.2077 54.3767 33.3477 54.0667 33.3477 53.7C33.3477 53.3333 33.211 53.03 32.9377 52.79C32.6643 52.55 32.3177 52.43 31.8977 52.43ZM32.3177 55.85L34.3377 58.5H33.2077L31.2377 55.92H29.8577V58.5H28.9077V51.5H31.9977C32.6777 51.5 33.2377 51.7067 33.6777 52.12C34.1177 52.5333 34.3377 53.0667 34.3377 53.72C34.3377 54.2867 34.1443 54.7733 33.7577 55.18C33.3777 55.58 32.8977 55.8033 32.3177 55.85Z" fill="white"/>
</svg>
