<svg width="50" height="65" viewBox="0 0 50 65" fill="none" xmlns="http://www.w3.org/2000/svg">
<path d="M44.3837 64.5H5.05302C3.74707 64.5 2.4946 63.984 1.57115 63.0655C0.647695 62.147 0.128906 60.9013 0.128906 59.6023V5.45383C0.128906 4.81066 0.256272 4.17378 0.503732 3.57957C0.751192 2.98535 1.1139 2.44544 1.57115 1.99065C2.02839 1.53586 2.57122 1.1751 3.16864 0.928966C3.76606 0.682834 4.40638 0.556152 5.05302 0.556152H29.9936L49.3079 20.3502V59.6023C49.3079 60.9013 48.7891 62.147 47.8656 63.0655C46.9422 63.984 45.6897 64.5 44.3837 64.5Z" fill="#EAEBEF"/>
<path d="M0.128906 44.8511H49.3079V59.616C49.3079 62.4995 46.9703 64.837 44.0868 64.837H5.34996C2.46645 64.837 0.128906 62.4995 0.128906 59.616V44.8511Z" fill="#232C32"/>
<path d="M29.9766 0.552246V15.8767C29.9789 17.0901 30.462 18.2531 31.3199 19.1111C32.1779 19.9691 33.341 20.4521 34.5543 20.4545H49.2921L29.9766 0.552246Z" fill="#F6F7F9"/>
<g opacity="0.2">
<path d="M30.1836 17.2188C30.1927 18.379 30.5977 19.5013 31.3316 20.4001C32.0654 21.2988 33.0842 21.92 34.2191 22.161C34.3771 22.205 34.5374 22.2406 34.6992 22.2676C36.628 22.6143 49.2947 24.8632 49.2947 24.5787V20.4543H34.5569C34.5569 20.4543 30.8769 20.3299 30.1836 17.2188Z" fill="black" fill-opacity="0.3"/>
</g>
<path d="M49.2926 20.4556C48.8073 20.5278 48.3165 20.5576 47.8259 20.5444L43.8348 20.6244H37.9148H34.4126C33.754 20.6062 33.1062 20.4524 32.5097 20.1725C31.9132 19.8926 31.3809 19.4927 30.946 18.9978C30.5152 18.5035 30.1878 17.9279 29.9833 17.305C29.7787 16.6821 29.701 16.0245 29.7548 15.3711C29.7548 14.1622 29.7548 12.9889 29.7548 11.8778C29.7548 9.66445 29.7548 7.66444 29.8082 5.95778C29.8615 4.25111 29.8615 2.98889 29.8793 1.96667C29.8721 1.47624 29.9018 0.985967 29.9682 0.5C30.0405 0.985368 30.0702 1.47612 30.0571 1.96667C30.0571 2.98889 30.1015 4.33111 30.1371 5.95778C30.1726 7.58444 30.1371 9.66445 30.1371 11.8778C30.1371 12.9889 30.1371 14.1622 30.1371 15.3711C30.0862 15.9696 30.156 16.5722 30.3423 17.1433C30.5285 17.7143 30.8275 18.2422 31.2215 18.6956C31.617 19.1416 32.0991 19.5025 32.6386 19.7562C33.178 20.0098 33.7635 20.151 34.3593 20.1711H37.8437L43.7637 20.2244L47.7548 20.2956C48.2709 20.3082 48.7851 20.3617 49.2926 20.4556Z" fill="white"/>
<path d="M22.2029 58.5H21.0329L18.9629 55.62L16.8829 58.5H15.7129L18.1929 55.04L15.7129 51.5H16.8829L18.9629 54.46L21.0329 51.5H22.2029L19.7229 55.04L22.2029 58.5ZM23.9934 57.57H27.7734V58.5H23.0434V51.5H23.9934V57.57ZM30.6366 55.47C29.0233 55.15 28.2166 54.4467 28.2166 53.36C28.2166 52.7867 28.4333 52.3133 28.8666 51.94C29.2999 51.56 29.8533 51.37 30.5266 51.37C31.1066 51.37 31.6333 51.5267 32.1066 51.84C32.5866 52.1533 32.9299 52.5733 33.1366 53.1L32.2466 53.45C32.0933 53.09 31.8666 52.8067 31.5666 52.6C31.2666 52.3933 30.9266 52.29 30.5466 52.29C30.1533 52.29 29.8299 52.39 29.5766 52.59C29.3233 52.7833 29.1966 53.0367 29.1966 53.35C29.1966 53.6367 29.3233 53.87 29.5766 54.05C29.8299 54.23 30.2366 54.3767 30.7966 54.49C31.5833 54.65 32.1833 54.9133 32.5966 55.28C33.0099 55.6467 33.2166 56.0933 33.2166 56.62C33.2166 57.1933 32.9899 57.67 32.5366 58.05C32.0833 58.4233 31.5099 58.61 30.8166 58.61C30.2166 58.61 29.6699 58.4533 29.1766 58.14C28.6899 57.82 28.3399 57.3967 28.1266 56.87L29.0366 56.43C29.1899 56.8233 29.4233 57.1333 29.7366 57.36C30.0499 57.58 30.3999 57.69 30.7866 57.69C31.2066 57.69 31.5533 57.5867 31.8266 57.38C32.0999 57.1733 32.2366 56.9133 32.2366 56.6C32.2366 56.32 32.1066 56.09 31.8466 55.91C31.5866 55.7233 31.1833 55.5767 30.6366 55.47Z" fill="white"/>
</svg>
