<svg width="59" height="57" viewBox="0 0 59 57" fill="none" xmlns="http://www.w3.org/2000/svg">
<path d="M41.0572 0L34.6934 7.48957C34.7704 7.48957 34.8388 7.48957 34.9243 7.48957C36.2091 7.48251 37.468 7.86438 38.5471 8.58851C39.6263 9.31263 40.479 10.3476 41.0009 11.567C41.5229 12.7864 41.6915 14.1373 41.4862 15.4546C41.2809 16.7719 40.7105 17.9986 39.8449 18.9846C38.9792 19.9707 37.8557 20.6734 36.6117 21.0069C35.3677 21.3404 34.0571 21.2902 32.8401 20.8625C31.6231 20.4347 30.5525 19.648 29.759 18.5984C28.9656 17.5489 28.4837 16.2819 28.3724 14.9525L22 22.4598C23.2292 24.5617 24.917 26.3338 26.9273 27.633C28.9375 28.9322 31.2138 29.7221 33.5722 29.9389C35.9306 30.1557 38.305 29.7934 40.5037 28.881C42.7024 27.9687 44.6636 26.5321 46.2291 24.6871C47.7945 22.8422 48.9203 20.6406 49.5153 18.2604C50.1104 15.8801 50.1582 13.3878 49.6548 10.9848C49.1514 8.58181 48.1109 6.33549 46.6174 4.42728C45.1238 2.51908 43.2192 1.00248 41.0572 0Z" fill="#FF6859"/>
<path d="M21.3689 22.5054C21.2835 22.5054 21.198 22.5054 21.1126 22.5054C19.826 22.5199 18.5633 22.1438 17.4796 21.4231C16.3958 20.7024 15.5382 19.6686 15.0121 18.4486C14.4859 17.2285 14.3141 15.8754 14.5177 14.5553C14.7213 13.2352 15.2915 12.0057 16.1583 11.0176C17.025 10.0295 18.1506 9.32597 19.3968 8.9933C20.643 8.66064 21.9556 8.71336 23.1733 9.14498C24.3911 9.57661 25.461 10.3683 26.2518 11.423C27.0426 12.4776 27.5197 13.7493 27.6246 15.0817L34 7.57822C32.7764 5.47033 31.0922 3.69156 29.0838 2.38598C27.0754 1.08041 24.7992 0.284747 22.4397 0.0634596C20.0803 -0.157829 17.7038 0.201476 15.5028 1.11227C13.3019 2.02306 11.3384 3.45973 9.7713 5.30589C8.20424 7.15205 7.07773 9.35579 6.48301 11.7386C5.88829 14.1214 5.84209 16.6162 6.34816 19.021C6.85423 21.4258 7.89833 23.673 9.39589 25.5804C10.8934 27.4878 12.8023 29.0019 14.9679 30L21.3689 22.5054Z" fill="#4A2D97"/>
<path d="M13.1834 57V42.4229H3.8166V57H0V39H17V42.4229V57H13.1834Z" fill="white"/>
<path d="M30.5106 56.9908C29.245 57.0247 27.9855 56.8141 26.81 56.3722C25.6346 55.9302 24.5684 55.2663 23.6773 54.4216C22.7972 53.5744 22.107 52.5699 21.6477 51.4676C21.1884 50.3654 20.9694 49.1878 21.0034 48.0046C20.9694 46.8214 21.1884 45.6438 21.6477 44.5415C22.107 43.4393 22.7972 42.4348 23.6773 41.5875C24.5642 40.7367 25.6294 40.068 26.8056 39.6238C27.9818 39.1796 29.2435 38.9695 30.5106 39.0067C31.8014 38.9576 33.0877 39.1771 34.2776 39.6494C35.4675 40.1216 36.5315 40.8351 37.3934 41.7386L37.9257 42.3083L35.4499 44.7495L34.8186 44.1567C34.2603 43.6074 33.5874 43.1721 32.8419 42.8781C32.0964 42.584 31.2944 42.4376 30.4859 42.4478C29.7382 42.4275 28.9944 42.5558 28.3032 42.8243C27.6121 43.0927 26.989 43.4953 26.475 44.0055C25.9321 44.5353 25.5086 45.1626 25.23 45.8498C24.9513 46.5369 24.8232 47.2698 24.8534 48.0046C24.8242 48.7375 24.9528 49.4684 25.2314 50.1535C25.5101 50.8386 25.933 51.4639 26.475 51.992C26.989 52.5022 27.6121 52.9048 28.3032 53.1732C28.9944 53.4417 29.7382 53.57 30.4859 53.5497C31.3053 53.5566 32.1176 53.4066 32.8732 53.1088C33.6288 52.811 34.3118 52.3716 34.8805 51.8176L35.5242 51.2131L38 53.7125L37.4677 54.2589C36.5966 55.1705 35.5203 55.8886 34.317 56.3611C33.1137 56.8336 31.8134 57.0487 30.5106 56.9908Z" fill="white"/>
<path d="M54.157 57L47.133 49.3593H45.6867V57H42V39H45.6867V45.8743H47.157L54.06 39H58.988L50.289 47.5629L59 57H54.157Z" fill="white"/>
</svg>
