<svg xmlns="http://www.w3.org/2000/svg" width="58" height="58" viewBox="0 0 58 58" fill="none">
    <path
        d="M51.8033 20.7267C51.4988 20.1989 50.9313 19.8711 50.3221 19.8711H42.3339V26.3634C42.4067 26.3511 42.2566 30.115 42.3328 30.115L56.5 29L51.8033 20.7267Z"
        fill="black" />
    <path
        d="M56.4094 34.5502V29.0293H42.5583C42.4821 29.0293 42.4077 29.0215 42.3349 29.0091V34.5048H39.9854V11.5006H2.34701V34.5048H0.000158876C0 34.5004 0.000158876 35.4065 0.000158876 36.5187C0.000158876 37.6309 0 38.5326 0 38.5326H2.1661H6.18849C6.30732 35.4675 8.83644 33.0102 11.93 33.0102C15.0236 33.0102 17.553 35.4675 17.6716 38.5326H40.1663H43.5168C43.6356 35.4675 46.1648 33.0102 49.2585 33.0102C52.3521 33.0102 54.8814 35.4675 55 38.5326H58C58 38.5326 58 35.6624 58 34.5502H56.4094Z"
        fill="black" />
    <path
        d="M11.9308 35.0238C9.87224 35.0238 8.19727 36.6987 8.19727 38.7573C8.19727 40.8159 9.87213 42.4908 11.9308 42.4908C13.9894 42.4908 15.6643 40.816 15.6643 38.7573C15.6643 36.6987 13.9893 35.0238 11.9308 35.0238Z"
        fill="black" />
    <path
        d="M49.257 35.0238C47.1984 35.0238 45.5234 36.6987 45.5234 38.7573C45.5234 40.8159 47.1983 42.4908 49.257 42.4908C51.3155 42.4908 52.9905 40.816 52.9905 38.7573C52.9904 36.6987 51.3155 35.0238 49.257 35.0238Z"
        fill="black" />
</svg>