<svg width="42" height="40" viewBox="0 0 42 40" fill="none" xmlns="http://www.w3.org/2000/svg">
    <g clip-path="url(#clip0_3719_20557)">
        <path
            d="M36.1191 11.1901C35.9619 10.3257 35.2089 9.69738 34.3303 9.69738H26.9326C27.3991 8.78754 27.6641 7.75809 27.6641 6.66723C27.6641 2.99145 24.6736 0.000976562 20.9978 0.000976562C17.3221 0.000976562 14.3316 2.99145 14.3316 6.66723C14.3316 7.75809 14.5967 8.78746 15.0631 9.69738H7.66527C6.78668 9.69738 6.03371 10.3258 5.87652 11.1901C4.12908 20.8012 0.5 39.9986 0.5 39.9986C0.5 39.9986 2.27785 39.9986 2.81715 39.9986H39.1786H39.181C40.1852 39.9986 41.5 39.9986 41.5 39.9986C41.5 39.9986 37.7693 20.2664 36.1191 11.1901ZM20.9978 9.69738C19.3271 9.69738 17.9677 8.33809 17.9677 6.66723C17.9677 4.99637 19.327 3.63707 20.9978 3.63707C22.6687 3.63707 24.028 4.99637 24.028 6.66723C24.028 8.33809 22.6686 9.69738 20.9978 9.69738Z"
            fill="black" />
        <path
            d="M13.933 20.8806V30H11.4482V23.1574H11.3992L9.40395 24.357V22.2516L11.644 20.8806H13.933ZM19.0556 30.1224C18.2109 30.1224 17.4887 29.9368 16.8889 29.5655C16.2891 29.1941 15.8281 28.6617 15.5057 27.968C15.1875 27.2703 15.0283 26.4298 15.0283 25.4464C15.0283 24.4631 15.1875 23.6226 15.5057 22.9248C15.8281 22.223 16.2891 21.6865 16.8889 21.3152C17.4887 20.9439 18.2109 20.7582 19.0556 20.7582C19.9002 20.7582 20.6224 20.9459 21.2222 21.3213C21.8261 21.6926 22.2871 22.2271 22.6054 22.9248C22.9236 23.6226 23.0828 24.4631 23.0828 25.4464C23.0828 26.4298 22.9236 27.2703 22.6054 27.968C22.2871 28.6617 21.8281 29.1941 21.2283 29.5655C20.6285 29.9368 19.9043 30.1224 19.0556 30.1224ZM19.0556 28.1149C19.3697 28.1149 19.635 28.0129 19.8512 27.8089C20.0675 27.6049 20.2307 27.305 20.3408 26.9092C20.4551 26.5093 20.5122 26.0217 20.5122 25.4464C20.5122 24.867 20.4551 24.3774 20.3408 23.9775C20.2307 23.5777 20.0675 23.2737 19.8512 23.0656C19.635 22.8575 19.3697 22.7535 19.0556 22.7535C18.5863 22.7535 18.2252 22.986 17.9722 23.4512C17.7234 23.9163 17.5989 24.5814 17.5989 25.4464C17.5989 26.0217 17.654 26.5093 17.7642 26.9092C17.8743 27.305 18.0375 27.6049 18.2538 27.8089C18.4741 28.0129 18.7414 28.1149 19.0556 28.1149ZM28.1686 30.1224C27.324 30.1224 26.6018 29.9368 26.002 29.5655C25.4022 29.1941 24.9411 28.6617 24.6187 27.968C24.3005 27.2703 24.1414 26.4298 24.1414 25.4464C24.1414 24.4631 24.3005 23.6226 24.6187 22.9248C24.9411 22.223 25.4022 21.6865 26.002 21.3152C26.6018 20.9439 27.324 20.7582 28.1686 20.7582C29.0132 20.7582 29.7354 20.9459 30.3352 21.3213C30.9391 21.6926 31.4001 22.2271 31.7184 22.9248C32.0367 23.6226 32.1958 24.4631 32.1958 25.4464C32.1958 26.4298 32.0367 27.2703 31.7184 27.968C31.4001 28.6617 30.9411 29.1941 30.3413 29.5655C29.7415 29.9368 29.0173 30.1224 28.1686 30.1224ZM28.1686 28.1149C28.4828 28.1149 28.748 28.0129 28.9642 27.8089C29.1805 27.6049 29.3437 27.305 29.4539 26.9092C29.5681 26.5093 29.6252 26.0217 29.6252 25.4464C29.6252 24.867 29.5681 24.3774 29.4539 23.9775C29.3437 23.5777 29.1805 23.2737 28.9642 23.0656C28.748 22.8575 28.4828 22.7535 28.1686 22.7535C27.6993 22.7535 27.3382 22.986 27.0853 23.4512C26.8364 23.9163 26.7119 24.5814 26.7119 25.4464C26.7119 26.0217 26.767 26.5093 26.8772 26.9092C26.9873 27.305 27.1505 27.6049 27.3668 27.8089C27.5871 28.0129 27.8544 28.1149 28.1686 28.1149Z"
            fill="white" />
    </g>
    <defs>
        <clipPath id="clip0_3719_20557">
            <rect width="42" height="40" fill="white" />
        </clipPath>
    </defs>
</svg>