<svg width="64" height="42" viewBox="0 0 64 42" fill="none" xmlns="http://www.w3.org/2000/svg">
    <path
        d="M9 3H17V0H22V3H26V7.99902L26.001 8L16 18.332V37H23V42H4V37H11V18.4688L10.9668 18.502L0 8V3H4V0H9V3ZM11 11.4648V8H7.53516L11 11.4648ZM16 11.2676L19.2676 8H16V11.2676Z"
        fill="black" />
    <path
        d="M47 3H55V0H60V3H64V7.99902L64.001 8L54 18.332V37H61V42H42V37H49V18.4688L48.9668 18.502L38 8V3H42V0H47V3ZM49 11.4648V8H45.5352L49 11.4648ZM54 11.2676L57.2676 8H54V11.2676Z"
        fill="black" />
    <path d="M19 17.5C23 20.1667 32.3 23.9 45.5 17.5" stroke="black" stroke-width="4" />
</svg>