<svg xmlns="http://www.w3.org/2000/svg" width="32" height="32" viewBox="0 0 32 32" fill="none">
    <path
        d="M29.3471 17.425L22.3929 19.255L18.5035 17L22.3929 14.7437L29.3471 16.575L30 14.1838L25.4793 12.9937L29.4476 10.7437L28.1749 8.58L24.2065 10.8288L25.4182 6.39L22.9835 5.75L21.1202 12.58L17.2727 14.81V10L22.3636 5L20.5818 3.25L17.2727 6.5V2H14.7273V6.5L11.4182 3.25L9.63636 5L14.7273 10V14.81L10.8798 12.58L9.01655 5.75L6.58182 6.39L7.79345 10.8288L3.82509 8.58L2.55236 10.7437L6.52073 12.9937L2 14.1838L2.65291 16.575L9.60709 14.7437L13.4965 17L9.60709 19.255L2.65291 17.425L2 19.815L6.51945 21.005L2.55236 23.255L3.82509 25.4188L7.79218 23.17L6.58182 27.6087L9.01655 28.25L10.8798 21.4188L14.7273 19.1888V24L9.63636 29L11.4182 30.75L14.7273 27.5V32H17.2727V27.5L20.5818 30.75L22.3636 29L17.2727 24V19.1888L21.1202 21.4188L22.9835 28.25L25.4182 27.6087L24.2078 23.17L28.1749 25.4188L29.4476 23.255L25.4805 21.005L30 19.815L29.3471 17.425Z"
        fill="white" />
</svg>