<svg width="50" height="65" viewBox="0 0 50 65" fill="none" xmlns="http://www.w3.org/2000/svg">
<path d="M44.3837 64.5H5.05302C3.74707 64.5 2.4946 63.984 1.57115 63.0655C0.647695 62.147 0.128906 60.9013 0.128906 59.6023V5.45383C0.128906 4.81066 0.256272 4.17378 0.503732 3.57957C0.751192 2.98535 1.1139 2.44544 1.57115 1.99065C2.02839 1.53586 2.57122 1.1751 3.16864 0.928966C3.76606 0.682834 4.40638 0.556152 5.05302 0.556152H29.9936L49.3079 20.3502V59.6023C49.3079 60.9013 48.7891 62.147 47.8656 63.0655C46.9422 63.984 45.6897 64.5 44.3837 64.5Z" fill="#EAEBEF"/>
<path d="M0.128906 44.8511H49.3079V59.616C49.3079 62.4995 46.9703 64.837 44.0868 64.837H5.34996C2.46645 64.837 0.128906 62.4995 0.128906 59.616V44.8511Z" fill="#232C32"/>
<path d="M29.9766 0.552246V15.8767C29.9789 17.0901 30.462 18.2531 31.3199 19.1111C32.1779 19.9691 33.341 20.4521 34.5543 20.4545H49.2921L29.9766 0.552246Z" fill="#F6F7F9"/>
<g opacity="0.2">
<path d="M30.1836 17.2188C30.1927 18.379 30.5977 19.5013 31.3316 20.4001C32.0654 21.2988 33.0842 21.92 34.2191 22.161C34.3771 22.205 34.5374 22.2406 34.6992 22.2676C36.628 22.6143 49.2947 24.8632 49.2947 24.5787V20.4543H34.5569C34.5569 20.4543 30.8769 20.3299 30.1836 17.2188Z" fill="black" fill-opacity="0.3"/>
</g>
<path d="M49.2926 20.4556C48.8073 20.5278 48.3165 20.5576 47.8259 20.5444L43.8348 20.6244H37.9148H34.4126C33.754 20.6062 33.1062 20.4524 32.5097 20.1725C31.9132 19.8926 31.3809 19.4927 30.946 18.9978C30.5152 18.5035 30.1878 17.9279 29.9833 17.305C29.7787 16.6821 29.701 16.0245 29.7548 15.3711C29.7548 14.1622 29.7548 12.9889 29.7548 11.8778C29.7548 9.66445 29.7548 7.66444 29.8082 5.95778C29.8615 4.25111 29.8615 2.98889 29.8793 1.96667C29.8721 1.47624 29.9018 0.985967 29.9682 0.5C30.0405 0.985368 30.0702 1.47612 30.0571 1.96667C30.0571 2.98889 30.1015 4.33111 30.1371 5.95778C30.1726 7.58444 30.1371 9.66445 30.1371 11.8778C30.1371 12.9889 30.1371 14.1622 30.1371 15.3711C30.0862 15.9696 30.156 16.5722 30.3423 17.1433C30.5285 17.7143 30.8275 18.2422 31.2215 18.6956C31.617 19.1416 32.0991 19.5025 32.6386 19.7562C33.178 20.0098 33.7635 20.151 34.3593 20.1711H37.8437L43.7637 20.2244L47.7549 20.2956C48.2709 20.3082 48.7851 20.3617 49.2926 20.4556Z" fill="white"/>
<path d="M16.3621 58.5H13.7221V51.5H16.3621C16.9954 51.5 17.5721 51.6467 18.0921 51.94C18.6188 52.2333 19.0388 52.65 19.3521 53.19C19.6654 53.7233 19.8221 54.3233 19.8221 54.99C19.8221 55.6633 19.6654 56.27 19.3521 56.81C19.0388 57.3433 18.6188 57.76 18.0921 58.06C17.5721 58.3533 16.9954 58.5 16.3621 58.5ZM16.2621 52.42H14.6721V57.58H16.2621C16.9888 57.58 17.6021 57.3367 18.1021 56.85C18.6088 56.3633 18.8621 55.7433 18.8621 54.99C18.8621 54.2367 18.6088 53.62 18.1021 53.14C17.6021 52.66 16.9888 52.42 16.2621 52.42ZM21.4838 54.97C21.4838 55.7767 21.7372 56.44 22.2438 56.96C22.7572 57.4733 23.3805 57.73 24.1138 57.73C24.8472 57.73 25.4672 57.4733 25.9738 56.96C26.4872 56.44 26.7438 55.7767 26.7438 54.97C26.7438 54.1767 26.4872 53.5267 25.9738 53.02C25.4672 52.5067 24.8472 52.25 24.1138 52.25C23.3805 52.25 22.7572 52.5067 22.2438 53.02C21.7372 53.5267 21.4838 54.1767 21.4838 54.97ZM20.5338 54.97C20.5338 54.4433 20.6272 53.95 20.8138 53.49C21.0072 53.03 21.2638 52.6433 21.5838 52.33C21.9038 52.01 22.2838 51.76 22.7238 51.58C23.1638 51.3933 23.6272 51.3 24.1138 51.3C24.6005 51.3 25.0638 51.3933 25.5038 51.58C25.9438 51.76 26.3238 52.01 26.6438 52.33C26.9638 52.6433 27.2172 53.03 27.4038 53.49C27.5972 53.95 27.6938 54.4433 27.6938 54.97C27.6938 55.5033 27.5972 56.0033 27.4038 56.47C27.2172 56.93 26.9638 57.3233 26.6438 57.65C26.3238 57.97 25.9438 58.2233 25.5038 58.41C25.0638 58.59 24.6005 58.68 24.1138 58.68C23.6272 58.68 23.1638 58.59 22.7238 58.41C22.2838 58.2233 21.9038 57.97 21.5838 57.65C21.2638 57.3233 21.0072 56.93 20.8138 56.47C20.6272 56.0033 20.5338 55.5033 20.5338 54.97ZM28.8947 56.89C28.5747 56.3233 28.4147 55.69 28.4147 54.99C28.4147 54.29 28.5747 53.66 28.8947 53.1C29.2214 52.5333 29.658 52.0933 30.2047 51.78C30.758 51.46 31.368 51.3 32.0347 51.3C32.7747 51.3 33.4447 51.4967 34.0447 51.89C34.6514 52.2833 35.1114 52.82 35.4247 53.5L34.4947 53.86C34.268 53.36 33.9347 52.9667 33.4947 52.68C33.0547 52.3933 32.5647 52.25 32.0247 52.25C31.2847 52.25 30.6547 52.51 30.1347 53.03C29.6214 53.5433 29.3647 54.1967 29.3647 54.99C29.3647 55.7833 29.6214 56.44 30.1347 56.96C30.6547 57.4733 31.2847 57.73 32.0247 57.73C32.578 57.73 33.078 57.58 33.5247 57.28C33.978 56.9733 34.3147 56.56 34.5347 56.04L35.4747 56.38C35.1747 57.0867 34.7147 57.6467 34.0947 58.06C33.4814 58.4733 32.7947 58.68 32.0347 58.68C31.368 58.68 30.758 58.5233 30.2047 58.21C29.658 57.89 29.2214 57.45 28.8947 56.89Z" fill="white"/>
</svg>
