<svg width="50" height="65" viewBox="0 0 50 65" fill="none" xmlns="http://www.w3.org/2000/svg">
<path d="M44.3837 64.5H5.05302C3.74707 64.5 2.4946 63.984 1.57115 63.0655C0.647695 62.147 0.128906 60.9013 0.128906 59.6023V5.45383C0.128906 4.81066 0.256272 4.17378 0.503732 3.57957C0.751192 2.98535 1.1139 2.44544 1.57115 1.99065C2.02839 1.53586 2.57122 1.1751 3.16864 0.928966C3.76606 0.682834 4.40638 0.556152 5.05302 0.556152H29.9936L49.3079 20.3502V59.6023C49.3079 60.9013 48.7891 62.147 47.8656 63.0655C46.9422 63.984 45.6897 64.5 44.3837 64.5Z" fill="#EAEBEF"/>
<path d="M0.128906 44.8511H49.3079V59.616C49.3079 62.4995 46.9703 64.837 44.0868 64.837H5.34996C2.46645 64.837 0.128906 62.4995 0.128906 59.616V44.8511Z" fill="#232C32"/>
<path d="M29.9766 0.552246V15.8767C29.9789 17.0901 30.462 18.2531 31.3199 19.1111C32.1779 19.9691 33.341 20.4521 34.5543 20.4545H49.2921L29.9766 0.552246Z" fill="#F6F7F9"/>
<g opacity="0.2">
<path d="M30.1836 17.2188C30.1927 18.379 30.5977 19.5013 31.3316 20.4001C32.0654 21.2988 33.0842 21.92 34.2191 22.161C34.3771 22.205 34.5374 22.2406 34.6992 22.2676C36.628 22.6143 49.2947 24.8632 49.2947 24.5787V20.4543H34.5569C34.5569 20.4543 30.8769 20.3299 30.1836 17.2188Z" fill="black" fill-opacity="0.3"/>
</g>
<path d="M49.2926 20.4556C48.8073 20.5278 48.3165 20.5576 47.8259 20.5444L43.8348 20.6244H37.9148H34.4126C33.754 20.6062 33.1062 20.4524 32.5097 20.1725C31.9132 19.8926 31.3809 19.4927 30.946 18.9978C30.5152 18.5035 30.1878 17.9279 29.9833 17.305C29.7787 16.6821 29.701 16.0245 29.7548 15.3711C29.7548 14.1622 29.7548 12.9889 29.7548 11.8778C29.7548 9.66445 29.7548 7.66444 29.8082 5.95778C29.8615 4.25111 29.8615 2.98889 29.8793 1.96667C29.8721 1.47624 29.9018 0.985967 29.9682 0.5C30.0405 0.985368 30.0702 1.47612 30.0571 1.96667C30.0571 2.98889 30.1015 4.33111 30.1371 5.95778C30.1726 7.58444 30.1371 9.66445 30.1371 11.8778C30.1371 12.9889 30.1371 14.1622 30.1371 15.3711C30.0862 15.9696 30.156 16.5722 30.3423 17.1433C30.5285 17.7143 30.8275 18.2422 31.2215 18.6956C31.617 19.1416 32.0991 19.5025 32.6386 19.7562C33.178 20.0098 33.7635 20.151 34.3593 20.1711H37.8437L43.7637 20.2244L47.7549 20.2956C48.2709 20.3082 48.7851 20.3617 49.2926 20.4556Z" fill="white"/>
<path d="M12.5662 58.5H9.92621V51.5H12.5662C13.1995 51.5 13.7762 51.6467 14.2962 51.94C14.8229 52.2333 15.2429 52.65 15.5562 53.19C15.8695 53.7233 16.0262 54.3233 16.0262 54.99C16.0262 55.6633 15.8695 56.27 15.5562 56.81C15.2429 57.3433 14.8229 57.76 14.2962 58.06C13.7762 58.3533 13.1995 58.5 12.5662 58.5ZM12.4662 52.42H10.8762V57.58H12.4662C13.1929 57.58 13.8062 57.3367 14.3062 56.85C14.8129 56.3633 15.0662 55.7433 15.0662 54.99C15.0662 54.2367 14.8129 53.62 14.3062 53.14C13.8062 52.66 13.1929 52.42 12.4662 52.42ZM17.6879 54.97C17.6879 55.7767 17.9413 56.44 18.4479 56.96C18.9613 57.4733 19.5846 57.73 20.3179 57.73C21.0513 57.73 21.6713 57.4733 22.1779 56.96C22.6913 56.44 22.9479 55.7767 22.9479 54.97C22.9479 54.1767 22.6913 53.5267 22.1779 53.02C21.6713 52.5067 21.0513 52.25 20.3179 52.25C19.5846 52.25 18.9613 52.5067 18.4479 53.02C17.9413 53.5267 17.6879 54.1767 17.6879 54.97ZM16.7379 54.97C16.7379 54.4433 16.8313 53.95 17.0179 53.49C17.2113 53.03 17.4679 52.6433 17.7879 52.33C18.1079 52.01 18.4879 51.76 18.9279 51.58C19.3679 51.3933 19.8313 51.3 20.3179 51.3C20.8046 51.3 21.2679 51.3933 21.7079 51.58C22.1479 51.76 22.5279 52.01 22.8479 52.33C23.1679 52.6433 23.4213 53.03 23.6079 53.49C23.8013 53.95 23.8979 54.4433 23.8979 54.97C23.8979 55.5033 23.8013 56.0033 23.6079 56.47C23.4213 56.93 23.1679 57.3233 22.8479 57.65C22.5279 57.97 22.1479 58.2233 21.7079 58.41C21.2679 58.59 20.8046 58.68 20.3179 58.68C19.8313 58.68 19.3679 58.59 18.9279 58.41C18.4879 58.2233 18.1079 57.97 17.7879 57.65C17.4679 57.3233 17.2113 56.93 17.0179 56.47C16.8313 56.0033 16.7379 55.5033 16.7379 54.97ZM25.0988 56.89C24.7788 56.3233 24.6188 55.69 24.6188 54.99C24.6188 54.29 24.7788 53.66 25.0988 53.1C25.4255 52.5333 25.8621 52.0933 26.4088 51.78C26.9621 51.46 27.5721 51.3 28.2388 51.3C28.9788 51.3 29.6488 51.4967 30.2488 51.89C30.8555 52.2833 31.3155 52.82 31.6288 53.5L30.6988 53.86C30.4721 53.36 30.1388 52.9667 29.6988 52.68C29.2588 52.3933 28.7688 52.25 28.2288 52.25C27.4888 52.25 26.8588 52.51 26.3388 53.03C25.8255 53.5433 25.5688 54.1967 25.5688 54.99C25.5688 55.7833 25.8255 56.44 26.3388 56.96C26.8588 57.4733 27.4888 57.73 28.2288 57.73C28.7821 57.73 29.2821 57.58 29.7288 57.28C30.1821 56.9733 30.5188 56.56 30.7388 56.04L31.6788 56.38C31.3788 57.0867 30.9188 57.6467 30.2988 58.06C29.6855 58.4733 28.9988 58.68 28.2388 58.68C27.5721 58.68 26.9621 58.5233 26.4088 58.21C25.8621 57.89 25.4255 57.45 25.0988 56.89ZM38.3532 58.5H37.1832L35.1132 55.62L33.0332 58.5H31.8632L34.3432 55.04L31.8632 51.5H33.0332L35.1132 54.46L37.1832 51.5H38.3532L35.8732 55.04L38.3532 58.5Z" fill="white"/>
</svg>
