<svg width="50" height="65" viewBox="0 0 50 65" fill="none" xmlns="http://www.w3.org/2000/svg">
<path d="M44.3837 64.5H5.05302C3.74707 64.5 2.4946 63.984 1.57115 63.0655C0.647695 62.147 0.128906 60.9013 0.128906 59.6023V5.45383C0.128906 4.81066 0.256272 4.17378 0.503732 3.57957C0.751192 2.98535 1.1139 2.44544 1.57115 1.99065C2.02839 1.53586 2.57122 1.1751 3.16864 0.928966C3.76606 0.682834 4.40638 0.556152 5.05302 0.556152H29.9936L49.3079 20.3502V59.6023C49.3079 60.9013 48.7891 62.147 47.8656 63.0655C46.9422 63.984 45.6897 64.5 44.3837 64.5Z" fill="#EAEBEF"/>
<path d="M0.128906 44.8511H49.3079V59.616C49.3079 62.4995 46.9703 64.837 44.0868 64.837H5.34996C2.46645 64.837 0.128906 62.4995 0.128906 59.616V44.8511Z" fill="#232C32"/>
<path d="M29.9766 0.552246V15.8767C29.9789 17.0901 30.462 18.2531 31.3199 19.1111C32.1779 19.9691 33.341 20.4521 34.5543 20.4545H49.2921L29.9766 0.552246Z" fill="#F6F7F9"/>
<g opacity="0.2">
<path d="M30.1836 17.2188C30.1927 18.379 30.5977 19.5013 31.3316 20.4001C32.0654 21.2988 33.0842 21.92 34.2191 22.161C34.3771 22.205 34.5374 22.2406 34.6992 22.2676C36.628 22.6143 49.2947 24.8632 49.2947 24.5787V20.4543H34.5569C34.5569 20.4543 30.8769 20.3299 30.1836 17.2188Z" fill="black" fill-opacity="0.3"/>
</g>
<path d="M49.2926 20.4556C48.8073 20.5278 48.3165 20.5576 47.8259 20.5444L43.8348 20.6244H37.9148H34.4126C33.754 20.6062 33.1062 20.4524 32.5097 20.1725C31.9132 19.8926 31.3809 19.4927 30.946 18.9978C30.5152 18.5035 30.1878 17.9279 29.9833 17.305C29.7787 16.6821 29.701 16.0245 29.7548 15.3711C29.7548 14.1622 29.7548 12.9889 29.7548 11.8778C29.7548 9.66445 29.7548 7.66444 29.8082 5.95778C29.8615 4.25111 29.8615 2.98889 29.8793 1.96667C29.8721 1.47624 29.9018 0.985967 29.9682 0.5C30.0405 0.985368 30.0702 1.47612 30.0571 1.96667C30.0571 2.98889 30.1015 4.33111 30.1371 5.95778C30.1726 7.58444 30.1371 9.66445 30.1371 11.8778C30.1371 12.9889 30.1371 14.1622 30.1371 15.3711C30.0862 15.9696 30.156 16.5722 30.3423 17.1433C30.5285 17.7143 30.8275 18.2422 31.2215 18.6956C31.617 19.1416 32.0991 19.5025 32.6386 19.7562C33.178 20.0098 33.7635 20.151 34.3593 20.1711H37.8437L43.7637 20.2244L47.7549 20.2956C48.2709 20.3082 48.7851 20.3617 49.2926 20.4556Z" fill="white"/>
<path d="M18.7375 58.5H17.7875V51.5H18.7375V58.5ZM20.8079 54.52H24.3479V55.46H20.8079V57.57H24.5879V58.5H19.8579V51.5H24.5879V52.43H20.8079V54.52ZM27.8319 55.47C26.2186 55.15 25.4119 54.4467 25.4119 53.36C25.4119 52.7867 25.6286 52.3133 26.0619 51.94C26.4952 51.56 27.0486 51.37 27.7219 51.37C28.3019 51.37 28.8286 51.5267 29.3019 51.84C29.7819 52.1533 30.1252 52.5733 30.3319 53.1L29.4419 53.45C29.2886 53.09 29.0619 52.8067 28.7619 52.6C28.4619 52.3933 28.1219 52.29 27.7419 52.29C27.3486 52.29 27.0252 52.39 26.7719 52.59C26.5186 52.7833 26.3919 53.0367 26.3919 53.35C26.3919 53.6367 26.5186 53.87 26.7719 54.05C27.0252 54.23 27.4319 54.3767 27.9919 54.49C28.7786 54.65 29.3786 54.9133 29.7919 55.28C30.2052 55.6467 30.4119 56.0933 30.4119 56.62C30.4119 57.1933 30.1852 57.67 29.7319 58.05C29.2786 58.4233 28.7052 58.61 28.0119 58.61C27.4119 58.61 26.8652 58.4533 26.3719 58.14C25.8852 57.82 25.5352 57.3967 25.3219 56.87L26.2319 56.43C26.3852 56.8233 26.6186 57.1333 26.9319 57.36C27.2452 57.58 27.5952 57.69 27.9819 57.69C28.4019 57.69 28.7486 57.5867 29.0219 57.38C29.2952 57.1733 29.4319 56.9133 29.4319 56.6C29.4319 56.32 29.3019 56.09 29.0419 55.91C28.7819 55.7233 28.3786 55.5767 27.8319 55.47Z" fill="white"/>
</svg>
