<svg width="65" height="60" viewBox="0 0 65 60" fill="none" xmlns="http://www.w3.org/2000/svg">
    <path
        d="M60.6436 52.3633H60.6426V55.7012H49.8027V52.3633H38.127V55.7012H27.2871V52.3633H15.1973V55.7012H4.35742V48.1943H60.6436V52.3633ZM56.4727 46.1123H8.52539V15.6758H56.4727V46.1123ZM58.5586 13.5898H6.44141V4H58.5586V13.5898Z"
        fill="black" />
    <g clip-path="url(#clip0_3744_20041)">
        <path
            d="M29.4132 30.9705C29.6534 30.6949 29.4577 30.2646 29.0921 30.2646H27.9974C27.9903 30.1563 27.9863 30.0471 27.9863 29.937C27.9863 27.2095 30.2052 24.9906 32.9327 24.9906C34.2434 24.9906 35.4365 25.5032 36.3225 26.3382L37.8662 24.5324C36.5149 23.2962 34.7759 22.6191 32.9327 22.6191C30.978 22.6191 29.1404 23.3804 27.7582 24.7625C26.376 26.1447 25.6148 27.9823 25.6148 29.937C25.6148 30.0466 25.6176 30.1558 25.6223 30.2645H24.7003C24.3346 30.2645 24.1389 30.6949 24.3792 30.9705L26.4593 33.3564L26.8962 33.8576L28.4648 32.0582L29.4132 30.9705Z"
            fill="white" />
        <path
            d="M41.4882 29.5785L39.9367 27.7989L38.9712 26.6914L37.5926 28.2727L36.4542 29.5785C36.2139 29.8541 36.4096 30.2845 36.7753 30.2845H37.8687C37.6898 32.8505 35.5453 34.8836 32.9346 34.8836C31.795 34.8836 30.7443 34.496 29.907 33.8459L28.3633 35.6519C29.6565 36.6905 31.2521 37.255 32.9347 37.255C34.8893 37.255 36.727 36.4938 38.1092 35.1116C39.4092 33.8117 40.1596 32.1087 40.2443 30.2845H41.1671C41.5327 30.2845 41.7284 29.8541 41.4882 29.5785Z"
            fill="white" />
    </g>
    <defs>
        <clipPath id="clip0_3744_20041">
            <rect width="17.3188" height="17.3188" fill="white"
                transform="translate(24.2734 21.3203)" />
        </clipPath>
    </defs>
</svg>
    