<svg preserveAspectRatio="none" width="100%" height="100%" overflow="visible" style="display: block;" viewBox="0 0 65 58.9062" fill="none" xmlns="http://www.w3.org/2000/svg">
<g id="Frame 2043683259">
<path id="Rectangle 37130" d="M52.6094 44.8906V32.9062C52.6094 29.2042 49.6083 26.2031 45.9062 26.2031C42.2042 26.2031 39.2031 29.2042 39.2031 32.9062V44.8906H52.6094Z" stroke="var(--stroke-0, black)" stroke-width="2.84375"/>
<path id="Vector" d="M16.9304 5.73774L16.9305 14.0403L12.0019 16.3744L7.07341 14.0403L7.07341 5.73766C3.43856 7.55015 0.940312 11.3026 0.940395 15.6403C0.940395 19.8979 3.34719 23.5912 6.8729 25.4404C6.84889 25.6421 6.83519 25.8472 6.83519 26.0555L6.87232 51.7954C6.87223 54.649 9.1496 56.6701 12.0033 56.6701C14.8569 56.6701 17.169 54.6491 17.169 51.7954V26.0553C17.169 25.8469 17.1552 25.6421 17.1313 25.4403C20.657 23.5911 23.0636 19.8978 23.0636 15.6403C23.0634 11.3026 20.5654 7.55023 16.9304 5.73774Z" fill="var(--fill-0, black)"/>
<rect id="Rectangle 37132" x="30.4688" y="41.8439" width="30.4688" height="9.34375" fill="var(--fill-0, black)"/>
<rect id="Rectangle 37133" x="33.3125" y="46.3125" width="5.6875" height="10.1562" fill="var(--fill-0, black)"/>
<rect id="Rectangle 37134" x="52.4062" y="46.3125" width="5.6875" height="10.1562" fill="var(--fill-0, black)"/>
<path id="Ellipse 58" d="M41.5339 7.1519C42.2396 6.1332 43.1722 5.41023 44.2085 5.07851C45.2448 4.7468 46.336 4.82194 47.338 5.29402C48.3399 5.76611 49.2054 6.6129 49.8202 7.72254C50.4349 8.83217 50.7699 10.1524 50.781 11.5088C50.792 12.8652 50.4786 14.194 49.882 15.3195C49.2855 16.4451 48.434 17.3144 47.4399 17.8127C46.4459 18.3109 45.3561 18.4147 44.3147 18.1102C43.2732 17.8058 42.329 17.1074 41.6068 16.1075L43.0026 14.4837C43.4658 15.1251 44.0715 15.5731 44.7396 15.7684C45.4077 15.9637 46.1068 15.8972 46.7445 15.5775C47.3821 15.2579 47.9284 14.7002 48.311 13.9782C48.6937 13.2562 48.8948 12.4038 48.8877 11.5337C48.8806 10.6635 48.6657 9.81662 48.2713 9.1048C47.877 8.39298 47.3218 7.84976 46.679 7.54693C46.0363 7.24409 45.3363 7.19588 44.6715 7.40868C44.0067 7.62147 43.4085 8.08525 42.9558 8.73874L41.5339 7.1519Z" fill="var(--fill-0, black)"/>
<rect id="Rectangle 37135" x="28.4375" y="9.34393" width="18.6875" height="4.46875" rx="2.23438" fill="var(--fill-0, black)"/>
<path id="Rectangle 37136" d="M49.1562 9.34375H62.7656C63.9996 9.34375 65 10.3441 65 11.5781V11.5781C65 12.8121 63.9996 13.8125 62.7656 13.8125H49.1562V9.34375Z" fill="var(--fill-0, black)"/>
<rect id="Rectangle 37137" x="44.2812" y="17.4688" width="2.4375" height="8.125" fill="var(--fill-0, black)"/>
</g>
</svg>
