<svg preserveAspectRatio="none" width="100%" height="100%" overflow="visible" style="display: block;" viewBox="0 0 65 64.0664" fill="none" xmlns="http://www.w3.org/2000/svg">
<g id="Frame 2043683260">
<path id="Rectangle 37123" d="M12.625 2.80575C12.625 1.25618 13.8812 0 15.4308 0H18.7041C20.2537 0 21.5099 1.25618 21.5099 2.80576V5.14389H12.625V2.80575Z" fill="var(--fill-0, black)"/>
<path id="Rectangle 37124" d="M9.34961 64.0664H24.7813V56.5844H9.34961V64.0664Z" fill="var(--fill-0, black)"/>
<path id="Rectangle 37125" d="M6.54688 16.3681C6.54688 11.2029 10.7341 7.01562 15.8994 7.01562H18.2375C23.4028 7.01562 27.59 11.2029 27.59 16.3681V16.3681H6.54688V16.3681Z" fill="var(--fill-0, black)"/>
<path id="Rectangle 37126" d="M4.20704 28.5265C4.20704 23.3612 8.39431 19.174 13.5596 19.174H20.5739C25.7392 19.174 29.9265 23.3612 29.9265 28.5265V28.5265H4.20704V28.5265Z" fill="var(--fill-0, black)"/>
<path id="Rectangle 37127" d="M2.33594 40.6846C2.33594 35.5193 6.5232 31.332 11.6885 31.332H22.4439C27.6091 31.332 31.7964 35.5193 31.7964 40.6846V40.6846H2.33594V40.6846Z" fill="var(--fill-0, black)"/>
<path id="Rectangle 37128" d="M0 53.778C0 48.0962 4.60599 43.4902 10.2878 43.4902H23.8489C29.5307 43.4902 34.1367 48.0962 34.1367 53.778V53.778H0V53.778Z" fill="var(--fill-0, black)"/>
<path id="Union" d="M53.543 2.80664C59.7412 2.80664 64.7664 7.83116 64.7666 14.0293C64.7666 18.4665 62.1906 22.3014 58.4531 24.123V32.7344H65V42.5547H41.6191V32.7344H48.6328V24.1221C44.8959 22.3003 42.3203 18.4662 42.3203 14.0293C42.3205 7.83128 47.345 2.80684 53.543 2.80664ZM53.3096 9.82031C50.8561 9.82035 48.8672 11.8093 48.8672 14.2627C48.8672 16.7162 50.8561 18.705 53.3096 18.7051C55.7631 18.7051 57.752 16.7162 57.752 14.2627C57.7519 11.8092 55.763 9.82031 53.3096 9.82031Z" fill="var(--fill-0, black)"/>
<path id="Rectangle 37129" d="M58.6865 39.9844V56.1172C58.6865 59.0871 56.2795 61.495 53.3096 61.4951C50.3395 61.4951 47.9316 59.0872 47.9316 56.1172V39.9844H58.6865Z" stroke="var(--stroke-0, black)" stroke-width="3.27338"/>
</g>
</svg>
