<svg xmlns="http://www.w3.org/2000/svg" width="32" height="32" viewBox="0 0 32 32" fill="none">
    <g clip-path="url(#clip0_3736_19839)">
        <path
            d="M9.49673 17.8312C9.94065 17.322 9.57903 16.5269 8.90345 16.5269H6.88076C6.86758 16.3268 6.86021 16.1251 6.86021 15.9217C6.86021 10.8821 10.9602 6.7821 15.9997 6.7821C18.4216 6.7821 20.626 7.72925 22.2631 9.27219L25.1153 5.93548C22.6186 3.65146 19.4054 2.40039 15.9997 2.40039C12.3881 2.40039 8.99262 3.80688 6.43878 6.36066C3.885 8.91451 2.4785 12.31 2.4785 15.9216C2.4785 16.1241 2.48356 16.3258 2.49237 16.5268H0.78864C0.113056 16.5268 -0.248621 17.3219 0.195358 17.8312L4.03874 22.2397L4.84601 23.1657L7.74442 19.8411L9.49673 17.8312Z"
            fill="white" />
        <path
            d="M31.8056 15.2584L28.939 11.9702L27.1549 9.92383L24.6078 12.8455L22.5043 15.2584C22.0604 15.7676 22.422 16.5627 23.0975 16.5627H25.1179C24.7873 21.304 20.825 25.0605 16.0012 25.0605C13.8955 25.0605 11.9541 24.3443 10.4071 23.1433L7.55469 26.4802C9.94424 28.3992 12.8924 29.4422 16.0013 29.4422C19.6129 29.4422 23.0084 28.0358 25.5622 25.4819C27.9642 23.0799 29.3508 19.9334 29.5073 16.5628H31.2124C31.8879 16.5627 32.2495 15.7676 31.8056 15.2584Z"
            fill="white" />
    </g>
    <defs>
        <clipPath id="clip0_3736_19839">
            <rect width="32" height="32" fill="white" />
        </clipPath>
    </defs>
</svg>