<svg width="64" height="65" viewBox="0 0 64 65" fill="none" xmlns="http://www.w3.org/2000/svg">
<path d="M51.3837 64.5H12.053C10.7471 64.5 9.4946 63.984 8.57115 63.0655C7.64769 62.147 7.12891 60.9013 7.12891 59.6023V5.45383C7.12891 4.81066 7.25627 4.17378 7.50373 3.57957C7.75119 2.98535 8.1139 2.44544 8.57115 1.99065C9.02839 1.53586 9.57122 1.1751 10.1686 0.928966C10.7661 0.682834 11.4064 0.556152 12.053 0.556152H36.9936L56.3079 20.3502V59.6023C56.3079 60.9013 55.7891 62.147 54.8656 63.0655C53.9422 63.984 52.6897 64.5 51.3837 64.5Z" fill="#EAEBEF"/>
<path d="M7.12891 44.8511H56.3079V59.616C56.3079 62.4995 53.9703 64.837 51.0868 64.837H12.35C9.46645 64.837 7.12891 62.4995 7.12891 59.616V44.8511Z" fill="#232C32"/>
<path d="M36.9766 0.552246V15.8767C36.9789 17.0901 37.462 18.2531 38.3199 19.1111C39.1779 19.9691 40.341 20.4521 41.5543 20.4545H56.2921L36.9766 0.552246Z" fill="#F6F7F9"/>
<g opacity="0.2">
<path d="M37.1836 17.2188C37.1927 18.379 37.5977 19.5013 38.3316 20.4001C39.0654 21.2988 40.0842 21.92 41.2191 22.161C41.3771 22.205 41.5374 22.2406 41.6992 22.2676C43.628 22.6143 56.2947 24.8632 56.2947 24.5787V20.4543H41.5569C41.5569 20.4543 37.8769 20.3299 37.1836 17.2188Z" fill="black" fill-opacity="0.3"/>
</g>
<path d="M56.2926 20.4556C55.8073 20.5278 55.3165 20.5576 54.8259 20.5444L50.8348 20.6244H44.9148H41.4126C40.754 20.6062 40.1062 20.4524 39.5097 20.1725C38.9132 19.8926 38.3809 19.4927 37.946 18.9978C37.5152 18.5035 37.1878 17.9279 36.9833 17.305C36.7787 16.6821 36.701 16.0245 36.7548 15.3711C36.7548 14.1622 36.7548 12.9889 36.7548 11.8778C36.7548 9.66445 36.7548 7.66444 36.8082 5.95778C36.8615 4.25111 36.8615 2.98889 36.8793 1.96667C36.8721 1.47624 36.9018 0.985967 36.9682 0.5C37.0405 0.985368 37.0702 1.47612 37.0571 1.96667C37.0571 2.98889 37.1015 4.33111 37.1371 5.95778C37.1726 7.58444 37.1371 9.66445 37.1371 11.8778C37.1371 12.9889 37.1371 14.1622 37.1371 15.3711C37.0862 15.9696 37.156 16.5722 37.3423 17.1433C37.5285 17.7143 37.8275 18.2422 38.2215 18.6956C38.617 19.1416 39.0991 19.5025 39.6386 19.7562C40.178 20.0098 40.7635 20.151 41.3593 20.1711H44.8437L50.7637 20.2244L54.7549 20.2956C55.2709 20.3082 55.7851 20.3617 56.2926 20.4556Z" fill="white"/>
<path d="M29.2029 58.5H28.0329L25.9629 55.62L23.8829 58.5H22.7129L25.1929 55.04L22.7129 51.5H23.8829L25.9629 54.46L28.0329 51.5H29.2029L26.7229 55.04L29.2029 58.5ZM30.9934 57.57H34.7734V58.5H30.0434V51.5H30.9934V57.57ZM37.6366 55.47C36.0233 55.15 35.2166 54.4467 35.2166 53.36C35.2166 52.7867 35.4333 52.3133 35.8666 51.94C36.2999 51.56 36.8533 51.37 37.5266 51.37C38.1066 51.37 38.6333 51.5267 39.1066 51.84C39.5866 52.1533 39.9299 52.5733 40.1366 53.1L39.2466 53.45C39.0933 53.09 38.8666 52.8067 38.5666 52.6C38.2666 52.3933 37.9266 52.29 37.5466 52.29C37.1533 52.29 36.8299 52.39 36.5766 52.59C36.3233 52.7833 36.1966 53.0367 36.1966 53.35C36.1966 53.6367 36.3233 53.87 36.5766 54.05C36.8299 54.23 37.2366 54.3767 37.7966 54.49C38.5833 54.65 39.1833 54.9133 39.5966 55.28C40.0099 55.6467 40.2166 56.0933 40.2166 56.62C40.2166 57.1933 39.9899 57.67 39.5366 58.05C39.0833 58.4233 38.5099 58.61 37.8166 58.61C37.2166 58.61 36.6699 58.4533 36.1766 58.14C35.6899 57.82 35.3399 57.3967 35.1266 56.87L36.0366 56.43C36.1899 56.8233 36.4233 57.1333 36.7366 57.36C37.0499 57.58 37.3999 57.69 37.7866 57.69C38.2066 57.69 38.5533 57.5867 38.8266 57.38C39.0999 57.1733 39.2366 56.9133 39.2366 56.6C39.2366 56.32 39.1066 56.09 38.8466 55.91C38.5866 55.7233 38.1833 55.5767 37.6366 55.47Z" fill="white"/>
</svg>
